neythal-font.ufo
<glyph name="dollar" format="1">
  <advance width="324"/>
  <unicode hex="0024"/>
  <outline>
    <contour>
      <point x="187" y="676" type="curve"/>
      <point x="231" y="652"/>
      <point x="264" y="602"/>
      <point x="226" y="561" type="curve" smooth="yes"/>
      <point x="212" y="546"/>
      <point x="229" y="524"/>
      <point x="247" y="536" type="curve" smooth="yes"/>
      <point x="355" y="615"/>
      <point x="273" y="708"/>
      <point x="184" y="733" type="curve"/>
      <point x="181" y="772"/>
      <point x="178" y="812"/>
      <point x="175" y="851" type="curve" smooth="yes"/>
      <point x="174" y="864"/>
      <point x="153" y="863"/>
      <point x="152" y="850" type="curve" smooth="yes"/>
      <point x="150" y="813"/>
      <point x="148" y="776"/>
      <point x="147" y="738" type="curve"/>
      <point x="106" y="740"/>
      <point x="69" y="725"/>
      <point x="53" y="685" type="curve" smooth="yes"/>
      <point x="21" y="603"/>
      <point x="61" y="509"/>
      <point x="95" y="435" type="curve" smooth="yes"/>
      <point x="109" y="405"/>
      <point x="126" y="378"/>
      <point x="143" y="350" type="curve"/>
      <point x="142" y="251"/>
      <point x="139" y="151"/>
      <point x="129" y="52" type="curve"/>
      <point x="104" y="65"/>
      <point x="84" y="93"/>
      <point x="81" y="138" type="curve" smooth="yes"/>
      <point x="79" y="162"/>
      <point x="41" y="160"/>
      <point x="40" y="137" type="curve" smooth="yes"/>
      <point x="37" y="69"/>
      <point x="76" y="24"/>
      <point x="123" y="5" type="curve"/>
      <point x="117" y="-40"/>
      <point x="110" y="-86"/>
      <point x="100" y="-132" type="curve" smooth="yes"/>
      <point x="94" y="-160"/>
      <point x="139" y="-164"/>
      <point x="145" y="-136" type="curve" smooth="yes"/>
      <point x="154" y="-93"/>
      <point x="161" y="-49"/>
      <point x="167" y="-4" type="curve"/>
      <point x="225" y="-7"/>
      <point x="282" y="26"/>
      <point x="287" y="106" type="curve" smooth="yes"/>
      <point x="292" y="201"/>
      <point x="245" y="284"/>
      <point x="195" y="362" type="curve"/>
      <point x="196" y="467"/>
      <point x="193" y="572"/>
    </contour>
    <contour>
      <point x="106" y="533" type="curve" smooth="yes"/>
      <point x="96" y="559"/>
      <point x="91" y="585"/>
      <point x="87" y="611" type="curve" smooth="yes"/>
      <point x="78" y="675"/>
      <point x="109" y="695"/>
      <point x="146" y="690" type="curve"/>
      <point x="144" y="608"/>
      <point x="144" y="526"/>
      <point x="144" y="445" type="curve"/>
      <point x="129" y="473"/>
      <point x="117" y="503"/>
    </contour>
    <contour>
      <point x="173" y="43" type="curve"/>
      <point x="183" y="119"/>
      <point x="189" y="196"/>
      <point x="192" y="272" type="curve"/>
      <point x="212" y="236"/>
      <point x="229" y="198"/>
      <point x="239" y="157" type="curve" smooth="yes"/>
      <point x="256" y="89"/>
      <point x="217" y="48"/>
    </contour>
  </outline>
</glyph>
<glyph name="percent" format="1">
  <advance width="450"/>
  <unicode hex="0025"/>
  <outline>
    <contour>
      <point x="107" y="705" type="line" smooth="yes"/>
      <point x="48" y="722"/>
      <point x="22" y="638"/>
      <point x="20" y="595" type="curve" smooth="yes"/>
      <point x="18" y="528"/>
      <point x="48" y="453"/>
      <point x="100" y="411" type="curve" smooth="yes"/>
      <point x="108" y="405"/>
      <point x="121" y="406"/>
      <point x="128" y="413" type="curve" smooth="yes"/>
      <point x="178" y="459"/>
      <point x="203" y="530"/>
      <point x="203" y="598" type="curve" smooth="yes"/>
      <point x="204" y="656"/>
      <point x="169" y="737"/>
      <point x="100" y="730" type="curve" smooth="yes"/>
      <point x="83" y="728"/>
      <point x="82" y="707"/>
      <point x="93" y="698" type="curve" smooth="yes"/>
      <point x="112" y="682"/>
      <point x="133" y="675"/>
      <point x="146" y="652" type="curve" smooth="yes"/>
      <point x="158" y="630"/>
      <point x="158" y="603"/>
      <point x="156" y="579" type="curve" smooth="yes"/>
      <point x="154" y="532"/>
      <point x="133" y="480"/>
      <point x="98" y="448" type="curve"/>
      <point x="108" y="448"/>
      <point x="117" y="449"/>
      <point x="126" y="449" type="curve"/>
      <point x="89" y="479"/>
      <point x="72" y="527"/>
      <point x="66" y="573" type="curve" smooth="yes"/>
      <point x="62" y="595"/>
      <point x="65" y="617"/>
      <point x="73" y="638" type="curve" smooth="yes"/>
      <point x="80" y="660"/>
      <point x="102" y="667"/>
      <point x="114" y="685" type="curve" smooth="yes"/>
      <point x="118" y="692"/>
      <point x="116" y="702"/>
      <point x="107" y="705" type="curve" smooth="yes"/>
    </contour>
    <contour>
      <point x="344" y="801" type="line" smooth="yes"/>
      <point x="277" y="686"/>
      <point x="258" y="556"/>
      <point x="217" y="431" type="curve" smooth="yes"/>
      <point x="168" y="279"/>
      <point x="92" y="137"/>
      <point x="43" y="-16" type="curve" smooth="yes"/>
      <point x="35" y="-42"/>
      <point x="74" y="-56"/>
      <point x="82" y="-31" type="curve" smooth="yes"/>
      <point x="125" y="103"/>
      <point x="183" y="230"/>
      <point x="235" y="361" type="curve" smooth="yes"/>
      <point x="290" y="500"/>
      <point x="312" y="649"/>
      <point x="368" y="789" type="curve" smooth="yes"/>
      <point x="374" y="803"/>
      <point x="352" y="815"/>
      <point x="344" y="801" type="curve" smooth="yes"/>
    </contour>
    <contour>
      <point x="300" y="270" type="line" smooth="yes"/>
      <point x="190" y="215"/>
      <point x="259" y="47"/>
      <point x="344" y="0" type="curve" smooth="yes"/>
      <point x="354" y="-6"/>
      <point x="364" y="-4"/>
      <point x="372" y="5" type="curve" smooth="yes"/>
      <point x="421" y="62"/>
      <point x="455" y="135"/>
      <point x="423" y="208" type="curve" smooth="yes"/>
      <point x="394" y="275"/>
      <point x="300" y="297"/>
      <point x="237" y="274" type="curve" smooth="yes"/>
      <point x="220" y="268"/>
      <point x="228" y="245"/>
      <point x="243" y="242" type="curve" smooth="yes"/>
      <point x="295" y="234"/>
      <point x="345" y="237"/>
      <point x="381" y="192" type="curve" smooth="yes"/>
      <point x="423" y="141"/>
      <point x="373" y="67"/>
      <point x="339" y="28" type="curve"/>
      <point x="348" y="30"/>
      <point x="357" y="32"/>
      <point x="367" y="33" type="curve"/>
      <point x="310" y="66"/>
      <point x="238" y="199"/>
      <point x="312" y="250" type="curve" smooth="yes"/>
      <point x="324" y="257"/>
      <point x="311" y="276"/>
      <point x="300" y="270" type="curve" smooth="yes"/>
    </contour>
  </outline>
</glyph>
<glyph name="ampersand" format="1">
  <advance width="634"/>
  <unicode hex="0026"/>
  <outline>
    <contour>
      <point x="561" y="618" type="curve" smooth="yes"/>
      <point x="435" y="686"/>
      <point x="280" y="541"/>
      <point x="336" y="413" type="curve" smooth="yes"/>
      <point x="339" y="408"/>
      <point x="341" y="403"/>
      <point x="344" y="398" type="curve"/>
      <point x="285" y="401"/>
      <point x="210" y="386"/>
      <point x="173" y="338" type="curve" smooth="yes"/>
      <point x="105" y="249"/>
      <point x="161" y="142"/>
      <point x="269" y="148" type="curve" smooth="yes"/>
      <point x="370" y="153"/>
      <point x="417" y="250"/>
      <point x="329" y="313" type="curve" smooth="yes"/>
      <point x="303" y="332"/>
      <point x="274" y="290"/>
      <point x="301" y="271" type="curve" smooth="yes"/>
      <point x="356" y="232"/>
      <point x="310" y="202"/>
      <point x="261" y="196" type="curve" smooth="yes"/>
      <point x="171" y="186"/>
      <point x="178" y="299"/>
      <point x="239" y="334" type="curve" smooth="yes"/>
      <point x="280" y="357"/>
      <point x="331" y="362"/>
      <point x="377" y="351" type="curve"/>
      <point x="391" y="338"/>
      <point x="406" y="335"/>
      <point x="422" y="332" type="curve"/>
      <point x="445" y="319"/>
      <point x="464" y="302"/>
      <point x="477" y="280" type="curve" smooth="yes"/>
      <point x="547" y="160"/>
      <point x="399" y="57"/>
      <point x="301" y="34" type="curve" smooth="yes"/>
      <point x="296" y="33"/>
      <point x="293" y="30"/>
      <point x="290" y="27" type="curve"/>
      <point x="43" y="34"/>
      <point x="-38" y="438"/>
      <point x="257" y="499" type="curve" smooth="yes"/>
      <point x="277" y="503"/>
      <point x="284" y="530"/>
      <point x="267" y="542" type="curve" smooth="yes"/>
      <point x="130" y="635"/>
      <point x="323" y="773"/>
      <point x="370" y="662" type="curve"/>
      <point x="367" y="655"/>
      <point x="364" y="649"/>
      <point x="361" y="643" type="curve" smooth="yes"/>
      <point x="355" y="634"/>
      <point x="346" y="633"/>
      <point x="337" y="634" type="curve"/>
      <point x="338" y="647"/>
      <point x="338" y="659"/>
      <point x="336" y="672" type="curve" smooth="yes"/>
      <point x="333" y="695"/>
      <point x="298" y="692"/>
      <point x="295" y="670" type="curve" smooth="yes"/>
      <point x="293" y="652"/>
      <point x="294" y="632"/>
      <point x="295" y="613" type="curve" smooth="yes"/>
      <point x="296" y="605"/>
      <point x="305" y="597"/>
      <point x="314" y="596" type="curve" smooth="yes"/>
      <point x="337" y="595"/>
      <point x="367" y="595"/>
      <point x="383" y="616" type="curve" smooth="yes"/>
      <point x="391" y="626"/>
      <point x="393" y="637"/>
      <point x="395" y="648" type="curve"/>
      <point x="398" y="650"/>
      <point x="401" y="653"/>
      <point x="401" y="658" type="curve" smooth="yes"/>
      <point x="405" y="844"/>
      <point x="57" y="685"/>
      <point x="204" y="533" type="curve"/>
      <point x="-99" y="427"/>
      <point x="15" y="-46"/>
      <point x="298" y="-2" type="curve"/>
      <point x="301" y="-3"/>
      <point x="304" y="-4"/>
      <point x="308" y="-4" type="curve" smooth="yes"/>
      <point x="444" y="11"/>
      <point x="595" y="180"/>
      <point x="499" y="314" type="curve" smooth="yes"/>
      <point x="496" y="319"/>
      <point x="492" y="323"/>
      <point x="489" y="327" type="curve"/>
      <point x="485" y="336" type="line"/>
      <point x="485" y="336"/>
      <point x="491" y="345"/>
      <point x="482" y="347" type="curve" smooth="yes"/>
      <point x="476" y="348"/>
      <point x="472" y="349"/>
      <point x="469" y="350" type="curve"/>
      <point x="465" y="353"/>
      <point x="461" y="356"/>
      <point x="458" y="359" type="curve"/>
      <point x="463" y="361"/>
      <point x="469" y="363"/>
      <point x="446" y="368" type="curve" smooth="yes"/>
      <point x="445" y="368"/>
      <point x="445" y="368"/>
      <point x="445" y="369" type="curve"/>
      <point x="430" y="378"/>
      <point x="414" y="386"/>
      <point x="395" y="391" type="curve"/>
      <point x="329" y="442"/>
      <point x="360" y="552"/>
      <point x="453" y="584" type="curve" smooth="yes"/>
      <point x="496" y="598"/>
      <point x="557" y="593"/>
      <point x="575" y="543" type="curve" smooth="yes"/>
      <point x="583" y="520"/>
      <point x="568" y="506"/>
      <point x="547" y="498" type="curve" smooth="yes"/>
      <point x="508" y="484"/>
      <point x="450" y="481"/>
      <point x="493" y="533" type="curve" smooth="yes"/>
      <point x="511" y="554"/>
      <point x="479" y="581"/>
      <point x="460" y="561" type="curve" smooth="yes"/>
      <point x="393" y="488"/>
      <point x="459" y="431"/>
      <point x="541" y="452" type="curve" smooth="yes"/>
      <point x="630" y="474"/>
      <point x="647" y="571"/>
    </contour>
  </outline>
</glyph>
<glyph name="quotesingle" format="1">
  <advance width="142"/>
  <unicode hex="0027"/>
  <outline>
    <contour>
      <point x="85" y="834" type="curve" smooth="yes"/>
      <point x="50" y="807"/>
      <point x="25" y="775"/>
      <point x="19" y="730" type="curve" smooth="yes"/>
      <point x="13" y="687"/>
      <point x="40" y="651"/>
      <point x="79" y="636" type="curve" smooth="yes"/>
      <point x="94" y="630"/>
      <point x="106" y="647"/>
      <point x="101" y="660" type="curve" smooth="yes"/>
      <point x="98" y="668"/>
      <point x="97" y="676"/>
      <point x="96" y="684" type="curve"/>
      <point x="104" y="689"/>
      <point x="108" y="698"/>
      <point x="104" y="709" type="curve" smooth="yes"/>
      <point x="102" y="715"/>
      <point x="100" y="721"/>
      <point x="99" y="726" type="curve" smooth="yes"/>
      <point x="96" y="741"/>
      <point x="79" y="746"/>
      <point x="68" y="740" type="curve"/>
      <point x="74" y="764"/>
      <point x="89" y="787"/>
      <point x="109" y="805" type="curve" smooth="yes"/>
      <point x="126" y="822"/>
      <point x="104" y="848"/>
    </contour>
  </outline>
</glyph>
<glyph name="parenleft" format="1">
  <advance width="296"/>
  <unicode hex="0028"/>
  <outline>
    <contour>
      <point x="219" y="734" type="line" smooth="yes"/>
      <point x="20" y="593"/>
      <point x="38" y="14"/>
      <point x="253" y="-109" type="curve" smooth="yes"/>
      <point x="282" y="-126"/>
      <point x="260" y="-173"/>
      <point x="231" y="-156" type="curve" smooth="yes"/>
      <point x="-6" y="-20"/>
      <point x="-58" y="628"/>
      <point x="192" y="772" type="curve" smooth="yes"/>
      <point x="218" y="787"/>
      <point x="244" y="752"/>
      <point x="219" y="734" type="curve" smooth="yes"/>
    </contour>
  </outline>
</glyph>
<glyph name="parenright" format="1">
  <advance width="280"/>
  <unicode hex="0029"/>
  <outline>
    <contour>
      <point x="67" y="734" type="line" smooth="yes"/>
      <point x="265" y="593"/>
      <point x="248" y="14"/>
      <point x="33" y="-109" type="curve" smooth="yes"/>
      <point x="4" y="-126"/>
      <point x="26" y="-173"/>
      <point x="55" y="-156" type="curve" smooth="yes"/>
      <point x="292" y="-20"/>
      <point x="344" y="628"/>
      <point x="94" y="772" type="curve" smooth="yes"/>
      <point x="68" y="787"/>
      <point x="42" y="752"/>
      <point x="67" y="734" type="curve" smooth="yes"/>
    </contour>
  </outline>
</glyph>
<glyph name="asterisk" format="1">
  <advance width="379"/>
  <unicode hex="002A"/>
  <outline>
    <contour>
      <point x="344" y="634" type="curve" smooth="yes"/>
      <point x="306" y="647"/>
      <point x="246" y="613"/>
      <point x="208" y="604" type="curve" smooth="yes"/>
      <point x="205" y="604"/>
      <point x="203" y="603"/>
      <point x="200" y="603" type="curve"/>
      <point x="227" y="650"/>
      <point x="253" y="699"/>
      <point x="281" y="743" type="curve" smooth="yes"/>
      <point x="290" y="756"/>
      <point x="272" y="774"/>
      <point x="260" y="762" type="curve" smooth="yes"/>
      <point x="236" y="738"/>
      <point x="215" y="712"/>
      <point x="194" y="685" type="curve"/>
      <point x="193" y="702"/>
      <point x="193" y="719"/>
      <point x="192" y="736" type="curve" smooth="yes"/>
      <point x="192" y="758"/>
      <point x="158" y="762"/>
      <point x="158" y="739" type="curve" smooth="yes"/>
      <point x="157" y="704"/>
      <point x="156" y="669"/>
      <point x="157" y="634" type="curve"/>
      <point x="156" y="634"/>
      <point x="156" y="633"/>
      <point x="155" y="632" type="curve"/>
      <point x="127" y="654"/>
      <point x="100" y="677"/>
      <point x="77" y="705" type="curve" smooth="yes"/>
      <point x="67" y="717"/>
      <point x="51" y="704"/>
      <point x="55" y="692" type="curve" smooth="yes"/>
      <point x="67" y="654"/>
      <point x="91" y="621"/>
      <point x="120" y="593" type="curve"/>
      <point x="94" y="593"/>
      <point x="70" y="596"/>
      <point x="46" y="605" type="curve" smooth="yes"/>
      <point x="33" y="610"/>
      <point x="16" y="595"/>
      <point x="24" y="582" type="curve" smooth="yes"/>
      <point x="40" y="556"/>
      <point x="64" y="545"/>
      <point x="92" y="541" type="curve"/>
      <point x="77" y="521"/>
      <point x="63" y="501"/>
      <point x="47" y="481" type="curve" smooth="yes"/>
      <point x="30" y="460"/>
      <point x="62" y="432"/>
      <point x="82" y="449" type="curve" smooth="yes"/>
      <point x="113" y="476"/>
      <point x="139" y="508"/>
      <point x="162" y="542" type="curve"/>
      <point x="163" y="542"/>
      <point x="163" y="542"/>
      <point x="163" y="543" type="curve"/>
      <point x="167" y="511"/>
      <point x="172" y="481"/>
      <point x="181" y="450" type="curve" smooth="yes"/>
      <point x="188" y="425"/>
      <point x="229" y="431"/>
      <point x="223" y="458" type="curve" smooth="yes"/>
      <point x="218" y="479"/>
      <point x="214" y="499"/>
      <point x="210" y="520" type="curve"/>
      <point x="234" y="503"/>
      <point x="258" y="487"/>
      <point x="280" y="472" type="curve" smooth="yes"/>
      <point x="310" y="450"/>
      <point x="339" y="494"/>
      <point x="312" y="517" type="curve" smooth="yes"/>
      <point x="296" y="532"/>
      <point x="278" y="545"/>
      <point x="260" y="558" type="curve"/>
      <point x="300" y="567"/>
      <point x="340" y="582"/>
      <point x="353" y="605" type="curve" smooth="yes"/>
      <point x="358" y="616"/>
      <point x="356" y="630"/>
    </contour>
  </outline>
</glyph>
<glyph name="zero" format="1">
  <advance width="361"/>
  <unicode hex="0030"/>
  <outline>
    <contour>
      <point x="323" y="425" type="curve" smooth="yes"/>
      <point x="315" y="549"/>
      <point x="293" y="799"/>
      <point x="114" y="723" type="curve" smooth="yes"/>
      <point x="100" y="718"/>
      <point x="105" y="701"/>
      <point x="115" y="697" type="curve"/>
      <point x="9" y="533"/>
      <point x="-53" y="-101"/>
      <point x="220" y="5" type="curve" smooth="yes"/>
      <point x="355" y="57"/>
      <point x="330" y="319"/>
    </contour>
    <contour>
      <point x="168" y="29" type="curve" smooth="yes"/>
      <point x="-32" y="78"/>
      <point x="75" y="563"/>
      <point x="146" y="697" type="curve"/>
      <point x="369" y="680"/>
      <point x="311" y="-6"/>
    </contour>
  </outline>
</glyph>
<glyph name="one" format="1">
  <advance width="135"/>
  <unicode hex="0031"/>
  <outline>
    <contour>
      <point x="87" y="732" type="line" smooth="yes"/>
      <point x="19" y="671"/>
      <point x="37" y="527"/>
      <point x="39" y="447" type="curve" smooth="yes"/>
      <point x="41" y="303"/>
      <point x="64" y="157"/>
      <point x="44" y="14" type="curve" smooth="yes"/>
      <point x="41" y="-11"/>
      <point x="80" y="-15"/>
      <point x="83" y="10" type="curve" smooth="yes"/>
      <point x="115" y="248"/>
      <point x="63" y="484"/>
      <point x="105" y="723" type="curve" smooth="yes"/>
      <point x="106" y="732"/>
      <point x="94" y="738"/>
      <point x="87" y="732" type="curve" smooth="yes"/>
    </contour>
  </outline>
</glyph>
<glyph name="two" format="1">
  <advance width="331"/>
  <unicode hex="0032"/>
  <outline>
    <contour>
      <point x="120" y="526" type="line" smooth="yes"/>
      <point x="92" y="584"/>
      <point x="86" y="645"/>
      <point x="150" y="680" type="curve" smooth="yes"/>
      <point x="273" y="747"/>
      <point x="263" y="510"/>
      <point x="251" y="460" type="curve" smooth="yes"/>
      <point x="214" y="308"/>
      <point x="98" y="183"/>
      <point x="35" y="41" type="curve" smooth="yes"/>
      <point x="30" y="30"/>
      <point x="37" y="18"/>
      <point x="47" y="14" type="curve" smooth="yes"/>
      <point x="114" y="-12"/>
      <point x="180" y="-8"/>
      <point x="251" y="-7" type="curve" smooth="yes"/>
      <point x="278" y="-7"/>
      <point x="282" y="36"/>
      <point x="255" y="35" type="curve" smooth="yes"/>
      <point x="221" y="35"/>
      <point x="186" y="34"/>
      <point x="152" y="34" type="curve" smooth="yes"/>
      <point x="60" y="34"/>
      <point x="99" y="81"/>
      <point x="131" y="137" type="curve" smooth="yes"/>
      <point x="172" y="209"/>
      <point x="216" y="279"/>
      <point x="253" y="353" type="curve" smooth="yes"/>
      <point x="303" y="455"/>
      <point x="337" y="600"/>
      <point x="255" y="694" type="curve" smooth="yes"/>
      <point x="151" y="815"/>
      <point x="9" y="622"/>
      <point x="92" y="508" type="curve" smooth="yes"/>
      <point x="103" y="493"/>
      <point x="128" y="509"/>
      <point x="120" y="526" type="curve" smooth="yes"/>
    </contour>
  </outline>
</glyph>
<glyph name="three" format="1">
  <advance width="331"/>
  <unicode hex="0033"/>
  <outline>
    <contour>
      <point x="176" y="372" type="curve"/>
      <point x="275" y="438"/>
      <point x="315" y="599"/>
      <point x="237" y="694" type="curve" smooth="yes"/>
      <point x="136" y="817"/>
      <point x="-75" y="654"/>
      <point x="71" y="553" type="curve" smooth="yes"/>
      <point x="88" y="542"/>
      <point x="106" y="567"/>
      <point x="90" y="579" type="curve" smooth="yes"/>
      <point x="27" y="627"/>
      <point x="71" y="695"/>
      <point x="139" y="695" type="curve" smooth="yes"/>
      <point x="194" y="696"/>
      <point x="225" y="651"/>
      <point x="234" y="602" type="curve" smooth="yes"/>
      <point x="249" y="520"/>
      <point x="202" y="411"/>
      <point x="116" y="390" type="curve" smooth="yes"/>
      <point x="100" y="386"/>
      <point x="97" y="368"/>
      <point x="103" y="357" type="curve"/>
      <point x="98" y="345"/>
      <point x="107" y="329"/>
      <point x="123" y="331" type="curve" smooth="yes"/>
      <point x="222" y="346"/>
      <point x="254" y="205"/>
      <point x="246" y="130" type="curve" smooth="yes"/>
      <point x="240" y="78"/>
      <point x="192" y="24"/>
      <point x="138" y="43" type="curve" smooth="yes"/>
      <point x="82" y="62"/>
      <point x="89" y="121"/>
      <point x="78" y="165" type="curve" smooth="yes"/>
      <point x="74" y="183"/>
      <point x="52" y="184"/>
      <point x="44" y="168" type="curve" smooth="yes"/>
      <point x="17" y="113"/>
      <point x="62" y="31"/>
      <point x="114" y="7" type="curve" smooth="yes"/>
      <point x="187" y="-27"/>
      <point x="246" y="23"/>
      <point x="278" y="86" type="curve" smooth="yes"/>
      <point x="316" y="161"/>
      <point x="269" y="346"/>
    </contour>
  </outline>
</glyph>
<glyph name="four" format="1">
  <advance width="377"/>
  <unicode hex="0034"/>
  <outline>
    <contour>
      <point x="344" y="273" type="curve" smooth="yes"/>
      <point x="317" y="280"/>
      <point x="291" y="283"/>
      <point x="265" y="283" type="curve"/>
      <point x="274" y="418"/>
      <point x="283" y="552"/>
      <point x="275" y="686" type="curve"/>
      <point x="280" y="693"/>
      <point x="284" y="701"/>
      <point x="289" y="708" type="curve" smooth="yes"/>
      <point x="301" y="727"/>
      <point x="275" y="744"/>
      <point x="260" y="728" type="curve" smooth="yes"/>
      <point x="147" y="601"/>
      <point x="102" y="411"/>
      <point x="28" y="261" type="curve" smooth="yes"/>
      <point x="22" y="249"/>
      <point x="33" y="234"/>
      <point x="46" y="233" type="curve" smooth="yes"/>
      <point x="104" y="230"/>
      <point x="163" y="240"/>
      <point x="222" y="243" type="curve"/>
      <point x="218" y="168"/>
      <point x="214" y="93"/>
      <point x="212" y="18" type="curve" smooth="yes"/>
      <point x="211" y="-9"/>
      <point x="255" y="-13"/>
      <point x="254" y="14" type="curve" smooth="yes"/>
      <point x="253" y="91"/>
      <point x="257" y="167"/>
      <point x="262" y="243" type="curve"/>
      <point x="285" y="242"/>
      <point x="307" y="240"/>
      <point x="329" y="234" type="curve" smooth="yes"/>
      <point x="355" y="228"/>
      <point x="370" y="267"/>
    </contour>
    <contour>
      <point x="79" y="274" type="curve"/>
      <point x="137" y="396"/>
      <point x="184" y="521"/>
      <point x="249" y="639" type="curve"/>
      <point x="239" y="521"/>
      <point x="230" y="402"/>
      <point x="224" y="283" type="curve"/>
      <point x="176" y="280"/>
      <point x="128" y="274"/>
    </contour>
  </outline>
</glyph>
<glyph name="five" format="1">
  <advance width="324"/>
  <unicode hex="0035"/>
  <outline>
    <contour>
      <point x="266" y="386" type="curve" smooth="yes"/>
      <point x="229" y="458"/>
      <point x="156" y="488"/>
      <point x="85" y="465" type="curve"/>
      <point x="84" y="540"/>
      <point x="92" y="618"/>
      <point x="74" y="691" type="curve"/>
      <point x="130" y="689"/>
      <point x="187" y="689"/>
      <point x="244" y="688" type="curve" smooth="yes"/>
      <point x="273" y="688"/>
      <point x="277" y="734"/>
      <point x="248" y="733" type="curve" smooth="yes"/>
      <point x="183" y="732"/>
      <point x="119" y="732"/>
      <point x="54" y="729" type="curve" smooth="yes"/>
      <point x="36" y="729"/>
      <point x="35" y="703"/>
      <point x="47" y="695" type="curve"/>
      <point x="53" y="613"/>
      <point x="56" y="532"/>
      <point x="51" y="450" type="curve"/>
      <point x="50" y="449"/>
      <point x="49" y="449"/>
      <point x="48" y="448" type="curve" smooth="yes"/>
      <point x="28" y="437"/>
      <point x="35" y="410"/>
      <point x="53" y="406" type="curve"/>
      <point x="62" y="395"/>
      <point x="83" y="398"/>
      <point x="86" y="415" type="curve"/>
      <point x="148" y="437"/>
      <point x="197" y="423"/>
      <point x="231" y="358" type="curve" smooth="yes"/>
      <point x="263" y="298"/>
      <point x="271" y="222"/>
      <point x="249" y="158" type="curve" smooth="yes"/>
      <point x="231" y="104"/>
      <point x="188" y="49"/>
      <point x="131" y="35" type="curve" smooth="yes"/>
      <point x="55" y="17"/>
      <point x="58" y="118"/>
      <point x="62" y="165" type="curve" smooth="yes"/>
      <point x="63" y="181"/>
      <point x="37" y="188"/>
      <point x="33" y="172" type="curve" smooth="yes"/>
      <point x="19" y="111"/>
      <point x="19" y="13"/>
      <point x="97" y="-2" type="curve" smooth="yes"/>
      <point x="172" y="-17"/>
      <point x="241" y="50"/>
      <point x="271" y="112" type="curve" smooth="yes"/>
      <point x="312" y="198"/>
      <point x="309" y="301"/>
    </contour>
  </outline>
</glyph>
<glyph name="seven" format="1">
  <advance width="379"/>
  <unicode hex="0037"/>
  <outline>
    <contour>
      <point x="321" y="740" type="curve" smooth="yes"/>
      <point x="230" y="724"/>
      <point x="135" y="740"/>
      <point x="46" y="716" type="curve" smooth="yes"/>
      <point x="21" y="709"/>
      <point x="27" y="673"/>
      <point x="53" y="676" type="curve" smooth="yes"/>
      <point x="136" y="686"/>
      <point x="219" y="680"/>
      <point x="301" y="690" type="curve"/>
      <point x="287" y="452"/>
      <point x="102" y="262"/>
      <point x="101" y="19" type="curve" smooth="yes"/>
      <point x="101" y="-10"/>
      <point x="146" y="-15"/>
      <point x="146" y="15" type="curve" smooth="yes"/>
      <point x="147" y="268"/>
      <point x="345" y="462"/>
      <point x="348" y="715" type="curve" smooth="yes"/>
      <point x="348" y="730"/>
      <point x="337" y="742"/>
    </contour>
  </outline>
</glyph>
<glyph name="eight" format="1">
  <advance width="320"/>
  <unicode hex="0038"/>
  <outline>
    <contour>
      <point x="177" y="390" type="curve"/>
      <point x="235" y="487"/>
      <point x="313" y="621"/>
      <point x="236" y="705" type="curve" smooth="yes"/>
      <point x="109" y="842"/>
      <point x="-71" y="544"/>
      <point x="71" y="412" type="curve"/>
      <point x="71" y="404"/>
      <point x="75" y="396"/>
      <point x="85" y="393" type="curve" smooth="yes"/>
      <point x="98" y="388"/>
      <point x="111" y="382"/>
      <point x="123" y="375" type="curve"/>
      <point x="64" y="277"/>
      <point x="5" y="170"/>
      <point x="44" y="67" type="curve" smooth="yes"/>
      <point x="95" y="-66"/>
      <point x="241" y="4"/>
      <point x="282" y="99" type="curve" smooth="yes"/>
      <point x="323" y="192"/>
      <point x="260" y="321"/>
    </contour>
    <contour>
      <point x="103" y="432" type="curve"/>
      <point x="35" y="492"/>
      <point x="39" y="586"/>
      <point x="91" y="661" type="curve" smooth="yes"/>
      <point x="129" y="716"/>
      <point x="231" y="713"/>
      <point x="233" y="633" type="curve" smooth="yes"/>
      <point x="234" y="581"/>
      <point x="208" y="531"/>
      <point x="186" y="486" type="curve" smooth="yes"/>
      <point x="175" y="462"/>
      <point x="161" y="438"/>
      <point x="146" y="413" type="curve"/>
      <point x="132" y="421"/>
      <point x="117" y="428"/>
    </contour>
    <contour>
      <point x="206" y="59" type="curve"/>
      <point x="125" y="27"/>
      <point x="79" y="47"/>
      <point x="68" y="117" type="curve"/>
      <point x="65" y="144"/>
      <point x="69" y="170"/>
      <point x="78" y="195" type="curve"/>
      <point x="92" y="246"/>
      <point x="121" y="294"/>
      <point x="147" y="339" type="curve" smooth="yes"/>
      <point x="149" y="343"/>
      <point x="151" y="347"/>
      <point x="154" y="352" type="curve"/>
      <point x="235" y="279"/>
      <point x="283" y="142"/>
    </contour>
  </outline>
</glyph>
<glyph name="semicolon" format="1">
  <advance width="166"/>
  <unicode hex="003B"/>
  <outline>
    <contour>
      <point x="119" y="512" type="curve" smooth="yes"/>
      <point x="105" y="518"/>
      <point x="94" y="509"/>
      <point x="84" y="500" type="curve"/>
      <point x="79" y="504"/>
      <point x="73" y="505"/>
      <point x="67" y="505" type="curve" smooth="yes"/>
      <point x="54" y="505"/>
      <point x="42" y="498"/>
      <point x="42" y="480" type="curve" smooth="yes"/>
      <point x="42" y="480"/>
      <point x="42" y="480"/>
      <point x="42" y="480" type="curve"/>
      <point x="38" y="476"/>
      <point x="36" y="472"/>
      <point x="34" y="468" type="curve" smooth="yes"/>
      <point x="21" y="442"/>
      <point x="37" y="421"/>
      <point x="60" y="410" type="curve" smooth="yes"/>
      <point x="68" y="406"/>
      <point x="82" y="408"/>
      <point x="88" y="415" type="curve" smooth="yes"/>
      <point x="95" y="421"/>
      <point x="104" y="429"/>
      <point x="111" y="438" type="curve"/>
      <point x="112" y="438"/>
      <point x="112" y="438"/>
      <point x="112" y="438" type="curve" smooth="yes"/>
      <point x="123" y="439"/>
      <point x="130" y="449"/>
      <point x="132" y="459" type="curve" smooth="yes"/>
      <point x="135" y="477"/>
      <point x="141" y="504"/>
    </contour>
    <contour>
      <point x="72" y="235" type="curve"/>
      <point x="72" y="235"/>
      <point x="72" y="235"/>
      <point x="72" y="235" type="curve" smooth="yes"/>
      <point x="58" y="252"/>
      <point x="36" y="235"/>
      <point x="40" y="217" type="curve"/>
      <point x="18" y="199"/>
      <point x="43" y="164"/>
      <point x="67" y="174" type="curve"/>
      <point x="75" y="132"/>
      <point x="57" y="93"/>
      <point x="52" y="49" type="curve" smooth="yes"/>
      <point x="50" y="34"/>
      <point x="70" y="22"/>
      <point x="82" y="33" type="curve" smooth="yes"/>
      <point x="128" y="81"/>
      <point x="132" y="163"/>
      <point x="106" y="222" type="curve" smooth="yes"/>
      <point x="101" y="235"/>
      <point x="84" y="240"/>
    </contour>
  </outline>
</glyph>
<glyph name="less" format="1">
  <advance width="430"/>
  <unicode hex="003C"/>
  <outline>
    <contour>
      <point x="390" y="464" type="curve" smooth="yes"/>
      <point x="275" y="466"/>
      <point x="165" y="402"/>
      <point x="53" y="379" type="curve" smooth="yes"/>
      <point x="34" y="375"/>
      <point x="30" y="352"/>
      <point x="45" y="341" type="curve" smooth="yes"/>
      <point x="86" y="307"/>
      <point x="132" y="280"/>
      <point x="180" y="256" type="curve" smooth="yes"/>
      <point x="230" y="230"/>
      <point x="299" y="190"/>
      <point x="357" y="192" type="curve" smooth="yes"/>
      <point x="372" y="193"/>
      <point x="381" y="210"/>
      <point x="367" y="220" type="curve" smooth="yes"/>
      <point x="329" y="248"/>
      <point x="276" y="259"/>
      <point x="233" y="278" type="curve" smooth="yes"/>
      <point x="189" y="297"/>
      <point x="146" y="320"/>
      <point x="106" y="348" type="curve"/>
      <point x="202" y="372"/>
      <point x="296" y="408"/>
      <point x="392" y="433" type="curve" smooth="yes"/>
      <point x="408" y="438"/>
      <point x="409" y="464"/>
    </contour>
  </outline>
</glyph>
<glyph name="equal" format="1">
  <advance width="389"/>
  <unicode hex="003D"/>
  <outline>
    <contour>
      <point x="346" y="420" type="curve" smooth="yes"/>
      <point x="371" y="421"/>
      <point x="375" y="459"/>
      <point x="350" y="459" type="curve" smooth="yes"/>
      <point x="243" y="459"/>
      <point x="130" y="450"/>
      <point x="25" y="431" type="curve" smooth="yes"/>
      <point x="11" y="428"/>
      <point x="13" y="409"/>
      <point x="26" y="407" type="curve" smooth="yes"/>
      <point x="131" y="391"/>
      <point x="241" y="418"/>
    </contour>
    <contour>
      <point x="340" y="287" type="curve" smooth="yes"/>
      <point x="252" y="293"/>
      <point x="147" y="310"/>
      <point x="61" y="288" type="curve" smooth="yes"/>
      <point x="49" y="285"/>
      <point x="40" y="274"/>
      <point x="43" y="261" type="curve" smooth="yes"/>
      <point x="41" y="270"/>
      <point x="40" y="266"/>
      <point x="38" y="257" type="curve" smooth="yes"/>
      <point x="36" y="246"/>
      <point x="48" y="239"/>
      <point x="55" y="244" type="curve"/>
      <point x="59" y="242"/>
      <point x="64" y="241"/>
      <point x="69" y="242" type="curve" smooth="yes"/>
      <point x="160" y="257"/>
      <point x="251" y="236"/>
      <point x="342" y="241" type="curve" smooth="yes"/>
      <point x="369" y="242"/>
      <point x="366" y="285"/>
    </contour>
  </outline>
</glyph>
<glyph name="greater" format="1">
  <advance width="423"/>
  <unicode hex="003E"/>
  <outline>
    <contour>
      <point x="43" y="464" type="curve" smooth="yes"/>
      <point x="159" y="466"/>
      <point x="269" y="402"/>
      <point x="381" y="379" type="curve" smooth="yes"/>
      <point x="400" y="375"/>
      <point x="404" y="352"/>
      <point x="389" y="341" type="curve" smooth="yes"/>
      <point x="348" y="307"/>
      <point x="302" y="280"/>
      <point x="254" y="256" type="curve" smooth="yes"/>
      <point x="204" y="230"/>
      <point x="135" y="190"/>
      <point x="77" y="192" type="curve" smooth="yes"/>
      <point x="62" y="193"/>
      <point x="53" y="210"/>
      <point x="66" y="220" type="curve" smooth="yes"/>
      <point x="104" y="248"/>
      <point x="158" y="259"/>
      <point x="201" y="278" type="curve" smooth="yes"/>
      <point x="245" y="297"/>
      <point x="288" y="320"/>
      <point x="327" y="348" type="curve"/>
      <point x="231" y="372"/>
      <point x="138" y="408"/>
      <point x="42" y="433" type="curve" smooth="yes"/>
      <point x="26" y="438"/>
      <point x="25" y="464"/>
    </contour>
  </outline>
</glyph>
<glyph name="question" format="1">
  <advance width="280"/>
  <unicode hex="003F"/>
  <outline>
    <contour>
      <point x="217" y="687" type="curve" smooth="yes"/>
      <point x="135" y="811"/>
      <point x="-21" y="693"/>
      <point x="25" y="569" type="curve" smooth="yes"/>
      <point x="34" y="546"/>
      <point x="70" y="558"/>
      <point x="66" y="582" type="curve" smooth="yes"/>
      <point x="56" y="638"/>
      <point x="75" y="711"/>
      <point x="148" y="687" type="curve" smooth="yes"/>
      <point x="225" y="661"/>
      <point x="223" y="537"/>
      <point x="197" y="478" type="curve" smooth="yes"/>
      <point x="152" y="376"/>
      <point x="84" y="320"/>
      <point x="90" y="200" type="curve" smooth="yes"/>
      <point x="92" y="169"/>
      <point x="143" y="177"/>
      <point x="139" y="209" type="curve" smooth="yes"/>
      <point x="126" y="309"/>
      <point x="198" y="379"/>
      <point x="241" y="462" type="curve" smooth="yes"/>
      <point x="278" y="535"/>
      <point x="261" y="621"/>
    </contour>
    <contour>
      <point x="138" y="69" type="curve"/>
      <point x="127" y="73"/>
      <point x="114" y="72"/>
      <point x="108" y="63" type="curve"/>
      <point x="95" y="56"/>
      <point x="88" y="44"/>
      <point x="101" y="29" type="curve" smooth="yes"/>
      <point x="102" y="28"/>
      <point x="103" y="26"/>
      <point x="104" y="25" type="curve"/>
      <point x="105" y="10"/>
      <point x="109" y="-4"/>
      <point x="124" y="-8" type="curve" smooth="yes"/>
      <point x="147" y="-14"/>
      <point x="182" y="8"/>
      <point x="181" y="33" type="curve" smooth="yes"/>
      <point x="181" y="59"/>
      <point x="160" y="67"/>
    </contour>
  </outline>
</glyph>
<glyph name="A" format="1">
  <advance width="406"/>
  <unicode hex="0041"/>
  <outline>
    <contour>
      <point x="378" y="12" type="curve" smooth="yes"/>
      <point x="367" y="150"/>
      <point x="317" y="290"/>
      <point x="278" y="423" type="curve" smooth="yes"/>
      <point x="253" y="507"/>
      <point x="232" y="604"/>
      <point x="191" y="684" type="curve"/>
      <point x="192" y="699"/>
      <point x="193" y="714"/>
      <point x="194" y="729" type="curve" smooth="yes"/>
      <point x="195" y="747"/>
      <point x="166" y="750"/>
      <point x="165" y="731" type="curve" smooth="yes"/>
      <point x="165" y="731"/>
      <point x="165" y="730"/>
      <point x="165" y="729" type="curve"/>
      <point x="157" y="735"/>
      <point x="145" y="727"/>
      <point x="147" y="717" type="curve" smooth="yes"/>
      <point x="150" y="698"/>
      <point x="154" y="678"/>
      <point x="159" y="658" type="curve"/>
      <point x="140" y="442"/>
      <point x="94" y="232"/>
      <point x="23" y="26" type="curve" smooth="yes"/>
      <point x="15" y="2"/>
      <point x="51" y="-11"/>
      <point x="59" y="13" type="curve" smooth="yes"/>
      <point x="77" y="65"/>
      <point x="93" y="118"/>
      <point x="107" y="171" type="curve"/>
      <point x="170" y="168"/>
      <point x="236" y="179"/>
      <point x="298" y="190" type="curve"/>
      <point x="312" y="128"/>
      <point x="326" y="66"/>
      <point x="342" y="5" type="curve" smooth="yes"/>
      <point x="348" y="-17"/>
      <point x="379" y="-12"/>
    </contour>
    <contour>
      <point x="116" y="208" type="curve"/>
      <point x="147" y="331"/>
      <point x="169" y="455"/>
      <point x="182" y="581" type="curve"/>
      <point x="205" y="512"/>
      <point x="232" y="444"/>
      <point x="252" y="377" type="curve" smooth="yes"/>
      <point x="266" y="328"/>
      <point x="278" y="279"/>
      <point x="289" y="230" type="curve"/>
      <point x="232" y="221"/>
      <point x="174" y="214"/>
    </contour>
  </outline>
</glyph>
<glyph name="B" format="1">
  <advance width="284"/>
  <unicode hex="0042"/>
  <outline>
    <contour>
      <point x="156" y="361" type="curve"/>
      <point x="364" y="468"/>
      <point x="228" y="827"/>
      <point x="36" y="705" type="curve" smooth="yes"/>
      <point x="31" y="702"/>
      <point x="29" y="696"/>
      <point x="30" y="691" type="curve"/>
      <point x="29" y="689"/>
      <point x="29" y="688"/>
      <point x="29" y="685" type="curve" smooth="yes"/>
      <point x="25" y="469"/>
      <point x="16" y="252"/>
      <point x="13" y="35" type="curve" smooth="yes"/>
      <point x="13" y="22"/>
      <point x="25" y="15"/>
      <point x="35" y="16" type="curve"/>
      <point x="229" y="-84"/>
      <point x="362" y="286"/>
    </contour>
    <contour>
      <point x="57" y="374" type="curve" smooth="yes"/>
      <point x="56" y="374"/>
      <point x="54" y="373"/>
      <point x="52" y="373" type="curve"/>
      <point x="54" y="476"/>
      <point x="55" y="580"/>
      <point x="54" y="683" type="curve" smooth="yes"/>
      <point x="54" y="683"/>
      <point x="54" y="684"/>
      <point x="54" y="684" type="curve"/>
      <point x="290" y="717"/>
      <point x="285" y="398"/>
    </contour>
    <contour>
      <point x="50" y="51" type="curve"/>
      <point x="50" y="146"/>
      <point x="51" y="242"/>
      <point x="52" y="338" type="curve"/>
      <point x="55" y="335"/>
      <point x="60" y="334"/>
      <point x="64" y="335" type="curve" smooth="yes"/>
      <point x="301" y="347"/>
      <point x="256" y="0"/>
    </contour>
  </outline>
</glyph>
<glyph name="D" format="1">
  <advance width="389"/>
  <unicode hex="0044"/>
  <outline>
    <contour>
      <point x="308" y="665" type="curve" smooth="yes"/>
      <point x="244" y="745"/>
      <point x="164" y="734"/>
      <point x="69" y="730" type="curve" smooth="yes"/>
      <point x="51" y="729"/>
      <point x="52" y="699"/>
      <point x="70" y="698" type="curve" smooth="yes"/>
      <point x="76" y="698"/>
      <point x="82" y="698"/>
      <point x="88" y="698" type="curve"/>
      <point x="116" y="478"/>
      <point x="129" y="263"/>
      <point x="81" y="43" type="curve" smooth="yes"/>
      <point x="81" y="43"/>
      <point x="81" y="42"/>
      <point x="81" y="42" type="curve"/>
      <point x="66" y="41"/>
      <point x="52" y="40"/>
      <point x="38" y="38" type="curve" smooth="yes"/>
      <point x="19" y="35"/>
      <point x="22" y="8"/>
      <point x="40" y="5" type="curve" smooth="yes"/>
      <point x="262" y="-38"/>
      <point x="342" y="118"/>
      <point x="352" y="311" type="curve" smooth="yes"/>
      <point x="358" y="428"/>
      <point x="389" y="564"/>
    </contour>
    <contour>
      <point x="313" y="315" type="curve" smooth="yes"/>
      <point x="304" y="243"/>
      <point x="305" y="173"/>
      <point x="266" y="109" type="curve" smooth="yes"/>
      <point x="236" y="59"/>
      <point x="179" y="49"/>
      <point x="123" y="44" type="curve"/>
      <point x="171" y="256"/>
      <point x="167" y="487"/>
      <point x="121" y="698" type="curve"/>
      <point x="192" y="699"/>
      <point x="249" y="694"/>
      <point x="296" y="616" type="curve" smooth="yes"/>
      <point x="348" y="530"/>
      <point x="324" y="409"/>
    </contour>
  </outline>
</glyph>
<glyph name="E" format="1">
  <advance width="377"/>
  <unicode hex="0045"/>
  <outline>
    <contour>
      <point x="329" y="721" type="curve" smooth="yes"/>
      <point x="248" y="721"/>
      <point x="158" y="739"/>
      <point x="76" y="728" type="curve"/>
      <point x="69" y="740"/>
      <point x="46" y="740"/>
      <point x="46" y="722" type="curve" smooth="yes"/>
      <point x="46" y="722"/>
      <point x="46" y="721"/>
      <point x="45" y="721" type="curve"/>
      <point x="38" y="716"/>
      <point x="36" y="704"/>
      <point x="45" y="699" type="curve"/>
      <point x="35" y="474"/>
      <point x="25" y="248"/>
      <point x="52" y="24" type="curve" smooth="yes"/>
      <point x="53" y="15"/>
      <point x="61" y="8"/>
      <point x="70" y="7" type="curve" smooth="yes"/>
      <point x="145" y="-2"/>
      <point x="220" y="-1"/>
      <point x="295" y="-10" type="curve" smooth="yes"/>
      <point x="314" y="-12"/>
      <point x="321" y="17"/>
      <point x="303" y="23" type="curve" smooth="yes"/>
      <point x="263" y="37"/>
      <point x="229" y="40"/>
      <point x="186" y="42" type="curve"/>
      <point x="160" y="43"/>
      <point x="134" y="44"/>
      <point x="108" y="45" type="curve" smooth="yes"/>
      <point x="72" y="47"/>
      <point x="77" y="239"/>
      <point x="77" y="235" type="curve" smooth="yes"/>
      <point x="76" y="276"/>
      <point x="76" y="316"/>
      <point x="76" y="357" type="curve"/>
      <point x="107" y="342"/>
      <point x="146" y="344"/>
      <point x="180" y="344" type="curve" smooth="yes"/>
      <point x="204" y="344"/>
      <point x="265" y="340"/>
      <point x="279" y="365" type="curve" smooth="yes"/>
      <point x="282" y="372"/>
      <point x="283" y="382"/>
      <point x="275" y="387" type="curve" smooth="yes"/>
      <point x="254" y="398"/>
      <point x="220" y="385"/>
      <point x="198" y="383" type="curve" smooth="yes"/>
      <point x="156" y="379"/>
      <point x="117" y="382"/>
      <point x="76" y="387" type="curve"/>
      <point x="77" y="489"/>
      <point x="81" y="590"/>
      <point x="79" y="692" type="curve"/>
      <point x="159" y="678"/>
      <point x="246" y="680"/>
      <point x="325" y="679" type="curve" smooth="yes"/>
      <point x="352" y="679"/>
      <point x="356" y="721"/>
    </contour>
  </outline>
</glyph>
<glyph name="F" format="1">
  <advance width="350"/>
  <unicode hex="0046"/>
  <outline>
    <contour>
      <point x="311" y="720" type="curve" smooth="yes"/>
      <point x="292" y="745"/>
      <point x="228" y="731"/>
      <point x="201" y="730" type="curve" smooth="yes"/>
      <point x="156" y="730"/>
      <point x="110" y="733"/>
      <point x="65" y="729" type="curve"/>
      <point x="64" y="734"/>
      <point x="64" y="740"/>
      <point x="63" y="745" type="curve" smooth="yes"/>
      <point x="59" y="766"/>
      <point x="28" y="760"/>
      <point x="31" y="739" type="curve" smooth="yes"/>
      <point x="32" y="734"/>
      <point x="32" y="729"/>
      <point x="33" y="724" type="curve"/>
      <point x="18" y="720"/>
      <point x="20" y="700"/>
      <point x="35" y="697" type="curve" smooth="yes"/>
      <point x="35" y="697"/>
      <point x="35" y="697"/>
      <point x="36" y="697" type="curve"/>
      <point x="58" y="467"/>
      <point x="21" y="240"/>
      <point x="39" y="11" type="curve" smooth="yes"/>
      <point x="40" y="-10"/>
      <point x="74" y="-8"/>
      <point x="76" y="13" type="curve" smooth="yes"/>
      <point x="87" y="124"/>
      <point x="93" y="238"/>
      <point x="93" y="352" type="curve"/>
      <point x="147" y="353"/>
      <point x="260" y="354"/>
      <point x="252" y="397" type="curve" smooth="yes"/>
      <point x="247" y="426"/>
      <point x="202" y="408"/>
      <point x="186" y="404" type="curve" smooth="yes"/>
      <point x="155" y="397"/>
      <point x="124" y="390"/>
      <point x="93" y="381" type="curve"/>
      <point x="92" y="486"/>
      <point x="86" y="590"/>
      <point x="71" y="692" type="curve"/>
      <point x="117" y="688"/>
      <point x="165" y="691"/>
      <point x="211" y="691" type="curve" smooth="yes"/>
      <point x="239" y="691"/>
      <point x="292" y="678"/>
      <point x="312" y="702" type="curve" smooth="yes"/>
      <point x="317" y="707"/>
      <point x="316" y="716"/>
    </contour>
  </outline>
</glyph>
<glyph name="G" format="1">
  <advance width="357"/>
  <unicode hex="0047"/>
  <outline>
    <contour>
      <point x="315" y="642" type="line" smooth="yes"/>
      <point x="287" y="713"/>
      <point x="189" y="765"/>
      <point x="119" y="715" type="curve" smooth="yes"/>
      <point x="43" y="662"/>
      <point x="33" y="560"/>
      <point x="27" y="475" type="curve" smooth="yes"/>
      <point x="16" y="337"/>
      <point x="-2" y="50"/>
      <point x="175" y="3" type="curve" smooth="yes"/>
      <point x="338" y="-40"/>
      <point x="349" y="210"/>
      <point x="331" y="304" type="curve" smooth="yes"/>
      <point x="320" y="358"/>
      <point x="247" y="397"/>
      <point x="200" y="357" type="curve" smooth="yes"/>
      <point x="145" y="311"/>
      <point x="173" y="201"/>
      <point x="180" y="141" type="curve" smooth="yes"/>
      <point x="183" y="115"/>
      <point x="223" y="122"/>
      <point x="220" y="149" type="curve" smooth="yes"/>
      <point x="215" y="193"/>
      <point x="210" y="237"/>
      <point x="212" y="283" type="curve" smooth="yes"/>
      <point x="215" y="326"/>
      <point x="277" y="345"/>
      <point x="290" y="297" type="curve" smooth="yes"/>
      <point x="298" y="266"/>
      <point x="301" y="233"/>
      <point x="302" y="201" type="curve" smooth="yes"/>
      <point x="304" y="114"/>
      <point x="230" y="-13"/>
      <point x="138" y="74" type="curve" smooth="yes"/>
      <point x="58" y="150"/>
      <point x="68" y="294"/>
      <point x="67" y="394" type="curve" smooth="yes"/>
      <point x="66" y="445"/>
      <point x="69" y="497"/>
      <point x="76" y="548" type="curve" smooth="yes"/>
      <point x="91" y="654"/>
      <point x="182" y="765"/>
      <point x="292" y="627" type="curve" smooth="yes"/>
      <point x="302" y="614"/>
      <point x="321" y="628"/>
      <point x="315" y="642" type="curve" smooth="yes"/>
    </contour>
  </outline>
</glyph>
<glyph name="H" format="1">
  <advance width="341"/>
  <unicode hex="0048"/>
  <outline>
    <contour>
      <point x="293" y="720" type="curve" smooth="yes"/>
      <point x="292" y="735"/>
      <point x="269" y="733"/>
      <point x="268" y="719" type="curve" smooth="yes"/>
      <point x="257" y="606"/>
      <point x="261" y="494"/>
      <point x="265" y="382" type="curve"/>
      <point x="237" y="392"/>
      <point x="202" y="382"/>
      <point x="173" y="378" type="curve" smooth="yes"/>
      <point x="147" y="374"/>
      <point x="113" y="369"/>
      <point x="84" y="360" type="curve"/>
      <point x="88" y="486"/>
      <point x="84" y="612"/>
      <point x="54" y="731" type="curve" smooth="yes"/>
      <point x="49" y="751"/>
      <point x="18" y="746"/>
      <point x="22" y="725" type="curve" smooth="yes"/>
      <point x="68" y="485"/>
      <point x="-7" y="245"/>
      <point x="33" y="9" type="curve" smooth="yes"/>
      <point x="36" y="-8"/>
      <point x="63" y="-8"/>
      <point x="63" y="10" type="curve" smooth="yes"/>
      <point x="67" y="111"/>
      <point x="77" y="216"/>
      <point x="82" y="321" type="curve"/>
      <point x="110" y="323"/>
      <point x="140" y="331"/>
      <point x="167" y="334" type="curve" smooth="yes"/>
      <point x="197" y="336"/>
      <point x="237" y="335"/>
      <point x="267" y="348" type="curve"/>
      <point x="270" y="233"/>
      <point x="272" y="118"/>
      <point x="252" y="3" type="curve" smooth="yes"/>
      <point x="248" y="-21"/>
      <point x="283" y="-23"/>
      <point x="288" y="-1" type="curve" smooth="yes"/>
      <point x="339" y="232"/>
      <point x="304" y="485"/>
    </contour>
  </outline>
</glyph>
<glyph name="I" format="1">
  <advance width="119"/>
  <unicode hex="0049"/>
  <outline>
    <contour>
      <point x="48" y="722" type="line" smooth="yes"/>
      <point x="44" y="487"/>
      <point x="73" y="253"/>
      <point x="24" y="21" type="curve" smooth="yes"/>
      <point x="18" y="-6"/>
      <point x="60" y="-9"/>
      <point x="65" y="17" type="curve" smooth="yes"/>
      <point x="113" y="247"/>
      <point x="90" y="485"/>
      <point x="82" y="719" type="curve" smooth="yes"/>
      <point x="81" y="740"/>
      <point x="49" y="744"/>
      <point x="48" y="722" type="curve" smooth="yes"/>
    </contour>
  </outline>
</glyph>
<glyph name="J" format="1">
  <advance width="316"/>
  <unicode hex="004A"/>
  <outline>
    <contour>
      <point x="292" y="727" type="curve" smooth="yes"/>
      <point x="264" y="744"/>
      <point x="218" y="734"/>
      <point x="189" y="725" type="curve" smooth="yes"/>
      <point x="168" y="718"/>
      <point x="173" y="684"/>
      <point x="195" y="691" type="curve" smooth="yes"/>
      <point x="202" y="693"/>
      <point x="210" y="695"/>
      <point x="218" y="696" type="curve"/>
      <point x="218" y="696"/>
      <point x="218" y="695"/>
      <point x="218" y="694" type="curve" smooth="yes"/>
      <point x="226" y="575"/>
      <point x="230" y="459"/>
      <point x="227" y="339" type="curve" smooth="yes"/>
      <point x="226" y="284"/>
      <point x="222" y="230"/>
      <point x="216" y="175" type="curve" smooth="yes"/>
      <point x="211" y="135"/>
      <point x="204" y="104"/>
      <point x="183" y="66" type="curve" smooth="yes"/>
      <point x="127" y="-38"/>
      <point x="41" y="67"/>
      <point x="58" y="141" type="curve" smooth="yes"/>
      <point x="62" y="157"/>
      <point x="41" y="165"/>
      <point x="34" y="150" type="curve" smooth="yes"/>
      <point x="-34" y="7"/>
      <point x="151" y="-65"/>
      <point x="225" y="72" type="curve" smooth="yes"/>
      <point x="269" y="156"/>
      <point x="262" y="274"/>
      <point x="266" y="366" type="curve" smooth="yes"/>
      <point x="269" y="469"/>
      <point x="277" y="599"/>
      <point x="249" y="700" type="curve" smooth="yes"/>
      <point x="249" y="700"/>
      <point x="249" y="700"/>
      <point x="249" y="700" type="curve"/>
      <point x="263" y="701"/>
      <point x="278" y="700"/>
      <point x="290" y="708" type="curve" smooth="yes"/>
      <point x="297" y="712"/>
      <point x="300" y="722"/>
    </contour>
  </outline>
</glyph>
<glyph name="K" format="1">
  <advance width="400"/>
  <unicode hex="004B"/>
  <outline>
    <contour>
      <point x="358" y="26" type="curve" smooth="yes"/>
      <point x="316" y="151"/>
      <point x="247" y="267"/>
      <point x="172" y="376" type="curve"/>
      <point x="236" y="490"/>
      <point x="304" y="604"/>
      <point x="350" y="727" type="curve" smooth="yes"/>
      <point x="354" y="739"/>
      <point x="336" y="750"/>
      <point x="329" y="738" type="curve" smooth="yes"/>
      <point x="265" y="628"/>
      <point x="204" y="517"/>
      <point x="143" y="406" type="curve"/>
      <point x="136" y="405"/>
      <point x="130" y="397"/>
      <point x="133" y="389" type="curve"/>
      <point x="126" y="376"/>
      <point x="119" y="363"/>
      <point x="112" y="350" type="curve"/>
      <point x="112" y="358"/>
      <point x="112" y="366"/>
      <point x="112" y="374" type="curve" smooth="yes"/>
      <point x="114" y="485"/>
      <point x="122" y="620"/>
      <point x="86" y="726" type="curve" smooth="yes"/>
      <point x="82" y="737"/>
      <point x="65" y="732"/>
      <point x="64" y="722" type="curve" smooth="yes"/>
      <point x="49" y="611"/>
      <point x="72" y="491"/>
      <point x="72" y="378" type="curve" smooth="yes"/>
      <point x="71" y="257"/>
      <point x="58" y="137"/>
      <point x="35" y="18" type="curve" smooth="yes"/>
      <point x="30" y="-4"/>
      <point x="68" y="-13"/>
      <point x="74" y="9" type="curve" smooth="yes"/>
      <point x="98" y="102"/>
      <point x="107" y="197"/>
      <point x="110" y="292" type="curve"/>
      <point x="117" y="290"/>
      <point x="126" y="292"/>
      <point x="131" y="301" type="curve" smooth="yes"/>
      <point x="138" y="315"/>
      <point x="146" y="329"/>
      <point x="154" y="344" type="curve"/>
      <point x="208" y="231"/>
      <point x="280" y="128"/>
      <point x="318" y="7" type="curve" smooth="yes"/>
      <point x="327" y="-20"/>
      <point x="367" y="-1"/>
    </contour>
  </outline>
</glyph>
<glyph name="L" format="1">
  <advance width="318"/>
  <unicode hex="004C"/>
  <outline>
    <contour>
      <point x="66" y="718" type="line" smooth="yes"/>
      <point x="62" y="486"/>
      <point x="23" y="255"/>
      <point x="29" y="22" type="curve" smooth="yes"/>
      <point x="29" y="12"/>
      <point x="36" y="-1"/>
      <point x="48" y="-1" type="curve" smooth="yes"/>
      <point x="122" y="0"/>
      <point x="196" y="-2"/>
      <point x="269" y="3" type="curve" smooth="yes"/>
      <point x="292" y="4"/>
      <point x="286" y="40"/>
      <point x="263" y="38" type="curve" smooth="yes"/>
      <point x="237" y="35"/>
      <point x="72" y="9"/>
      <point x="70" y="72" type="curve" smooth="yes"/>
      <point x="69" y="145"/>
      <point x="74" y="217"/>
      <point x="79" y="289" type="curve" smooth="yes"/>
      <point x="88" y="433"/>
      <point x="103" y="575"/>
      <point x="93" y="719" type="curve" smooth="yes"/>
      <point x="92" y="735"/>
      <point x="66" y="733"/>
      <point x="66" y="718" type="curve" smooth="yes"/>
    </contour>
  </outline>
</glyph>
<glyph name="M" format="1">
  <advance width="446"/>
  <unicode hex="004D"/>
  <outline>
    <contour>
      <point x="399" y="729" type="curve" smooth="yes"/>
      <point x="399" y="748"/>
      <point x="379" y="756"/>
      <point x="366" y="742" type="curve" smooth="yes"/>
      <point x="284" y="648"/>
      <point x="247" y="527"/>
      <point x="233" y="404" type="curve"/>
      <point x="196" y="521"/>
      <point x="149" y="632"/>
      <point x="60" y="723" type="curve" smooth="yes"/>
      <point x="45" y="738"/>
      <point x="23" y="727"/>
      <point x="24" y="707" type="curve" smooth="yes"/>
      <point x="37" y="475"/>
      <point x="63" y="248"/>
      <point x="42" y="16" type="curve" smooth="yes"/>
      <point x="41" y="0"/>
      <point x="64" y="-1"/>
      <point x="67" y="14" type="curve" smooth="yes"/>
      <point x="113" y="224"/>
      <point x="84" y="440"/>
      <point x="68" y="653" type="curve"/>
      <point x="152" y="550"/>
      <point x="189" y="426"/>
      <point x="226" y="296" type="curve" smooth="yes"/>
      <point x="231" y="277"/>
      <point x="262" y="275"/>
      <point x="263" y="297" type="curve" smooth="yes"/>
      <point x="266" y="429"/>
      <point x="289" y="569"/>
      <point x="364" y="679" type="curve"/>
      <point x="372" y="458"/>
      <point x="406" y="236"/>
      <point x="360" y="17" type="curve" smooth="yes"/>
      <point x="354" y="-10"/>
      <point x="397" y="-14"/>
      <point x="403" y="13" type="curve" smooth="yes"/>
      <point x="450" y="251"/>
      <point x="403" y="490"/>
    </contour>
  </outline>
</glyph>
<glyph name="O" format="1">
  <advance width="399"/>
  <unicode hex="004F"/>
  <outline>
    <contour>
      <point x="75" y="695" type="curve" smooth="yes"/>
      <point x="66" y="688"/>
      <point x="68" y="676"/>
      <point x="74" y="669" type="curve"/>
      <point x="-39" y="481"/>
      <point x="35" y="-155"/>
      <point x="263" y="29" type="curve" smooth="yes"/>
      <point x="463" y="190"/>
      <point x="420" y="932"/>
    </contour>
    <contour>
      <point x="265" y="75" type="curve" smooth="yes"/>
      <point x="144" y="-90"/>
      <point x="78" y="212"/>
      <point x="70" y="289" type="curve" smooth="yes"/>
      <point x="58" y="405"/>
      <point x="55" y="565"/>
      <point x="111" y="674" type="curve"/>
      <point x="417" y="835"/>
      <point x="369" y="215"/>
    </contour>
  </outline>
</glyph>
<glyph name="R" format="1">
  <advance width="344"/>
  <unicode hex="0052"/>
  <outline>
    <contour>
      <point x="291" y="28" type="curve" smooth="yes"/>
      <point x="236" y="77"/>
      <point x="258" y="201"/>
      <point x="242" y="267" type="curve" smooth="yes"/>
      <point x="234" y="299"/>
      <point x="218" y="325"/>
      <point x="197" y="342" type="curve"/>
      <point x="263" y="383"/>
      <point x="300" y="454"/>
      <point x="294" y="548" type="curve" smooth="yes"/>
      <point x="285" y="669"/>
      <point x="162" y="767"/>
      <point x="45" y="722" type="curve"/>
      <point x="41" y="722"/>
      <point x="37" y="720"/>
      <point x="35" y="717" type="curve"/>
      <point x="34" y="717"/>
      <point x="33" y="717"/>
      <point x="32" y="716" type="curve" smooth="yes"/>
      <point x="25" y="713"/>
      <point x="25" y="701"/>
      <point x="31" y="697" type="curve"/>
      <point x="26" y="472"/>
      <point x="46" y="248"/>
      <point x="37" y="22" type="curve" smooth="yes"/>
      <point x="36" y="-4"/>
      <point x="76" y="-7"/>
      <point x="77" y="19" type="curve" smooth="yes"/>
      <point x="80" y="113"/>
      <point x="80" y="208"/>
      <point x="78" y="303" type="curve"/>
      <point x="79" y="303"/>
      <point x="80" y="303"/>
      <point x="81" y="303" type="curve" smooth="yes"/>
      <point x="107" y="306"/>
      <point x="131" y="312"/>
      <point x="154" y="320" type="curve"/>
      <point x="170" y="314"/>
      <point x="183" y="303"/>
      <point x="193" y="283" type="curve" smooth="yes"/>
      <point x="209" y="250"/>
      <point x="210" y="207"/>
      <point x="213" y="170" type="curve" smooth="yes"/>
      <point x="217" y="109"/>
      <point x="217" y="37"/>
      <point x="267" y="-7" type="curve" smooth="yes"/>
      <point x="287" y="-26"/>
      <point x="312" y="10"/>
    </contour>
    <contour>
      <point x="79" y="343" type="curve" smooth="yes"/>
      <point x="78" y="344"/>
      <point x="77" y="344"/>
      <point x="77" y="344" type="curve"/>
      <point x="73" y="461"/>
      <point x="67" y="579"/>
      <point x="63" y="697" type="curve"/>
      <point x="161" y="696"/>
      <point x="238" y="669"/>
      <point x="258" y="554" type="curve" smooth="yes"/>
      <point x="272" y="472"/>
      <point x="230" y="392"/>
      <point x="160" y="359" type="curve"/>
      <point x="140" y="364"/>
      <point x="117" y="363"/>
      <point x="93" y="353" type="curve" smooth="yes"/>
      <point x="88" y="352"/>
      <point x="86" y="347"/>
      <point x="87" y="343" type="curve"/>
      <point x="84" y="343"/>
      <point x="82" y="343"/>
    </contour>
  </outline>
</glyph>
<glyph name="S" format="1">
  <advance width="373"/>
  <unicode hex="0053"/>
  <outline>
    <contour>
      <point x="20" y="139" type="line" smooth="yes"/>
      <point x="45" y="66"/>
      <point x="93" y="-7"/>
      <point x="178" y="-6" type="curve" smooth="yes"/>
      <point x="240" y="-6"/>
      <point x="284" y="59"/>
      <point x="291" y="115" type="curve" smooth="yes"/>
      <point x="305" y="214"/>
      <point x="263" y="297"/>
      <point x="203" y="374" type="curve" smooth="yes"/>
      <point x="160" y="429"/>
      <point x="113" y="481"/>
      <point x="96" y="551" type="curve" smooth="yes"/>
      <point x="81" y="615"/>
      <point x="130" y="677"/>
      <point x="190" y="690" type="curve" smooth="yes"/>
      <point x="242" y="702"/>
      <point x="281" y="658"/>
      <point x="311" y="624" type="curve" smooth="yes"/>
      <point x="326" y="607"/>
      <point x="355" y="625"/>
      <point x="345" y="646" type="curve" smooth="yes"/>
      <point x="273" y="802"/>
      <point x="24" y="741"/>
      <point x="46" y="565" type="curve" smooth="yes"/>
      <point x="59" y="461"/>
      <point x="138" y="387"/>
      <point x="199" y="308" type="curve" smooth="yes"/>
      <point x="245" y="247"/>
      <point x="268" y="161"/>
      <point x="242" y="87" type="curve" smooth="yes"/>
      <point x="195" y="-42"/>
      <point x="76" y="93"/>
      <point x="41" y="149" type="curve" smooth="yes"/>
      <point x="33" y="162"/>
      <point x="15" y="153"/>
      <point x="20" y="139" type="curve" smooth="yes"/>
    </contour>
  </outline>
</glyph>
<glyph name="T" format="1">
  <advance width="346"/>
  <unicode hex="0054"/>
  <outline>
    <contour>
      <point x="304" y="730" type="curve" smooth="yes"/>
      <point x="215" y="731"/>
      <point x="127" y="740"/>
      <point x="39" y="720" type="curve" smooth="yes"/>
      <point x="15" y="715"/>
      <point x="21" y="676"/>
      <point x="46" y="682" type="curve" smooth="yes"/>
      <point x="90" y="691"/>
      <point x="135" y="694"/>
      <point x="181" y="694" type="curve"/>
      <point x="181" y="693"/>
      <point x="180" y="693"/>
      <point x="180" y="692" type="curve" smooth="yes"/>
      <point x="164" y="465"/>
      <point x="190" y="239"/>
      <point x="142" y="14" type="curve" smooth="yes"/>
      <point x="137" y="-12"/>
      <point x="177" y="-15"/>
      <point x="183" y="10" type="curve" smooth="yes"/>
      <point x="231" y="231"/>
      <point x="223" y="468"/>
      <point x="204" y="693" type="curve" smooth="yes"/>
      <point x="204" y="693"/>
      <point x="204" y="694"/>
      <point x="204" y="694" type="curve"/>
      <point x="236" y="694"/>
      <point x="269" y="693"/>
      <point x="301" y="693" type="curve" smooth="yes"/>
      <point x="324" y="693"/>
      <point x="328" y="729"/>
    </contour>
  </outline>
</glyph>
<glyph name="V" format="1">
  <advance width="420"/>
  <unicode hex="0056"/>
  <outline>
    <contour>
      <point x="352" y="711" type="curve" smooth="yes"/>
      <point x="278" y="516"/>
      <point x="252" y="310"/>
      <point x="201" y="109" type="curve"/>
      <point x="156" y="316"/>
      <point x="114" y="522"/>
      <point x="69" y="729" type="curve" smooth="yes"/>
      <point x="64" y="752"/>
      <point x="30" y="746"/>
      <point x="33" y="723" type="curve" smooth="yes"/>
      <point x="70" y="484"/>
      <point x="124" y="248"/>
      <point x="178" y="13" type="curve" smooth="yes"/>
      <point x="182" y="-6"/>
      <point x="214" y="-13"/>
      <point x="220" y="10" type="curve" smooth="yes"/>
      <point x="277" y="239"/>
      <point x="302" y="476"/>
      <point x="385" y="698" type="curve" smooth="yes"/>
      <point x="394" y="720"/>
      <point x="360" y="733"/>
    </contour>
  </outline>
</glyph>
<glyph name="W" format="1">
  <advance width="537"/>
  <unicode hex="0057"/>
  <outline>
    <contour>
      <point x="468" y="721" type="curve" smooth="yes"/>
      <point x="428" y="550"/>
      <point x="407" y="337"/>
      <point x="367" y="152" type="curve"/>
      <point x="357" y="364"/>
      <point x="337" y="731"/>
      <point x="229" y="720" type="curve" smooth="yes"/>
      <point x="218" y="719"/>
      <point x="215" y="705"/>
      <point x="221" y="697" type="curve" smooth="yes"/>
      <point x="288" y="613"/>
      <point x="289" y="478"/>
      <point x="299" y="375" type="curve" smooth="yes"/>
      <point x="299" y="375"/>
      <point x="300" y="374"/>
      <point x="300" y="373" type="curve"/>
      <point x="290" y="374"/>
      <point x="279" y="369"/>
      <point x="278" y="356" type="curve" smooth="yes"/>
      <point x="266" y="259"/>
      <point x="239" y="168"/>
      <point x="208" y="75" type="curve"/>
      <point x="202" y="123"/>
      <point x="195" y="171"/>
      <point x="188" y="219" type="curve" smooth="yes"/>
      <point x="164" y="393"/>
      <point x="126" y="562"/>
      <point x="67" y="727" type="curve" smooth="yes"/>
      <point x="61" y="744"/>
      <point x="33" y="735"/>
      <point x="38" y="718" type="curve" smooth="yes"/>
      <point x="110" y="485"/>
      <point x="144" y="246"/>
      <point x="175" y="5" type="curve" smooth="yes"/>
      <point x="176" y="-3"/>
      <point x="184" y="-12"/>
      <point x="193" y="-12" type="curve" smooth="yes"/>
      <point x="198" y="-12"/>
      <point x="204" y="-12"/>
      <point x="209" y="-11" type="curve" smooth="yes"/>
      <point x="216" y="-11"/>
      <point x="223" y="-5"/>
      <point x="225" y="2" type="curve" smooth="yes"/>
      <point x="255" y="99"/>
      <point x="288" y="192"/>
      <point x="307" y="291" type="curve"/>
      <point x="313" y="197"/>
      <point x="317" y="103"/>
      <point x="332" y="10" type="curve" smooth="yes"/>
      <point x="336" y="-10"/>
      <point x="369" y="-15"/>
      <point x="374" y="7" type="curve" smooth="yes"/>
      <point x="429" y="218"/>
      <point x="453" y="496"/>
      <point x="504" y="708" type="curve" smooth="yes"/>
      <point x="510" y="732"/>
      <point x="474" y="745"/>
    </contour>
  </outline>
</glyph>
<glyph name="X" format="1">
  <advance width="369"/>
  <unicode hex="0058"/>
  <outline>
    <contour>
      <point x="307" y="724" type="curve" smooth="yes"/>
      <point x="251" y="654"/>
      <point x="213" y="570"/>
      <point x="183" y="481" type="curve"/>
      <point x="162" y="570"/>
      <point x="132" y="655"/>
      <point x="74" y="730" type="curve" smooth="yes"/>
      <point x="60" y="747"/>
      <point x="36" y="726"/>
      <point x="48" y="708" type="curve" smooth="yes"/>
      <point x="111" y="612"/>
      <point x="137" y="506"/>
      <point x="157" y="397" type="curve"/>
      <point x="120" y="267"/>
      <point x="92" y="132"/>
      <point x="43" y="16" type="curve" smooth="yes"/>
      <point x="33" y="-7"/>
      <point x="68" y="-19"/>
      <point x="79" y="2" type="curve" smooth="yes"/>
      <point x="118" y="87"/>
      <point x="151" y="175"/>
      <point x="180" y="265" type="curve"/>
      <point x="196" y="178"/>
      <point x="215" y="91"/>
      <point x="253" y="10" type="curve" smooth="yes"/>
      <point x="266" y="-16"/>
      <point x="306" y="3"/>
      <point x="294" y="29" type="curve" smooth="yes"/>
      <point x="245" y="131"/>
      <point x="228" y="243"/>
      <point x="208" y="354" type="curve"/>
      <point x="246" y="476"/>
      <point x="280" y="599"/>
      <point x="322" y="716" type="curve" smooth="yes"/>
      <point x="326" y="725"/>
      <point x="313" y="731"/>
    </contour>
  </outline>
</glyph>
<glyph name="Y" format="1">
  <advance width="390"/>
  <unicode hex="0059"/>
  <outline>
    <contour>
      <point x="199" y="312" type="curve" smooth="yes"/>
      <point x="235" y="456"/>
      <point x="319" y="579"/>
      <point x="366" y="718" type="curve" smooth="yes"/>
      <point x="370" y="730"/>
      <point x="352" y="741"/>
      <point x="346" y="729" type="curve" smooth="yes"/>
      <point x="288" y="620"/>
      <point x="223" y="511"/>
      <point x="181" y="394" type="curve"/>
      <point x="162" y="509"/>
      <point x="108" y="628"/>
      <point x="64" y="731" type="curve" smooth="yes"/>
      <point x="54" y="756"/>
      <point x="17" y="738"/>
      <point x="27" y="714" type="curve" smooth="yes"/>
      <point x="77" y="589"/>
      <point x="102" y="455"/>
      <point x="153" y="333" type="curve" smooth="yes"/>
      <point x="154" y="331"/>
      <point x="155" y="330"/>
      <point x="156" y="328" type="curve"/>
      <point x="154" y="326"/>
      <point x="152" y="322"/>
      <point x="153" y="317" type="curve" smooth="yes"/>
      <point x="162" y="264"/>
      <point x="170" y="213"/>
      <point x="171" y="158" type="curve" smooth="yes"/>
      <point x="171" y="109"/>
      <point x="156" y="60"/>
      <point x="158" y="12" type="curve" smooth="yes"/>
      <point x="158" y="-5"/>
      <point x="181" y="-19"/>
      <point x="191" y="-1" type="curve" smooth="yes"/>
      <point x="217" y="42"/>
      <point x="211" y="107"/>
      <point x="211" y="154" type="curve" smooth="yes"/>
      <point x="210" y="201"/>
      <point x="209" y="256"/>
      <point x="190" y="300" type="curve"/>
      <point x="195" y="302"/>
      <point x="198" y="306"/>
    </contour>
  </outline>
</glyph>
<glyph name="backslash" format="1">
  <advance width="353"/>
  <unicode hex="005C"/>
  <outline>
    <contour>
      <point x="19" y="758" type="curve" smooth="yes"/>
      <point x="92" y="462"/>
      <point x="153" y="145"/>
      <point x="284" y="-132" type="curve" smooth="yes"/>
      <point x="299" y="-165"/>
      <point x="346" y="-141"/>
      <point x="328" y="-109" type="curve" smooth="yes"/>
      <point x="176" y="162"/>
      <point x="172" y="488"/>
      <point x="45" y="768" type="curve" smooth="yes"/>
      <point x="38" y="785"/>
      <point x="14" y="776"/>
    </contour>
  </outline>
</glyph>
<glyph name="bracketright" format="1">
  <advance width="254"/>
  <unicode hex="005D"/>
  <outline>
    <contour>
      <point x="216" y="733" type="curve"/>
      <point x="225" y="747"/>
      <point x="221" y="768"/>
      <point x="199" y="769" type="curve" smooth="yes"/>
      <point x="147" y="771"/>
      <point x="95" y="770"/>
      <point x="42" y="770" type="curve" smooth="yes"/>
      <point x="9" y="770"/>
      <point x="4" y="719"/>
      <point x="37" y="719" type="curve" smooth="yes"/>
      <point x="84" y="718"/>
      <point x="131" y="718"/>
      <point x="178" y="719" type="curve"/>
      <point x="176" y="438"/>
      <point x="174" y="157"/>
      <point x="133" y="-122" type="curve"/>
      <point x="131" y="-121"/>
      <point x="129" y="-120"/>
      <point x="126" y="-120" type="curve" smooth="yes"/>
      <point x="106" y="-117"/>
      <point x="86" y="-116"/>
      <point x="66" y="-113" type="curve" smooth="yes"/>
      <point x="31" y="-109"/>
      <point x="31" y="-166"/>
      <point x="68" y="-162" type="curve" smooth="yes"/>
      <point x="88" y="-160"/>
      <point x="108" y="-159"/>
      <point x="127" y="-156" type="curve" smooth="yes"/>
      <point x="131" y="-155"/>
      <point x="134" y="-154"/>
      <point x="137" y="-152" type="curve"/>
      <point x="146" y="-158"/>
      <point x="163" y="-154"/>
      <point x="166" y="-140" type="curve" smooth="yes"/>
      <point x="228" y="143"/>
      <point x="239" y="444"/>
    </contour>
  </outline>
</glyph>
<glyph name="underscore" format="1">
  <advance width="509"/>
  <unicode hex="005F"/>
  <outline>
    <contour>
      <point x="52" y="-137" type="line" smooth="yes"/>
      <point x="189" y="-120"/>
      <point x="322" y="-153"/>
      <point x="458" y="-149" type="curve" smooth="yes"/>
      <point x="488" y="-148"/>
      <point x="494" y="-104"/>
      <point x="463" y="-102" type="curve" smooth="yes"/>
      <point x="324" y="-92"/>
      <point x="183" y="-70"/>
      <point x="44" y="-90" type="curve" smooth="yes"/>
      <point x="13" y="-94"/>
      <point x="21" y="-141"/>
      <point x="52" y="-137" type="curve" smooth="yes"/>
    </contour>
  </outline>
</glyph>
<glyph name="grave" format="1">
  <advance width="203"/>
  <unicode hex="0060"/>
  <outline>
    <contour>
      <point x="33" y="786" type="line" smooth="yes"/>
      <point x="45" y="755"/>
      <point x="63" y="729"/>
      <point x="84" y="703" type="curve" smooth="yes"/>
      <point x="103" y="679"/>
      <point x="126" y="651"/>
      <point x="156" y="643" type="curve" smooth="yes"/>
      <point x="167" y="639"/>
      <point x="182" y="648"/>
      <point x="178" y="661" type="curve" smooth="yes"/>
      <point x="170" y="690"/>
      <point x="149" y="708"/>
      <point x="130" y="730" type="curve" smooth="yes"/>
      <point x="109" y="753"/>
      <point x="91" y="779"/>
      <point x="78" y="807" type="curve" smooth="yes"/>
      <point x="64" y="836"/>
      <point x="22" y="816"/>
      <point x="33" y="786" type="curve" smooth="yes"/>
    </contour>
  </outline>
</glyph>
<glyph name="a" format="1">
  <advance width="433"/>
  <unicode hex="0061"/>
  <outline>
    <contour>
      <point x="381" y="77" type="curve" smooth="yes"/>
      <point x="297" y="15"/>
      <point x="292" y="179"/>
      <point x="289" y="232" type="curve" smooth="yes"/>
      <point x="285" y="288"/>
      <point x="286" y="344"/>
      <point x="287" y="400" type="curve"/>
      <point x="287" y="402"/>
      <point x="288" y="403"/>
      <point x="288" y="405" type="curve" smooth="yes"/>
      <point x="289" y="417"/>
      <point x="289" y="428"/>
      <point x="287" y="438" type="curve"/>
      <point x="287" y="441"/>
      <point x="287" y="443"/>
      <point x="287" y="446" type="curve" smooth="yes"/>
      <point x="287" y="453"/>
      <point x="284" y="458"/>
      <point x="280" y="462" type="curve"/>
      <point x="256" y="522"/>
      <point x="182" y="552"/>
      <point x="122" y="502" type="curve" smooth="yes"/>
      <point x="48" y="438"/>
      <point x="31" y="299"/>
      <point x="23" y="208" type="curve" smooth="yes"/>
      <point x="18" y="132"/>
      <point x="68" y="-21"/>
      <point x="169" y="1" type="curve" smooth="yes"/>
      <point x="225" y="13"/>
      <point x="255" y="94"/>
      <point x="268" y="142" type="curve"/>
      <point x="287" y="42"/>
      <point x="326" y="-24"/>
      <point x="403" y="51" type="curve" smooth="yes"/>
      <point x="419" y="67"/>
      <point x="399" y="91"/>
    </contour>
    <contour>
      <point x="232" y="132" type="curve" smooth="yes"/>
      <point x="214" y="70"/>
      <point x="156" y="-3"/>
      <point x="100" y="66" type="curve" smooth="yes"/>
      <point x="72" y="101"/>
      <point x="55" y="160"/>
      <point x="57" y="205" type="curve" smooth="yes"/>
      <point x="59" y="266"/>
      <point x="73" y="327"/>
      <point x="92" y="385" type="curve" smooth="yes"/>
      <point x="103" y="418"/>
      <point x="119" y="451"/>
      <point x="143" y="477" type="curve" smooth="yes"/>
      <point x="181" y="516"/>
      <point x="224" y="491"/>
      <point x="249" y="453" type="curve"/>
      <point x="249" y="452"/>
      <point x="248" y="451"/>
      <point x="248" y="449" type="curve" smooth="yes"/>
      <point x="232" y="344"/>
      <point x="260" y="235"/>
    </contour>
  </outline>
</glyph>
<glyph name="c" format="1">
  <advance width="363"/>
  <unicode hex="0063"/>
  <outline>
    <contour>
      <point x="317" y="452" type="line" smooth="yes"/>
      <point x="320" y="545"/>
      <point x="211" y="541"/>
      <point x="153" y="506" type="curve" smooth="yes"/>
      <point x="65" y="452"/>
      <point x="33" y="358"/>
      <point x="33" y="260" type="curve" smooth="yes"/>
      <point x="33" y="164"/>
      <point x="52" y="60"/>
      <point x="143" y="13" type="curve" smooth="yes"/>
      <point x="238" y="-37"/>
      <point x="312" y="45"/>
      <point x="317" y="135" type="curve" smooth="yes"/>
      <point x="318" y="163"/>
      <point x="275" y="167"/>
      <point x="274" y="139" type="curve" smooth="yes"/>
      <point x="271" y="96"/>
      <point x="261" y="55"/>
      <point x="212" y="44" type="curve" smooth="yes"/>
      <point x="172" y="34"/>
      <point x="127" y="67"/>
      <point x="109" y="98" type="curve" smooth="yes"/>
      <point x="79" y="149"/>
      <point x="75" y="219"/>
      <point x="75" y="275" type="curve" smooth="yes"/>
      <point x="75" y="333"/>
      <point x="90" y="379"/>
      <point x="125" y="425" type="curve" smooth="yes"/>
      <point x="145" y="451"/>
      <point x="172" y="470"/>
      <point x="201" y="485" type="curve" smooth="yes"/>
      <point x="245" y="506"/>
      <point x="270" y="467"/>
      <point x="300" y="444" type="curve" smooth="yes"/>
      <point x="306" y="439"/>
      <point x="316" y="444"/>
      <point x="317" y="452" type="curve" smooth="yes"/>
    </contour>
  </outline>
</glyph>
<glyph name="d" format="1">
  <advance width="327"/>
  <unicode hex="0064"/>
  <outline>
    <contour>
      <point x="298" y="766" type="curve" smooth="yes"/>
      <point x="297" y="781"/>
      <point x="271" y="782"/>
      <point x="270" y="767" type="curve" smooth="yes"/>
      <point x="265" y="658"/>
      <point x="264" y="550"/>
      <point x="263" y="441" type="curve"/>
      <point x="237" y="482"/>
      <point x="197" y="507"/>
      <point x="144" y="484" type="curve" smooth="yes"/>
      <point x="62" y="447"/>
      <point x="17" y="345"/>
      <point x="21" y="258" type="curve" smooth="yes"/>
      <point x="24" y="176"/>
      <point x="65" y="65"/>
      <point x="134" y="17" type="curve" smooth="yes"/>
      <point x="208" y="-35"/>
      <point x="249" y="31"/>
      <point x="263" y="99" type="curve"/>
      <point x="263" y="62"/>
      <point x="263" y="25"/>
      <point x="263" y="-11" type="curve" smooth="yes"/>
      <point x="263" y="-38"/>
      <point x="305" y="-34"/>
      <point x="305" y="-7" type="curve" smooth="yes"/>
      <point x="303" y="250"/>
      <point x="310" y="509"/>
    </contour>
    <contour>
      <point x="217" y="122" type="curve" smooth="yes"/>
      <point x="215" y="107"/>
      <point x="208" y="35"/>
      <point x="180" y="41" type="curve" smooth="yes"/>
      <point x="157" y="45"/>
      <point x="138" y="69"/>
      <point x="125" y="87" type="curve" smooth="yes"/>
      <point x="90" y="136"/>
      <point x="60" y="200"/>
      <point x="59" y="261" type="curve" smooth="yes"/>
      <point x="58" y="328"/>
      <point x="83" y="414"/>
      <point x="145" y="448" type="curve" smooth="yes"/>
      <point x="207" y="483"/>
      <point x="242" y="431"/>
      <point x="263" y="379" type="curve"/>
      <point x="263" y="295"/>
      <point x="263" y="212"/>
      <point x="263" y="128" type="curve"/>
      <point x="254" y="146"/>
      <point x="221" y="148"/>
    </contour>
  </outline>
</glyph>
<glyph name="e" format="1">
  <advance width="350"/>
  <unicode hex="0065"/>
  <outline>
    <contour>
      <point x="89" y="261" type="line" smooth="yes"/>
      <point x="209" y="197"/>
      <point x="340" y="242"/>
      <point x="329" y="389" type="curve" smooth="yes"/>
      <point x="320" y="511"/>
      <point x="178" y="581"/>
      <point x="90" y="480" type="curve" smooth="yes"/>
      <point x="0" y="377"/>
      <point x="11" y="167"/>
      <point x="89" y="61" type="curve" smooth="yes"/>
      <point x="164" y="-42"/>
      <point x="338" y="-16"/>
      <point x="308" y="132" type="curve" smooth="yes"/>
      <point x="304" y="152"/>
      <point x="276" y="150"/>
      <point x="273" y="130" type="curve" smooth="yes"/>
      <point x="263" y="74"/>
      <point x="253" y="23"/>
      <point x="184" y="44" type="curve" smooth="yes"/>
      <point x="142" y="57"/>
      <point x="113" y="95"/>
      <point x="96" y="133" type="curve" smooth="yes"/>
      <point x="59" y="215"/>
      <point x="66" y="331"/>
      <point x="97" y="413" type="curve" smooth="yes"/>
      <point x="138" y="523"/>
      <point x="262" y="496"/>
      <point x="286" y="395" type="curve" smooth="yes"/>
      <point x="295" y="356"/>
      <point x="286" y="313"/>
      <point x="257" y="285" type="curve" smooth="yes"/>
      <point x="223" y="252"/>
      <point x="138" y="285"/>
      <point x="97" y="285" type="curve" smooth="yes"/>
      <point x="86" y="285"/>
      <point x="76" y="268"/>
      <point x="89" y="261" type="curve" smooth="yes"/>
    </contour>
  </outline>
</glyph>
<glyph name="h" format="1">
  <advance width="401"/>
  <unicode hex="0068"/>
  <outline>
    <contour>
      <point x="291" y="528" type="curve" smooth="yes"/>
      <point x="216" y="588"/>
      <point x="155" y="551"/>
      <point x="114" y="487" type="curve"/>
      <point x="114" y="489"/>
      <point x="114" y="490"/>
      <point x="114" y="492" type="curve" smooth="yes"/>
      <point x="116" y="569"/>
      <point x="132" y="715"/>
      <point x="59" y="769" type="curve" smooth="yes"/>
      <point x="50" y="776"/>
      <point x="35" y="764"/>
      <point x="41" y="754" type="curve" smooth="yes"/>
      <point x="97" y="651"/>
      <point x="73" y="502"/>
      <point x="68" y="390" type="curve" smooth="yes"/>
      <point x="67" y="381"/>
      <point x="67" y="373"/>
      <point x="66" y="364" type="curve"/>
      <point x="62" y="342"/>
      <point x="59" y="321"/>
      <point x="59" y="303" type="curve" smooth="yes"/>
      <point x="59" y="300"/>
      <point x="60" y="298"/>
      <point x="61" y="295" type="curve"/>
      <point x="56" y="219"/>
      <point x="50" y="143"/>
      <point x="50" y="67" type="curve"/>
      <point x="48" y="64"/>
      <point x="46" y="59"/>
      <point x="47" y="54" type="curve"/>
      <point x="49" y="46"/>
      <point x="51" y="37"/>
      <point x="51" y="28" type="curve" smooth="yes"/>
      <point x="51" y="26"/>
      <point x="51" y="24"/>
      <point x="51" y="21" type="curve" smooth="yes"/>
      <point x="53" y="-8"/>
      <point x="97" y="1"/>
      <point x="96" y="29" type="curve" smooth="yes"/>
      <point x="91" y="144"/>
      <point x="102" y="261"/>
      <point x="109" y="376" type="curve"/>
      <point x="118" y="404"/>
      <point x="128" y="431"/>
      <point x="142" y="457" type="curve" smooth="yes"/>
      <point x="202" y="572"/>
      <point x="300" y="489"/>
      <point x="313" y="394" type="curve" smooth="yes"/>
      <point x="330" y="266"/>
      <point x="280" y="139"/>
      <point x="286" y="11" type="curve" smooth="yes"/>
      <point x="287" y="-17"/>
      <point x="331" y="-10"/>
      <point x="329" y="19" type="curve" smooth="yes"/>
      <point x="319" y="165"/>
      <point x="431" y="416"/>
    </contour>
  </outline>
</glyph>
<glyph name="k" format="1">
  <advance width="342"/>
  <unicode hex="006B"/>
  <outline>
    <contour>
      <point x="307" y="506" type="curve" smooth="yes"/>
      <point x="310" y="519"/>
      <point x="295" y="527"/>
      <point x="287" y="517" type="curve" smooth="yes"/>
      <point x="247" y="471"/>
      <point x="219" y="414"/>
      <point x="183" y="365" type="curve" smooth="yes"/>
      <point x="168" y="345"/>
      <point x="153" y="325"/>
      <point x="138" y="305" type="curve"/>
      <point x="137" y="304"/>
      <point x="136" y="303"/>
      <point x="136" y="303" type="curve"/>
      <point x="118" y="280"/>
      <point x="99" y="258"/>
      <point x="79" y="237" type="curve"/>
      <point x="75" y="409"/>
      <point x="56" y="582"/>
      <point x="99" y="750" type="curve" smooth="yes"/>
      <point x="104" y="772"/>
      <point x="72" y="785"/>
      <point x="65" y="762" type="curve" smooth="yes"/>
      <point x="13" y="578"/>
      <point x="34" y="385"/>
      <point x="36" y="194" type="curve"/>
      <point x="25" y="184"/>
      <point x="28" y="172"/>
      <point x="36" y="164" type="curve"/>
      <point x="36" y="116"/>
      <point x="34" y="68"/>
      <point x="29" y="20" type="curve" smooth="yes"/>
      <point x="26" y="-7"/>
      <point x="67" y="-10"/>
      <point x="71" y="16" type="curve" smooth="yes"/>
      <point x="78" y="71"/>
      <point x="80" y="126"/>
      <point x="80" y="182" type="curve"/>
      <point x="100" y="205"/>
      <point x="120" y="228"/>
      <point x="140" y="251" type="curve"/>
      <point x="148" y="216"/>
      <point x="163" y="181"/>
      <point x="175" y="149" type="curve" smooth="yes"/>
      <point x="191" y="107"/>
      <point x="207" y="33"/>
      <point x="245" y="6" type="curve" smooth="yes"/>
      <point x="253" y="0"/>
      <point x="267" y="6"/>
      <point x="268" y="17" type="curve" smooth="yes"/>
      <point x="269" y="56"/>
      <point x="238" y="99"/>
      <point x="223" y="134" type="curve" smooth="yes"/>
      <point x="203" y="182"/>
      <point x="190" y="236"/>
      <point x="167" y="283" type="curve"/>
      <point x="178" y="297"/>
      <point x="189" y="311"/>
      <point x="200" y="326" type="curve" smooth="yes"/>
      <point x="240" y="379"/>
      <point x="290" y="441"/>
    </contour>
  </outline>
</glyph>
<glyph name="l" format="1">
  <advance width="119"/>
  <unicode hex="006C"/>
  <outline>
    <contour>
      <point x="54" y="759" type="line" smooth="yes"/>
      <point x="57" y="511"/>
      <point x="-1" y="262"/>
      <point x="47" y="17" type="curve" smooth="yes"/>
      <point x="52" y="-11"/>
      <point x="95" y="-4"/>
      <point x="90" y="24" type="curve" smooth="yes"/>
      <point x="45" y="269"/>
      <point x="110" y="514"/>
      <point x="82" y="760" type="curve" smooth="yes"/>
      <point x="80" y="775"/>
      <point x="54" y="774"/>
      <point x="54" y="759" type="curve" smooth="yes"/>
    </contour>
  </outline>
</glyph>
<glyph name="m" format="1">
  <advance width="583"/>
  <unicode hex="006D"/>
  <outline>
    <contour>
      <point x="381" y="533" type="curve" smooth="yes"/>
      <point x="328" y="527"/>
      <point x="295" y="495"/>
      <point x="275" y="450" type="curve"/>
      <point x="272" y="455"/>
      <point x="269" y="461"/>
      <point x="267" y="466" type="curve" smooth="yes"/>
      <point x="215" y="566"/>
      <point x="139" y="529"/>
      <point x="91" y="463" type="curve"/>
      <point x="86" y="478"/>
      <point x="78" y="491"/>
      <point x="66" y="499" type="curve" smooth="yes"/>
      <point x="57" y="505"/>
      <point x="48" y="499"/>
      <point x="46" y="490" type="curve" smooth="yes"/>
      <point x="41" y="464"/>
      <point x="53" y="434"/>
      <point x="56" y="407" type="curve" smooth="yes"/>
      <point x="56" y="404"/>
      <point x="57" y="402"/>
      <point x="57" y="399" type="curve"/>
      <point x="50" y="380"/>
      <point x="46" y="362"/>
      <point x="45" y="345" type="curve" smooth="yes"/>
      <point x="45" y="337"/>
      <point x="52" y="332"/>
      <point x="59" y="331" type="curve"/>
      <point x="58" y="305"/>
      <point x="56" y="278"/>
      <point x="55" y="252" type="curve" smooth="yes"/>
      <point x="50" y="174"/>
      <point x="23" y="88"/>
      <point x="30" y="11" type="curve" smooth="yes"/>
      <point x="32" y="-9"/>
      <point x="58" y="-7"/>
      <point x="65" y="7" type="curve" smooth="yes"/>
      <point x="103" y="88"/>
      <point x="96" y="210"/>
      <point x="99" y="297" type="curve" smooth="yes"/>
      <point x="100" y="326"/>
      <point x="105" y="376"/>
      <point x="100" y="419" type="curve"/>
      <point x="127" y="476"/>
      <point x="170" y="523"/>
      <point x="231" y="459" type="curve" smooth="yes"/>
      <point x="246" y="444"/>
      <point x="253" y="420"/>
      <point x="257" y="394" type="curve"/>
      <point x="228" y="268"/>
      <point x="255" y="91"/>
      <point x="256" y="16" type="curve" smooth="yes"/>
      <point x="257" y="-11"/>
      <point x="298" y="-15"/>
      <point x="298" y="12" type="curve" smooth="yes"/>
      <point x="300" y="124"/>
      <point x="322" y="258"/>
      <point x="298" y="374" type="curve"/>
      <point x="308" y="411"/>
      <point x="324" y="444"/>
      <point x="350" y="470" type="curve" smooth="yes"/>
      <point x="456" y="576"/>
      <point x="491" y="363"/>
      <point x="495" y="304" type="curve" smooth="yes"/>
      <point x="502" y="218"/>
      <point x="495" y="132"/>
      <point x="494" y="47" type="curve" smooth="yes"/>
      <point x="494" y="17"/>
      <point x="540" y="13"/>
      <point x="540" y="42" type="curve" smooth="yes"/>
      <point x="541" y="171"/>
      <point x="603" y="558"/>
    </contour>
  </outline>
</glyph>
<glyph name="o" format="1">
  <advance width="406"/>
  <unicode hex="006F"/>
  <outline>
    <contour>
      <point x="368" y="381" type="curve" smooth="yes"/>
      <point x="344" y="495"/>
      <point x="234" y="574"/>
      <point x="136" y="499" type="curve"/>
      <point x="-68" y="407"/>
      <point x="30" y="-130"/>
      <point x="280" y="26" type="curve" smooth="yes"/>
      <point x="389" y="95"/>
      <point x="391" y="271"/>
    </contour>
    <contour>
      <point x="269" y="65" type="curve" smooth="yes"/>
      <point x="167" y="-35"/>
      <point x="91" y="112"/>
      <point x="75" y="196" type="curve" smooth="yes"/>
      <point x="60" y="276"/>
      <point x="65" y="386"/>
      <point x="125" y="448" type="curve"/>
      <point x="129" y="447"/>
      <point x="133" y="447"/>
      <point x="138" y="449" type="curve" smooth="yes"/>
      <point x="183" y="470"/>
      <point x="223" y="500"/>
      <point x="270" y="466" type="curve" smooth="yes"/>
      <point x="307" y="440"/>
      <point x="320" y="385"/>
      <point x="328" y="344" type="curve" smooth="yes"/>
      <point x="347" y="257"/>
      <point x="337" y="130"/>
    </contour>
  </outline>
</glyph>
<glyph name="p" format="1">
  <advance width="385"/>
  <unicode hex="0070"/>
  <outline>
    <contour>
      <point x="358" y="255" type="curve" smooth="yes"/>
      <point x="351" y="347"/>
      <point x="316" y="445"/>
      <point x="240" y="503" type="curve" smooth="yes"/>
      <point x="175" y="554"/>
      <point x="108" y="518"/>
      <point x="63" y="465" type="curve"/>
      <point x="62" y="475"/>
      <point x="62" y="484"/>
      <point x="61" y="494" type="curve" smooth="yes"/>
      <point x="60" y="506"/>
      <point x="41" y="505"/>
      <point x="40" y="493" type="curve" smooth="yes"/>
      <point x="40" y="474"/>
      <point x="40" y="455"/>
      <point x="40" y="435" type="curve"/>
      <point x="37" y="432"/>
      <point x="35" y="428"/>
      <point x="33" y="424" type="curve" smooth="yes"/>
      <point x="26" y="412"/>
      <point x="31" y="400"/>
      <point x="41" y="393" type="curve"/>
      <point x="46" y="195"/>
      <point x="77" y="-5"/>
      <point x="31" y="-200" type="curve" smooth="yes"/>
      <point x="24" y="-229"/>
      <point x="68" y="-238"/>
      <point x="71" y="-209" type="curve" smooth="yes"/>
      <point x="82" y="-122"/>
      <point x="85" y="-36"/>
      <point x="84" y="50" type="curve"/>
      <point x="119" y="-7"/>
      <point x="192" y="-39"/>
      <point x="253" y="1" type="curve" smooth="yes"/>
      <point x="333" y="53"/>
      <point x="364" y="164"/>
    </contour>
    <contour>
      <point x="274" y="75" type="curve" smooth="yes"/>
      <point x="253" y="42"/>
      <point x="218" y="16"/>
      <point x="177" y="28" type="curve" smooth="yes"/>
      <point x="142" y="39"/>
      <point x="121" y="82"/>
      <point x="95" y="105" type="curve" smooth="yes"/>
      <point x="91" y="108"/>
      <point x="87" y="108"/>
      <point x="83" y="108" type="curve"/>
      <point x="80" y="204"/>
      <point x="73" y="300"/>
      <point x="67" y="397" type="curve"/>
      <point x="68" y="398"/>
      <point x="68" y="399"/>
      <point x="69" y="399" type="curve" smooth="yes"/>
      <point x="106" y="460"/>
      <point x="159" y="518"/>
      <point x="230" y="466" type="curve" smooth="yes"/>
      <point x="285" y="425"/>
      <point x="309" y="344"/>
      <point x="318" y="280" type="curve" smooth="yes"/>
      <point x="329" y="210"/>
      <point x="312" y="134"/>
    </contour>
  </outline>
</glyph>
<glyph name="q" format="1">
  <advance width="337"/>
  <unicode hex="0071"/>
  <outline>
    <contour>
      <point x="283" y="-141" type="curve" smooth="yes"/>
      <point x="279" y="-143"/>
      <point x="274" y="-146"/>
      <point x="270" y="-149" type="curve"/>
      <point x="273" y="66"/>
      <point x="292" y="284"/>
      <point x="274" y="498" type="curve" smooth="yes"/>
      <point x="273" y="514"/>
      <point x="245" y="513"/>
      <point x="245" y="497" type="curve" smooth="yes"/>
      <point x="245" y="495"/>
      <point x="245" y="493"/>
      <point x="245" y="491" type="curve"/>
      <point x="93" y="620"/>
      <point x="24" y="374"/>
      <point x="28" y="245" type="curve" smooth="yes"/>
      <point x="31" y="165"/>
      <point x="81" y="85"/>
      <point x="148" y="43" type="curve" smooth="yes"/>
      <point x="187" y="18"/>
      <point x="217" y="31"/>
      <point x="233" y="59" type="curve"/>
      <point x="231" y="-19"/>
      <point x="229" y="-98"/>
      <point x="228" y="-176" type="curve" smooth="yes"/>
      <point x="228" y="-181"/>
      <point x="230" y="-185"/>
      <point x="232" y="-188" type="curve"/>
      <point x="228" y="-193"/>
      <point x="225" y="-198"/>
      <point x="222" y="-204" type="curve" smooth="yes"/>
      <point x="213" y="-221"/>
      <point x="243" y="-237"/>
      <point x="253" y="-220" type="curve" smooth="yes"/>
      <point x="264" y="-200"/>
      <point x="279" y="-185"/>
      <point x="299" y="-173" type="curve" smooth="yes"/>
      <point x="318" y="-162"/>
      <point x="305" y="-131"/>
    </contour>
    <contour>
      <point x="214" y="139" type="curve" smooth="yes"/>
      <point x="209" y="114"/>
      <point x="213" y="58"/>
      <point x="174" y="73" type="curve" smooth="yes"/>
      <point x="149" y="81"/>
      <point x="129" y="106"/>
      <point x="113" y="125" type="curve" smooth="yes"/>
      <point x="75" y="170"/>
      <point x="62" y="220"/>
      <point x="63" y="278" type="curve" smooth="yes"/>
      <point x="64" y="376"/>
      <point x="112" y="578"/>
      <point x="236" y="453" type="curve" smooth="yes"/>
      <point x="239" y="451"/>
      <point x="241" y="449"/>
      <point x="244" y="448" type="curve"/>
      <point x="243" y="348"/>
      <point x="239" y="248"/>
      <point x="236" y="148" type="curve"/>
      <point x="229" y="154"/>
      <point x="217" y="150"/>
    </contour>
  </outline>
</glyph>
<glyph name="r" format="1">
  <advance width="306"/>
  <unicode hex="0072"/>
  <outline>
    <contour>
      <point x="266" y="509" type="curve" smooth="yes"/>
      <point x="189" y="552"/>
      <point x="140" y="522"/>
      <point x="109" y="459" type="curve"/>
      <point x="95" y="506"/>
      <point x="71" y="547"/>
      <point x="32" y="498" type="curve" smooth="yes"/>
      <point x="23" y="486"/>
      <point x="38" y="472"/>
      <point x="50" y="477" type="curve" smooth="yes"/>
      <point x="70" y="486"/>
      <point x="79" y="436"/>
      <point x="82" y="382" type="curve"/>
      <point x="52" y="253"/>
      <point x="61" y="77"/>
      <point x="74" y="17" type="curve" smooth="yes"/>
      <point x="78" y="-8"/>
      <point x="118" y="-8"/>
      <point x="119" y="18" type="curve" smooth="yes"/>
      <point x="119" y="134"/>
      <point x="129" y="249"/>
      <point x="124" y="364" type="curve"/>
      <point x="142" y="443"/>
      <point x="178" y="496"/>
      <point x="244" y="467" type="curve" smooth="yes"/>
      <point x="269" y="456"/>
      <point x="290" y="496"/>
    </contour>
  </outline>
</glyph>
<glyph name="s" format="1">
  <advance width="297"/>
  <unicode hex="0073"/>
  <outline>
    <contour>
      <point x="261" y="457" type="line" smooth="yes"/>
      <point x="218" y="583"/>
      <point x="52" y="520"/>
      <point x="31" y="415" type="curve" smooth="yes"/>
      <point x="18" y="350"/>
      <point x="66" y="299"/>
      <point x="112" y="262" type="curve" smooth="yes"/>
      <point x="145" y="236"/>
      <point x="179" y="213"/>
      <point x="206" y="179" type="curve" smooth="yes"/>
      <point x="275" y="94"/>
      <point x="147" y="-12"/>
      <point x="74" y="71" type="curve" smooth="yes"/>
      <point x="54" y="93"/>
      <point x="19" y="63"/>
      <point x="39" y="41" type="curve" smooth="yes"/>
      <point x="126" y="-57"/>
      <point x="314" y="25"/>
      <point x="265" y="160" type="curve" smooth="yes"/>
      <point x="241" y="229"/>
      <point x="178" y="265"/>
      <point x="124" y="308" type="curve" smooth="yes"/>
      <point x="6" y="402"/>
      <point x="127" y="551"/>
      <point x="240" y="444" type="curve" smooth="yes"/>
      <point x="250" y="434"/>
      <point x="266" y="444"/>
      <point x="261" y="457" type="curve" smooth="yes"/>
    </contour>
  </outline>
</glyph>
<glyph name="t" format="1">
  <advance width="302"/>
  <unicode hex="0074"/>
  <outline>
    <contour>
      <point x="277" y="156" type="curve" smooth="yes"/>
      <point x="271" y="168"/>
      <point x="248" y="166"/>
      <point x="251" y="150" type="curve" smooth="yes"/>
      <point x="262" y="95"/>
      <point x="169" y="-4"/>
      <point x="161" y="95" type="curve" smooth="yes"/>
      <point x="159" y="111"/>
      <point x="158" y="127"/>
      <point x="158" y="144" type="curve" smooth="yes"/>
      <point x="157" y="182"/>
      <point x="157" y="220"/>
      <point x="155" y="259" type="curve" smooth="yes"/>
      <point x="150" y="347"/>
      <point x="147" y="434"/>
      <point x="144" y="522" type="curve"/>
      <point x="176" y="525"/>
      <point x="208" y="525"/>
      <point x="240" y="520" type="curve" smooth="yes"/>
      <point x="266" y="517"/>
      <point x="274" y="556"/>
      <point x="248" y="560" type="curve" smooth="yes"/>
      <point x="217" y="565"/>
      <point x="180" y="568"/>
      <point x="142" y="566" type="curve"/>
      <point x="141" y="630"/>
      <point x="139" y="693"/>
      <point x="139" y="757" type="curve" smooth="yes"/>
      <point x="139" y="781"/>
      <point x="103" y="777"/>
      <point x="103" y="754" type="curve" smooth="yes"/>
      <point x="103" y="690"/>
      <point x="106" y="626"/>
      <point x="110" y="562" type="curve"/>
      <point x="79" y="557"/>
      <point x="51" y="549"/>
      <point x="29" y="534" type="curve" smooth="yes"/>
      <point x="16" y="524"/>
      <point x="24" y="501"/>
      <point x="41" y="503" type="curve" smooth="yes"/>
      <point x="65" y="506"/>
      <point x="88" y="513"/>
      <point x="112" y="518" type="curve"/>
      <point x="118" y="412"/>
      <point x="126" y="306"/>
      <point x="125" y="201" type="curve" smooth="yes"/>
      <point x="125" y="150"/>
      <point x="114" y="65"/>
      <point x="148" y="21" type="curve" smooth="yes"/>
      <point x="216" y="-67"/>
      <point x="315" y="78"/>
    </contour>
  </outline>
</glyph>
<glyph name="u" format="1">
  <advance width="377"/>
  <unicode hex="0075"/>
  <outline>
    <contour>
      <point x="338" y="34" type="curve" smooth="yes"/>
      <point x="295" y="63"/>
      <point x="282" y="119"/>
      <point x="278" y="170" type="curve"/>
      <point x="298" y="272"/>
      <point x="328" y="426"/>
      <point x="298" y="528" type="curve" smooth="yes"/>
      <point x="294" y="543"/>
      <point x="269" y="550"/>
      <point x="264" y="531" type="curve" smooth="yes"/>
      <point x="248" y="478"/>
      <point x="264" y="341"/>
      <point x="257" y="226" type="curve"/>
      <point x="248" y="227"/>
      <point x="239" y="222"/>
      <point x="239" y="210" type="curve" smooth="yes"/>
      <point x="239" y="184"/>
      <point x="240" y="157"/>
      <point x="243" y="130" type="curve"/>
      <point x="229" y="77"/>
      <point x="201" y="41"/>
      <point x="150" y="42" type="curve" smooth="yes"/>
      <point x="22" y="46"/>
      <point x="75" y="433"/>
      <point x="69" y="516" type="curve" smooth="yes"/>
      <point x="68" y="533"/>
      <point x="41" y="531"/>
      <point x="40" y="515" type="curve" smooth="yes"/>
      <point x="28" y="397"/>
      <point x="-37" y="22"/>
      <point x="146" y="-1" type="curve" smooth="yes"/>
      <point x="202" y="-8"/>
      <point x="235" y="34"/>
      <point x="254" y="82" type="curve"/>
      <point x="265" y="49"/>
      <point x="283" y="19"/>
      <point x="313" y="-1" type="curve" smooth="yes"/>
      <point x="336" y="-17"/>
      <point x="361" y="18"/>
    </contour>
  </outline>
</glyph>
<glyph name="v" format="1">
  <advance width="394"/>
  <unicode hex="0076"/>
  <outline>
    <contour>
      <point x="326" y="514" type="curve" smooth="yes"/>
      <point x="285" y="366"/>
      <point x="253" y="211"/>
      <point x="183" y="73" type="curve"/>
      <point x="133" y="217"/>
      <point x="133" y="374"/>
      <point x="70" y="514" type="curve" smooth="yes"/>
      <point x="60" y="537"/>
      <point x="28" y="520"/>
      <point x="36" y="497" type="curve" smooth="yes"/>
      <point x="89" y="338"/>
      <point x="93" y="167"/>
      <point x="159" y="11" type="curve" smooth="yes"/>
      <point x="166" y="-4"/>
      <point x="189" y="-6"/>
      <point x="198" y="8" type="curve" smooth="yes"/>
      <point x="286" y="159"/>
      <point x="323" y="330"/>
      <point x="370" y="497" type="curve" smooth="yes"/>
      <point x="378" y="526"/>
      <point x="334" y="543"/>
    </contour>
  </outline>
</glyph>
<glyph name="y" format="1">
  <advance width="434"/>
  <unicode hex="0079"/>
  <outline>
    <contour>
      <point x="380" y="536" type="curve" smooth="yes"/>
      <point x="336" y="412"/>
      <point x="321" y="277"/>
      <point x="285" y="150" type="curve" smooth="yes"/>
      <point x="274" y="111"/>
      <point x="261" y="73"/>
      <point x="247" y="35" type="curve"/>
      <point x="246" y="40"/>
      <point x="244" y="46"/>
      <point x="241" y="51" type="curve" smooth="yes"/>
      <point x="159" y="192"/>
      <point x="121" y="354"/>
      <point x="89" y="514" type="curve" smooth="yes"/>
      <point x="85" y="538"/>
      <point x="49" y="532"/>
      <point x="52" y="507" type="curve" smooth="yes"/>
      <point x="72" y="342"/>
      <point x="154" y="153"/>
      <point x="219" y="0" type="curve" smooth="yes"/>
      <point x="221" y="-6"/>
      <point x="225" y="-9"/>
      <point x="229" y="-9" type="curve"/>
      <point x="219" y="-30"/>
      <point x="209" y="-51"/>
      <point x="198" y="-71" type="curve" smooth="yes"/>
      <point x="180" y="-105"/>
      <point x="156" y="-135"/>
      <point x="127" y="-160" type="curve" smooth="yes"/>
      <point x="67" y="-213"/>
      <point x="88" y="-137"/>
      <point x="83" y="-94" type="curve" smooth="yes"/>
      <point x="79" y="-64"/>
      <point x="36" y="-73"/>
      <point x="37" y="-102" type="curve" smooth="yes"/>
      <point x="39" y="-138"/>
      <point x="45" y="-173"/>
      <point x="48" y="-209" type="curve" smooth="yes"/>
      <point x="50" y="-221"/>
      <point x="63" y="-229"/>
      <point x="74" y="-227" type="curve" smooth="yes"/>
      <point x="201" y="-205"/>
      <point x="255" y="-62"/>
      <point x="294" y="44" type="curve" smooth="yes"/>
      <point x="350" y="196"/>
      <point x="392" y="369"/>
      <point x="403" y="531" type="curve" smooth="yes"/>
      <point x="404" y="544"/>
      <point x="384" y="549"/>
    </contour>
  </outline>
</glyph>
<glyph name="z" format="1">
  <advance width="401"/>
  <unicode hex="007A"/>
  <outline>
    <contour>
      <point x="350" y="36" type="curve" smooth="yes"/>
      <point x="291" y="37"/>
      <point x="231" y="36"/>
      <point x="171" y="35" type="curve"/>
      <point x="134" y="23"/>
      <point x="120" y="37"/>
      <point x="129" y="77" type="curve"/>
      <point x="137" y="109"/>
      <point x="150" y="140"/>
      <point x="163" y="171" type="curve" smooth="yes"/>
      <point x="207" y="283"/>
      <point x="266" y="388"/>
      <point x="302" y="504" type="curve" smooth="yes"/>
      <point x="305" y="514"/>
      <point x="299" y="527"/>
      <point x="287" y="527" type="curve" smooth="yes"/>
      <point x="207" y="527"/>
      <point x="126" y="530"/>
      <point x="46" y="530" type="curve" smooth="yes"/>
      <point x="40" y="530"/>
      <point x="35" y="525"/>
      <point x="36" y="519" type="curve" smooth="yes"/>
      <point x="44" y="467"/>
      <point x="198" y="485"/>
      <point x="263" y="491" type="curve"/>
      <point x="217" y="328"/>
      <point x="115" y="187"/>
      <point x="80" y="20" type="curve" smooth="yes"/>
      <point x="78" y="11"/>
      <point x="87" y="1"/>
      <point x="96" y="1" type="curve" smooth="yes"/>
      <point x="179" y="1"/>
      <point x="263" y="-1"/>
      <point x="347" y="0" type="curve" smooth="yes"/>
      <point x="370" y="0"/>
      <point x="374" y="36"/>
    </contour>
  </outline>
</glyph>
<glyph name="braceleft" format="1">
  <advance width="267"/>
  <unicode hex="007B"/>
  <outline>
    <contour>
      <point x="225" y="776" type="line" smooth="yes"/>
      <point x="27" y="775"/>
      <point x="144" y="453"/>
      <point x="34" y="359" type="curve" smooth="yes"/>
      <point x="24" y="351"/>
      <point x="23" y="337"/>
      <point x="31" y="327" type="curve" smooth="yes"/>
      <point x="154" y="183"/>
      <point x="-6" y="-45"/>
      <point x="175" y="-158" type="curve" smooth="yes"/>
      <point x="202" y="-175"/>
      <point x="229" y="-135"/>
      <point x="203" y="-119" type="curve" smooth="yes"/>
      <point x="90" y="-47"/>
      <point x="128" y="99"/>
      <point x="125" y="208" type="curve" smooth="yes"/>
      <point x="124" y="212"/>
      <point x="90" y="348"/>
      <point x="84" y="343" type="curve"/>
      <point x="191" y="435"/>
      <point x="63" y="709"/>
      <point x="226" y="752" type="curve" smooth="yes"/>
      <point x="239" y="755"/>
      <point x="240" y="776"/>
      <point x="225" y="776" type="curve" smooth="yes"/>
    </contour>
  </outline>
</glyph>
<glyph name="bar" format="1">
  <advance width="122"/>
  <unicode hex="007C"/>
  <outline>
    <contour>
      <point x="58" y="765" type="curve" smooth="yes"/>
      <point x="38" y="461"/>
      <point x="0" y="141"/>
      <point x="41" y="-163" type="curve" smooth="yes"/>
      <point x="45" y="-199"/>
      <point x="97" y="-190"/>
      <point x="90" y="-154" type="curve" smooth="yes"/>
      <point x="27" y="150"/>
      <point x="122" y="462"/>
      <point x="85" y="767" type="curve" smooth="yes"/>
      <point x="84" y="785"/>
      <point x="58" y="784"/>
    </contour>
  </outline>
</glyph>
<glyph name="braceright" format="1">
  <advance width="252"/>
  <unicode hex="007D"/>
  <outline>
    <contour>
      <point x="28" y="776" type="line" smooth="yes"/>
      <point x="226" y="775"/>
      <point x="110" y="453"/>
      <point x="220" y="359" type="curve" smooth="yes"/>
      <point x="229" y="351"/>
      <point x="231" y="337"/>
      <point x="223" y="327" type="curve" smooth="yes"/>
      <point x="100" y="183"/>
      <point x="260" y="-45"/>
      <point x="79" y="-158" type="curve" smooth="yes"/>
      <point x="52" y="-175"/>
      <point x="24" y="-135"/>
      <point x="51" y="-119" type="curve" smooth="yes"/>
      <point x="164" y="-47"/>
      <point x="126" y="99"/>
      <point x="129" y="208" type="curve" smooth="yes"/>
      <point x="129" y="212"/>
      <point x="164" y="348"/>
      <point x="169" y="343" type="curve"/>
      <point x="63" y="435"/>
      <point x="191" y="709"/>
      <point x="28" y="752" type="curve" smooth="yes"/>
      <point x="15" y="755"/>
      <point x="14" y="776"/>
      <point x="28" y="776" type="curve" smooth="yes"/>
    </contour>
  </outline>
</glyph>
<glyph name="asciitilde" format="1">
  <advance width="435"/>
  <unicode hex="007E"/>
  <outline>
    <contour>
      <point x="90" y="353" type="line" smooth="yes"/>
      <point x="113" y="375"/>
      <point x="126" y="380"/>
      <point x="167" y="366" type="curve" smooth="yes"/>
      <point x="198" y="355"/>
      <point x="228" y="343"/>
      <point x="261" y="335" type="curve" smooth="yes"/>
      <point x="333" y="317"/>
      <point x="418" y="351"/>
      <point x="410" y="400" type="curve" smooth="yes"/>
      <point x="408" y="412"/>
      <point x="388" y="419"/>
      <point x="373" y="414" type="curve" smooth="yes"/>
      <point x="341" y="403"/>
      <point x="327" y="369"/>
      <point x="282" y="376" type="curve" smooth="yes"/>
      <point x="249" y="381"/>
      <point x="219" y="397"/>
      <point x="189" y="407" type="curve" smooth="yes"/>
      <point x="121" y="431"/>
      <point x="54" y="421"/>
      <point x="29" y="376" type="curve" smooth="yes"/>
      <point x="15" y="351"/>
      <point x="67" y="331"/>
      <point x="90" y="353" type="curve" smooth="yes"/>
    </contour>
  </outline>
</glyph>
<glyph name="sterling" format="1">
  <advance width="480"/>
  <unicode hex="00A3"/>
  <outline>
    <contour>
      <point x="413" y="146" type="curve" smooth="yes"/>
      <point x="390" y="26"/>
      <point x="311" y="39"/>
      <point x="227" y="70" type="curve"/>
      <point x="251" y="123"/>
      <point x="250" y="196"/>
      <point x="238" y="270" type="curve" smooth="yes"/>
      <point x="237" y="281"/>
      <point x="234" y="292"/>
      <point x="232" y="304" type="curve"/>
      <point x="259" y="304"/>
      <point x="285" y="306"/>
      <point x="311" y="312" type="curve" smooth="yes"/>
      <point x="339" y="319"/>
      <point x="332" y="362"/>
      <point x="303" y="357" type="curve" smooth="yes"/>
      <point x="276" y="353"/>
      <point x="249" y="352"/>
      <point x="223" y="353" type="curve"/>
      <point x="208" y="422"/>
      <point x="190" y="491"/>
      <point x="178" y="562" type="curve" smooth="yes"/>
      <point x="172" y="599"/>
      <point x="166" y="641"/>
      <point x="179" y="678" type="curve" smooth="yes"/>
      <point x="191" y="711"/>
      <point x="389" y="719"/>
      <point x="275" y="565" type="curve" smooth="yes"/>
      <point x="265" y="551"/>
      <point x="286" y="536"/>
      <point x="297" y="550" type="curve" smooth="yes"/>
      <point x="332" y="594"/>
      <point x="341" y="632"/>
      <point x="338" y="688" type="curve" smooth="yes"/>
      <point x="337" y="696"/>
      <point x="331" y="701"/>
      <point x="325" y="704" type="curve" smooth="yes"/>
      <point x="69" y="829"/>
      <point x="125" y="550"/>
      <point x="170" y="356" type="curve"/>
      <point x="165" y="356"/>
      <point x="160" y="356"/>
      <point x="156" y="357" type="curve" smooth="yes"/>
      <point x="112" y="360"/>
      <point x="64" y="370"/>
      <point x="26" y="347" type="curve" smooth="yes"/>
      <point x="16" y="341"/>
      <point x="15" y="327"/>
      <point x="27" y="322" type="curve" smooth="yes"/>
      <point x="70" y="305"/>
      <point x="124" y="311"/>
      <point x="171" y="307" type="curve" smooth="yes"/>
      <point x="174" y="306"/>
      <point x="178" y="306"/>
      <point x="182" y="306" type="curve"/>
      <point x="189" y="274"/>
      <point x="195" y="246"/>
      <point x="198" y="226" type="curve" smooth="yes"/>
      <point x="204" y="183"/>
      <point x="210" y="126"/>
      <point x="191" y="84" type="curve"/>
      <point x="159" y="96"/>
      <point x="128" y="108"/>
      <point x="99" y="115" type="curve" smooth="yes"/>
      <point x="17" y="132"/>
      <point x="18" y="65"/>
      <point x="42" y="7" type="curve" smooth="yes"/>
      <point x="45" y="-1"/>
      <point x="53" y="-6"/>
      <point x="61" y="-6" type="curve" smooth="yes"/>
      <point x="126" y="-13"/>
      <point x="170" y="2"/>
      <point x="199" y="30" type="curve"/>
      <point x="312" y="-9"/>
      <point x="461" y="-24"/>
      <point x="456" y="142" type="curve" smooth="yes"/>
      <point x="455" y="169"/>
      <point x="418" y="173"/>
    </contour>
    <contour>
      <point x="85" y="36" type="curve" smooth="yes"/>
      <point x="84" y="36"/>
      <point x="62" y="71"/>
      <point x="73" y="71" type="curve" smooth="yes"/>
      <point x="99" y="72"/>
      <point x="130" y="58"/>
      <point x="157" y="46" type="curve"/>
      <point x="154" y="44"/>
      <point x="152" y="42"/>
      <point x="149" y="41" type="curve" smooth="yes"/>
      <point x="129" y="32"/>
      <point x="105" y="35"/>
    </contour>
  </outline>
</glyph>
<glyph name="currency" format="1">
  <advance width="612"/>
  <unicode hex="00A4"/>
  <outline>
    <contour>
      <point x="535" y="473" type="curve" smooth="yes"/>
      <point x="553" y="497"/>
      <point x="569" y="521"/>
      <point x="579" y="549" type="curve" smooth="yes"/>
      <point x="589" y="576"/>
      <point x="552" y="595"/>
      <point x="540" y="568" type="curve" smooth="yes"/>
      <point x="529" y="543"/>
      <point x="513" y="519"/>
      <point x="495" y="498" type="curve" smooth="yes"/>
      <point x="480" y="480"/>
      <point x="464" y="465"/>
      <point x="456" y="442" type="curve"/>
      <point x="451" y="448"/>
      <point x="446" y="453"/>
      <point x="440" y="458" type="curve" smooth="yes"/>
      <point x="406" y="487"/>
      <point x="360" y="502"/>
      <point x="306" y="502" type="curve" smooth="yes"/>
      <point x="266" y="502"/>
      <point x="222" y="493"/>
      <point x="174" y="477" type="curve" smooth="yes"/>
      <point x="167" y="474"/>
      <point x="166" y="471"/>
      <point x="165" y="468" type="curve" smooth="yes"/>
      <point x="165" y="465"/>
      <point x="166" y="463"/>
      <point x="169" y="460" type="curve"/>
      <point x="163" y="455"/>
      <point x="158" y="449"/>
      <point x="153" y="443" type="curve"/>
      <point x="144" y="460"/>
      <point x="131" y="473"/>
      <point x="119" y="488" type="curve" smooth="yes"/>
      <point x="100" y="509"/>
      <point x="85" y="533"/>
      <point x="74" y="558" type="curve" smooth="yes"/>
      <point x="62" y="585"/>
      <point x="25" y="566"/>
      <point x="35" y="539" type="curve" smooth="yes"/>
      <point x="45" y="511"/>
      <point x="61" y="487"/>
      <point x="79" y="463" type="curve" smooth="yes"/>
      <point x="94" y="444"/>
      <point x="111" y="421"/>
      <point x="134" y="411" type="curve"/>
      <point x="126" y="395"/>
      <point x="121" y="376"/>
      <point x="118" y="356" type="curve" smooth="yes"/>
      <point x="112" y="313"/>
      <point x="116" y="266"/>
      <point x="132" y="223" type="curve" smooth="yes"/>
      <point x="139" y="203"/>
      <point x="149" y="184"/>
      <point x="160" y="167" type="curve"/>
      <point x="136" y="159"/>
      <point x="117" y="135"/>
      <point x="101" y="114" type="curve" smooth="yes"/>
      <point x="83" y="90"/>
      <point x="67" y="66"/>
      <point x="57" y="38" type="curve" smooth="yes"/>
      <point x="47" y="11"/>
      <point x="84" y="-8"/>
      <point x="96" y="19" type="curve" smooth="yes"/>
      <point x="107" y="44"/>
      <point x="122" y="68"/>
      <point x="141" y="89" type="curve" smooth="yes"/>
      <point x="155" y="107"/>
      <point x="172" y="122"/>
      <point x="180" y="144" type="curve"/>
      <point x="183" y="141"/>
      <point x="187" y="137"/>
      <point x="191" y="134" type="curve" smooth="yes"/>
      <point x="220" y="109"/>
      <point x="254" y="97"/>
      <point x="292" y="97" type="curve" smooth="yes"/>
      <point x="318" y="97"/>
      <point x="346" y="103"/>
      <point x="375" y="115" type="curve" smooth="yes"/>
      <point x="394" y="123"/>
      <point x="412" y="133"/>
      <point x="428" y="146" type="curve"/>
      <point x="436" y="126"/>
      <point x="451" y="112"/>
      <point x="465" y="95" type="curve" smooth="yes"/>
      <point x="483" y="74"/>
      <point x="499" y="50"/>
      <point x="510" y="25" type="curve" smooth="yes"/>
      <point x="522" y="-2"/>
      <point x="559" y="17"/>
      <point x="549" y="44" type="curve" smooth="yes"/>
      <point x="539" y="72"/>
      <point x="523" y="96"/>
      <point x="505" y="120" type="curve" smooth="yes"/>
      <point x="491" y="139"/>
      <point x="474" y="160"/>
      <point x="452" y="171" type="curve"/>
      <point x="464" y="184"/>
      <point x="473" y="199"/>
      <point x="481" y="215" type="curve" smooth="yes"/>
      <point x="502" y="258"/>
      <point x="509" y="307"/>
      <point x="500" y="353" type="curve" smooth="yes"/>
      <point x="495" y="378"/>
      <point x="486" y="400"/>
      <point x="474" y="419" type="curve"/>
      <point x="499" y="427"/>
      <point x="519" y="452"/>
    </contour>
    <contour>
      <point x="443" y="248" type="curve" smooth="yes"/>
      <point x="428" y="203"/>
      <point x="403" y="164"/>
      <point x="374" y="145" type="curve" smooth="yes"/>
      <point x="350" y="128"/>
      <point x="326" y="119"/>
      <point x="303" y="119" type="curve" smooth="yes"/>
      <point x="261" y="119"/>
      <point x="229" y="150"/>
      <point x="211" y="176" type="curve" smooth="yes"/>
      <point x="189" y="206"/>
      <point x="176" y="241"/>
      <point x="173" y="257" type="curve" smooth="yes"/>
      <point x="154" y="347"/>
      <point x="169" y="416"/>
      <point x="216" y="460" type="curve"/>
      <point x="250" y="469"/>
      <point x="281" y="474"/>
      <point x="309" y="474" type="curve" smooth="yes"/>
      <point x="401" y="474"/>
      <point x="436" y="425"/>
      <point x="449" y="384" type="curve" smooth="yes"/>
      <point x="461" y="345"/>
      <point x="459" y="296"/>
    </contour>
  </outline>
</glyph>
<glyph name="yen" format="1">
  <advance width="390"/>
  <unicode hex="00A5"/>
  <outline>
    <contour>
      <point x="199" y="312" type="curve" smooth="yes"/>
      <point x="235" y="456"/>
      <point x="319" y="579"/>
      <point x="366" y="718" type="curve" smooth="yes"/>
      <point x="370" y="730"/>
      <point x="352" y="741"/>
      <point x="346" y="729" type="curve" smooth="yes"/>
      <point x="288" y="620"/>
      <point x="223" y="511"/>
      <point x="181" y="394" type="curve"/>
      <point x="162" y="509"/>
      <point x="108" y="628"/>
      <point x="64" y="731" type="curve" smooth="yes"/>
      <point x="54" y="756"/>
      <point x="17" y="738"/>
      <point x="27" y="714" type="curve" smooth="yes"/>
      <point x="77" y="589"/>
      <point x="102" y="455"/>
      <point x="153" y="333" type="curve" smooth="yes"/>
      <point x="154" y="331"/>
      <point x="155" y="330"/>
      <point x="156" y="328" type="curve"/>
      <point x="154" y="326"/>
      <point x="152" y="322"/>
      <point x="153" y="317" type="curve" smooth="yes"/>
      <point x="162" y="264"/>
      <point x="170" y="213"/>
      <point x="171" y="158" type="curve" smooth="yes"/>
      <point x="171" y="109"/>
      <point x="156" y="60"/>
      <point x="158" y="12" type="curve" smooth="yes"/>
      <point x="158" y="-5"/>
      <point x="181" y="-19"/>
      <point x="191" y="-1" type="curve" smooth="yes"/>
      <point x="217" y="42"/>
      <point x="211" y="107"/>
      <point x="211" y="154" type="curve" smooth="yes"/>
      <point x="210" y="201"/>
      <point x="209" y="256"/>
      <point x="190" y="300" type="curve"/>
      <point x="195" y="302"/>
      <point x="198" y="306"/>
    </contour>
    <contour>
      <point x="348" y="420" type="curve" smooth="yes"/>
      <point x="373" y="421"/>
      <point x="377" y="459"/>
      <point x="352" y="459" type="curve" smooth="yes"/>
      <point x="245" y="459"/>
      <point x="132" y="450"/>
      <point x="27" y="431" type="curve" smooth="yes"/>
      <point x="13" y="428"/>
      <point x="15" y="409"/>
      <point x="28" y="407" type="curve" smooth="yes"/>
      <point x="133" y="391"/>
      <point x="243" y="418"/>
    </contour>
    <contour>
      <point x="342" y="287" type="curve" smooth="yes"/>
      <point x="254" y="293"/>
      <point x="149" y="310"/>
      <point x="63" y="288" type="curve" smooth="yes"/>
      <point x="51" y="285"/>
      <point x="42" y="274"/>
      <point x="45" y="261" type="curve" smooth="yes"/>
      <point x="43" y="270"/>
      <point x="42" y="266"/>
      <point x="40" y="257" type="curve" smooth="yes"/>
      <point x="38" y="246"/>
      <point x="50" y="239"/>
      <point x="57" y="244" type="curve"/>
      <point x="61" y="242"/>
      <point x="66" y="241"/>
      <point x="71" y="242" type="curve" smooth="yes"/>
      <point x="162" y="257"/>
      <point x="253" y="236"/>
      <point x="344" y="241" type="curve" smooth="yes"/>
      <point x="371" y="242"/>
      <point x="368" y="285"/>
    </contour>
  </outline>
</glyph>
<glyph name="brokenbar" format="1">
  <advance width="106"/>
  <unicode hex="00A6"/>
  <outline>
    <contour>
      <point x="77" y="411" type="line" smooth="yes"/>
      <point x="75" y="526"/>
      <point x="68" y="634"/>
      <point x="81" y="748" type="curve" smooth="yes"/>
      <point x="87" y="800"/>
      <point x="39" y="808"/>
      <point x="33" y="756" type="curve" smooth="yes"/>
      <point x="23" y="645"/>
      <point x="19" y="517"/>
      <point x="38" y="408" type="curve" smooth="yes"/>
      <point x="43" y="374"/>
      <point x="77" y="369"/>
      <point x="77" y="411" type="curve" smooth="yes"/>
    </contour>
    <contour>
      <point x="79" y="-46" type="line" smooth="yes"/>
      <point x="77" y="69"/>
      <point x="70" y="177"/>
      <point x="83" y="291" type="curve" smooth="yes"/>
      <point x="89" y="343"/>
      <point x="41" y="351"/>
      <point x="35" y="299" type="curve" smooth="yes"/>
      <point x="25" y="188"/>
      <point x="21" y="60"/>
      <point x="40" y="-49" type="curve" smooth="yes"/>
      <point x="45" y="-83"/>
      <point x="79" y="-88"/>
      <point x="79" y="-46" type="curve" smooth="yes"/>
    </contour>
  </outline>
</glyph>
<glyph name="dieresis" format="1">
  <advance width="272"/>
  <unicode hex="00A8"/>
  <outline>
    <contour>
      <point x="247" y="710" type="curve"/>
      <point x="249" y="713"/>
      <point x="249" y="717"/>
      <point x="248" y="722" type="curve" smooth="yes"/>
      <point x="245" y="733"/>
      <point x="235" y="739"/>
      <point x="224" y="735" type="curve" smooth="yes"/>
      <point x="197" y="723"/>
      <point x="186" y="692"/>
      <point x="196" y="666" type="curve" smooth="yes"/>
      <point x="200" y="654"/>
      <point x="216" y="652"/>
      <point x="225" y="659" type="curve" smooth="yes"/>
      <point x="220" y="655"/>
      <point x="231" y="661"/>
      <point x="234" y="662" type="curve" smooth="yes"/>
      <point x="238" y="663"/>
      <point x="242" y="665"/>
      <point x="245" y="669" type="curve" smooth="yes"/>
      <point x="251" y="674"/>
      <point x="254" y="682"/>
      <point x="251" y="689" type="curve"/>
      <point x="251" y="696"/>
      <point x="250" y="704"/>
    </contour>
    <contour>
      <point x="77" y="710" type="curve"/>
      <point x="79" y="713"/>
      <point x="79" y="717"/>
      <point x="78" y="722" type="curve" smooth="yes"/>
      <point x="75" y="733"/>
      <point x="65" y="739"/>
      <point x="54" y="735" type="curve" smooth="yes"/>
      <point x="27" y="723"/>
      <point x="16" y="692"/>
      <point x="26" y="666" type="curve" smooth="yes"/>
      <point x="30" y="654"/>
      <point x="46" y="652"/>
      <point x="55" y="659" type="curve" smooth="yes"/>
      <point x="50" y="655"/>
      <point x="61" y="661"/>
      <point x="64" y="662" type="curve" smooth="yes"/>
      <point x="68" y="663"/>
      <point x="72" y="665"/>
      <point x="75" y="669" type="curve" smooth="yes"/>
      <point x="81" y="674"/>
      <point x="84" y="682"/>
      <point x="81" y="689" type="curve"/>
      <point x="81" y="696"/>
      <point x="80" y="704"/>
    </contour>
  </outline>
</glyph>
<glyph name="copyright" format="1">
  <advance width="573"/>
  <unicode hex="00A9"/>
  <outline>
    <contour>
      <point x="545" y="395" type="curve" smooth="yes"/>
      <point x="534" y="451"/>
      <point x="506" y="500"/>
      <point x="465" y="534" type="curve" smooth="yes"/>
      <point x="443" y="553"/>
      <point x="417" y="567"/>
      <point x="388" y="577" type="curve" smooth="yes"/>
      <point x="357" y="588"/>
      <point x="323" y="593"/>
      <point x="286" y="593" type="curve" smooth="yes"/>
      <point x="232" y="593"/>
      <point x="172" y="582"/>
      <point x="108" y="560" type="curve" smooth="yes"/>
      <point x="100" y="557"/>
      <point x="98" y="553"/>
      <point x="98" y="551" type="curve" smooth="yes"/>
      <point x="98" y="547"/>
      <point x="100" y="544"/>
      <point x="105" y="541" type="curve"/>
      <point x="68" y="510"/>
      <point x="43" y="459"/>
      <point x="34" y="399" type="curve" smooth="yes"/>
      <point x="25" y="341"/>
      <point x="31" y="277"/>
      <point x="52" y="220" type="curve" smooth="yes"/>
      <point x="70" y="171"/>
      <point x="97" y="130"/>
      <point x="131" y="100" type="curve" smooth="yes"/>
      <point x="169" y="68"/>
      <point x="215" y="51"/>
      <point x="266" y="51" type="curve" smooth="yes"/>
      <point x="266" y="51"/>
      <point x="266" y="51"/>
      <point x="266" y="51" type="curve" smooth="yes"/>
      <point x="301" y="51"/>
      <point x="338" y="59"/>
      <point x="377" y="75" type="curve" smooth="yes"/>
      <point x="410" y="88"/>
      <point x="438" y="107"/>
      <point x="463" y="130" type="curve" smooth="yes"/>
      <point x="486" y="153"/>
      <point x="505" y="179"/>
      <point x="520" y="209" type="curve" smooth="yes"/>
      <point x="548" y="267"/>
      <point x="557" y="333"/>
    </contour>
    <contour>
      <point x="521" y="464" type="curve" smooth="yes"/>
      <point x="503" y="497"/>
      <point x="478" y="526"/>
      <point x="445" y="549" type="curve" smooth="yes"/>
      <point x="477" y="527"/>
      <point x="503" y="499"/>
    </contour>
    <contour>
      <point x="380" y="109" type="curve" smooth="yes"/>
      <point x="346" y="85"/>
      <point x="313" y="74"/>
      <point x="282" y="74" type="curve" smooth="yes"/>
      <point x="222" y="74"/>
      <point x="179" y="116"/>
      <point x="153" y="152" type="curve" smooth="yes"/>
      <point x="123" y="194"/>
      <point x="105" y="242"/>
      <point x="101" y="264" type="curve" smooth="yes"/>
      <point x="75" y="388"/>
      <point x="95" y="482"/>
      <point x="161" y="544" type="curve"/>
      <point x="208" y="556"/>
      <point x="251" y="562"/>
      <point x="289" y="562" type="curve" smooth="yes"/>
      <point x="417" y="562"/>
      <point x="465" y="494"/>
      <point x="483" y="437" type="curve" smooth="yes"/>
      <point x="499" y="384"/>
      <point x="496" y="316"/>
      <point x="475" y="251" type="curve" smooth="yes"/>
      <point x="454" y="189"/>
      <point x="419" y="136"/>
    </contour>
    <contour>
      <point x="444" y="549" type="curve" smooth="yes"/>
      <point x="444" y="549"/>
      <point x="445" y="549"/>
      <point x="445" y="549" type="curve" smooth="yes"/>
      <point x="445" y="549"/>
      <point x="444" y="549"/>
    </contour>
    <contour>
      <point x="459" y="127" type="curve" smooth="yes"/>
      <point x="488" y="154"/>
      <point x="510" y="186"/>
      <point x="525" y="221" type="curve" smooth="yes"/>
      <point x="510" y="186"/>
      <point x="488" y="154"/>
    </contour>
    <contour>
      <point x="312" y="536" type="curve" smooth="yes"/>
      <point x="285" y="536"/>
      <point x="256" y="527"/>
      <point x="239" y="513" type="curve" smooth="yes"/>
      <point x="200" y="482"/>
      <point x="204" y="413"/>
      <point x="207" y="357" type="curve" smooth="yes"/>
      <point x="208" y="340"/>
      <point x="209" y="323"/>
      <point x="208" y="310" type="curve" smooth="yes"/>
      <point x="208" y="304"/>
      <point x="208" y="298"/>
      <point x="207" y="292" type="curve" smooth="yes"/>
      <point x="205" y="262"/>
      <point x="203" y="224"/>
      <point x="209" y="190" type="curve" smooth="yes"/>
      <point x="217" y="151"/>
      <point x="235" y="125"/>
      <point x="265" y="111" type="curve" smooth="yes"/>
      <point x="277" y="105"/>
      <point x="290" y="102"/>
      <point x="301" y="102" type="curve" smooth="yes"/>
      <point x="316" y="102"/>
      <point x="329" y="108"/>
      <point x="338" y="118" type="curve" smooth="yes"/>
      <point x="351" y="134"/>
      <point x="355" y="157"/>
      <point x="351" y="185" type="curve" smooth="yes"/>
      <point x="350" y="193"/>
      <point x="343" y="199"/>
      <point x="334" y="199" type="curve" smooth="yes"/>
      <point x="329" y="199"/>
      <point x="324" y="197"/>
      <point x="320" y="193" type="curve" smooth="yes"/>
      <point x="317" y="189"/>
      <point x="316" y="185"/>
      <point x="316" y="180" type="curve"/>
      <point x="311" y="161"/>
      <point x="302" y="139"/>
      <point x="288" y="139" type="curve" smooth="yes"/>
      <point x="281" y="139"/>
      <point x="272" y="145"/>
      <point x="262" y="157" type="curve"/>
      <point x="262" y="158" type="line"/>
      <point x="247" y="171"/>
      <point x="245" y="194"/>
      <point x="243" y="213" type="curve" smooth="yes"/>
      <point x="243" y="215"/>
      <point x="243" y="217"/>
      <point x="243" y="219" type="curve" smooth="yes"/>
      <point x="240" y="249"/>
      <point x="241" y="279"/>
      <point x="243" y="309" type="curve" smooth="yes"/>
      <point x="243" y="319"/>
      <point x="244" y="329"/>
      <point x="244" y="339" type="curve" smooth="yes"/>
      <point x="244" y="355"/>
      <point x="244" y="371"/>
      <point x="244" y="386" type="curve" smooth="yes"/>
      <point x="243" y="399"/>
      <point x="243" y="412"/>
      <point x="243" y="424" type="curve" smooth="yes"/>
      <point x="243" y="468"/>
      <point x="273" y="504"/>
      <point x="308" y="504" type="curve" smooth="yes"/>
      <point x="323" y="504"/>
      <point x="340" y="497"/>
      <point x="355" y="482" type="curve" smooth="yes"/>
      <point x="357" y="479"/>
      <point x="360" y="478"/>
      <point x="363" y="478" type="curve"/>
      <point x="363" y="478"/>
      <point x="363" y="478"/>
      <point x="363" y="478" type="curve" smooth="yes"/>
      <point x="367" y="478"/>
      <point x="370" y="480"/>
      <point x="372" y="482" type="curve" smooth="yes"/>
      <point x="375" y="485"/>
      <point x="375" y="488"/>
      <point x="375" y="492" type="curve" smooth="yes"/>
      <point x="371" y="520"/>
      <point x="348" y="536"/>
    </contour>
  </outline>
</glyph>
<glyph name="ordfeminine" format="1">
  <advance width="327"/>
  <unicode hex="00AA"/>
  <outline>
    <contour>
      <point x="303" y="255" type="curve" smooth="yes"/>
      <point x="300" y="261"/>
      <point x="294" y="265"/>
      <point x="288" y="265" type="curve" smooth="yes"/>
      <point x="284" y="265"/>
      <point x="280" y="264"/>
      <point x="276" y="261" type="curve" smooth="yes"/>
      <point x="268" y="255"/>
      <point x="262" y="252"/>
      <point x="256" y="252" type="curve" smooth="yes"/>
      <point x="256" y="252"/>
      <point x="256" y="252"/>
      <point x="256" y="252" type="curve" smooth="yes"/>
      <point x="243" y="252"/>
      <point x="234" y="266"/>
      <point x="227" y="293" type="curve" smooth="yes"/>
      <point x="222" y="317"/>
      <point x="220" y="346"/>
      <point x="220" y="363" type="curve"/>
      <point x="219" y="367" type="line"/>
      <point x="219" y="367" type="line"/>
      <point x="216" y="406"/>
      <point x="217" y="444"/>
      <point x="218" y="484" type="curve"/>
      <point x="218" y="488" type="line"/>
      <point x="219" y="497"/>
      <point x="219" y="505"/>
      <point x="218" y="513" type="curve"/>
      <point x="218" y="517" type="line"/>
      <point x="218" y="523"/>
      <point x="215" y="528"/>
      <point x="213" y="531" type="curve"/>
      <point x="213" y="532" type="line"/>
      <point x="201" y="561"/>
      <point x="173" y="580"/>
      <point x="143" y="580" type="curve" smooth="yes"/>
      <point x="126" y="580"/>
      <point x="108" y="573"/>
      <point x="93" y="561" type="curve"/>
      <point x="93" y="561" type="line"/>
      <point x="41" y="516"/>
      <point x="28" y="419"/>
      <point x="22" y="351" type="curve" smooth="yes"/>
      <point x="20" y="313"/>
      <point x="35" y="254"/>
      <point x="65" y="222" type="curve" smooth="yes"/>
      <point x="79" y="206"/>
      <point x="97" y="198"/>
      <point x="115" y="198" type="curve" smooth="yes"/>
      <point x="120" y="198"/>
      <point x="125" y="198"/>
      <point x="130" y="199" type="curve" smooth="yes"/>
      <point x="166" y="207"/>
      <point x="187" y="249"/>
      <point x="199" y="283" type="curve"/>
      <point x="203" y="265"/>
      <point x="209" y="250"/>
      <point x="215" y="239" type="curve" smooth="yes"/>
      <point x="225" y="221"/>
      <point x="238" y="212"/>
      <point x="253" y="211" type="curve" smooth="yes"/>
      <point x="253" y="211"/>
      <point x="253" y="211"/>
      <point x="253" y="211" type="curve" smooth="yes"/>
      <point x="266" y="211"/>
      <point x="281" y="219"/>
      <point x="298" y="236" type="curve"/>
      <point x="303" y="241"/>
      <point x="305" y="248"/>
    </contour>
    <contour>
      <point x="178" y="421" type="curve" smooth="yes"/>
      <point x="179" y="380"/>
      <point x="181" y="338"/>
      <point x="170" y="298" type="curve" smooth="yes"/>
      <point x="161" y="267"/>
      <point x="138" y="235"/>
      <point x="115" y="235" type="curve" smooth="yes"/>
      <point x="105" y="235"/>
      <point x="95" y="241"/>
      <point x="85" y="252" type="curve" smooth="yes"/>
      <point x="67" y="275"/>
      <point x="54" y="316"/>
      <point x="55" y="347" type="curve" smooth="yes"/>
      <point x="57" y="385"/>
      <point x="65" y="426"/>
      <point x="80" y="473" type="curve" smooth="yes"/>
      <point x="89" y="500"/>
      <point x="101" y="521"/>
      <point x="115" y="536" type="curve" smooth="yes"/>
      <point x="123" y="544"/>
      <point x="132" y="548"/>
      <point x="141" y="548" type="curve" smooth="yes"/>
      <point x="154" y="548"/>
      <point x="169" y="538"/>
      <point x="181" y="522" type="curve"/>
      <point x="180" y="521"/>
      <point x="180" y="520"/>
      <point x="180" y="520" type="curve"/>
      <point x="176" y="487"/>
      <point x="177" y="454"/>
    </contour>
  </outline>
</glyph>
<glyph name="guillemotleft" format="1">
  <advance width="446"/>
  <unicode hex="00AB"/>
  <outline>
    <contour>
      <point x="243" y="471" type="curve" smooth="yes"/>
      <point x="220" y="445"/>
      <point x="178" y="423"/>
      <point x="178" y="337" type="curve" smooth="yes"/>
      <point x="178" y="316"/>
      <point x="185" y="306"/>
      <point x="191" y="306" type="curve"/>
      <point x="236" y="301"/>
      <point x="283" y="271"/>
      <point x="325" y="225" type="curve" smooth="yes"/>
      <point x="353" y="195"/>
      <point x="380" y="125"/>
      <point x="408" y="110" type="curve" smooth="yes"/>
      <point x="416" y="106"/>
      <point x="422" y="128"/>
      <point x="420" y="148" type="curve" smooth="yes"/>
      <point x="410" y="240"/>
      <point x="353" y="281"/>
      <point x="325" y="307" type="curve"/>
      <point x="296" y="336"/>
      <point x="265" y="356"/>
      <point x="234" y="367" type="curve"/>
      <point x="295" y="425"/>
      <point x="356" y="484"/>
      <point x="411" y="570" type="curve" smooth="yes"/>
      <point x="425" y="593"/>
      <point x="413" y="663"/>
      <point x="398" y="642" type="curve" smooth="yes"/>
      <point x="348" y="571"/>
      <point x="295" y="529"/>
    </contour>
    <contour>
      <point x="78" y="468" type="curve" smooth="yes"/>
      <point x="55" y="442"/>
      <point x="13" y="420"/>
      <point x="13" y="334" type="curve" smooth="yes"/>
      <point x="13" y="313"/>
      <point x="20" y="303"/>
      <point x="26" y="303" type="curve"/>
      <point x="71" y="298"/>
      <point x="118" y="268"/>
      <point x="160" y="222" type="curve" smooth="yes"/>
      <point x="188" y="192"/>
      <point x="215" y="122"/>
      <point x="243" y="107" type="curve" smooth="yes"/>
      <point x="251" y="103"/>
      <point x="257" y="125"/>
      <point x="255" y="145" type="curve" smooth="yes"/>
      <point x="245" y="237"/>
      <point x="188" y="278"/>
      <point x="160" y="304" type="curve"/>
      <point x="131" y="333"/>
      <point x="100" y="353"/>
      <point x="69" y="364" type="curve"/>
      <point x="130" y="422"/>
      <point x="191" y="481"/>
      <point x="246" y="567" type="curve" smooth="yes"/>
      <point x="260" y="590"/>
      <point x="248" y="660"/>
      <point x="233" y="639" type="curve" smooth="yes"/>
      <point x="183" y="568"/>
      <point x="130" y="526"/>
    </contour>
  </outline>
</glyph>
<glyph name="logicalnot" format="1">
  <advance width="484"/>
  <unicode hex="00AC"/>
  <outline>
    <contour>
      <point x="36" y="471" type="line" smooth="yes"/>
      <point x="146" y="451"/>
      <point x="263" y="469"/>
      <point x="374" y="456" type="curve" smooth="yes"/>
      <point x="451" y="448"/>
      <point x="405" y="332"/>
      <point x="434" y="275" type="curve" smooth="yes"/>
      <point x="438" y="266"/>
      <point x="451" y="267"/>
      <point x="455" y="276" type="curve" smooth="yes"/>
      <point x="475" y="327"/>
      <point x="446" y="408"/>
      <point x="444" y="462" type="curve" smooth="yes"/>
      <point x="444" y="472"/>
      <point x="439" y="478"/>
      <point x="430" y="480" type="curve" smooth="yes"/>
      <point x="306" y="502"/>
      <point x="159" y="512"/>
      <point x="35" y="489" type="curve" smooth="yes"/>
      <point x="25" y="487"/>
      <point x="26" y="473"/>
      <point x="36" y="471" type="curve" smooth="yes"/>
    </contour>
  </outline>
</glyph>
<glyph name="uni00AD" format="1">
  <advance width="252"/>
  <unicode hex="00AD"/>
  <outline>
    <contour>
      <point x="205" y="359" type="curve" smooth="yes"/>
      <point x="153" y="368"/>
      <point x="92" y="371"/>
      <point x="41" y="356" type="curve" smooth="yes"/>
      <point x="25" y="351"/>
      <point x="22" y="323"/>
      <point x="42" y="324" type="curve" smooth="yes"/>
      <point x="96" y="325"/>
      <point x="147" y="331"/>
      <point x="201" y="320" type="curve"/>
      <point x="226" y="316"/>
      <point x="230" y="355"/>
    </contour>
  </outline>
</glyph>
<glyph name="registered" format="1">
  <advance width="552"/>
  <unicode hex="00AE"/>
  <outline>
    <contour>
      <point x="99" y="534" type="curve" smooth="yes"/>
      <point x="85" y="529"/>
      <point x="88" y="521"/>
      <point x="97" y="516" type="curve"/>
      <point x="-65" y="381"/>
      <point x="41" y="-77"/>
      <point x="365" y="55" type="curve" smooth="yes"/>
      <point x="651" y="171"/>
      <point x="589" y="704"/>
    </contour>
    <contour>
      <point x="368" y="88" type="curve" smooth="yes"/>
      <point x="196" y="-31"/>
      <point x="103" y="187"/>
      <point x="91" y="242" type="curve" smooth="yes"/>
      <point x="74" y="326"/>
      <point x="69" y="441"/>
      <point x="151" y="519" type="curve"/>
      <point x="583" y="633"/>
      <point x="515" y="189"/>
    </contour>
    <contour>
      <point x="351" y="126" type="curve" smooth="yes"/>
      <point x="333" y="142"/>
      <point x="332" y="177"/>
      <point x="330" y="207" type="curve" smooth="yes"/>
      <point x="330" y="224"/>
      <point x="329" y="239"/>
      <point x="326" y="251" type="curve" smooth="yes"/>
      <point x="322" y="267"/>
      <point x="315" y="280"/>
      <point x="305" y="289" type="curve"/>
      <point x="340" y="314"/>
      <point x="357" y="353"/>
      <point x="354" y="401" type="curve" smooth="yes"/>
      <point x="352" y="428"/>
      <point x="340" y="454"/>
      <point x="320" y="474" type="curve" smooth="yes"/>
      <point x="300" y="494"/>
      <point x="274" y="505"/>
      <point x="248" y="505" type="curve" smooth="yes"/>
      <point x="237" y="505"/>
      <point x="226" y="503"/>
      <point x="215" y="499" type="curve"/>
      <point x="212" y="498"/>
      <point x="210" y="497"/>
      <point x="208" y="496" type="curve"/>
      <point x="207" y="496"/>
      <point x="207" y="495"/>
      <point x="207" y="495" type="curve"/>
      <point x="207" y="495" type="line"/>
      <point x="203" y="494"/>
      <point x="201" y="490"/>
      <point x="201" y="486" type="curve" smooth="yes"/>
      <point x="201" y="483"/>
      <point x="202" y="481"/>
      <point x="203" y="479" type="curve"/>
      <point x="202" y="423"/>
      <point x="204" y="366"/>
      <point x="205" y="310" type="curve" smooth="yes"/>
      <point x="207" y="248"/>
      <point x="209" y="183"/>
      <point x="206" y="119" type="curve" smooth="yes"/>
      <point x="206" y="115"/>
      <point x="208" y="111"/>
      <point x="211" y="108" type="curve" smooth="yes"/>
      <point x="214" y="104"/>
      <point x="218" y="103"/>
      <point x="223" y="103" type="curve" smooth="yes"/>
      <point x="232" y="103"/>
      <point x="238" y="108"/>
      <point x="238" y="117" type="curve" smooth="yes"/>
      <point x="239" y="160"/>
      <point x="239" y="205"/>
      <point x="238" y="265" type="curve"/>
      <point x="251" y="267"/>
      <point x="263" y="269"/>
      <point x="274" y="273" type="curve"/>
      <point x="281" y="270"/>
      <point x="287" y="264"/>
      <point x="290" y="257" type="curve" smooth="yes"/>
      <point x="298" y="242"/>
      <point x="299" y="223"/>
      <point x="300" y="207" type="curve" smooth="yes"/>
      <point x="300" y="204"/>
      <point x="300" y="201"/>
      <point x="301" y="198" type="curve" smooth="yes"/>
      <point x="301" y="195"/>
      <point x="301" y="192"/>
      <point x="301" y="188" type="curve" smooth="yes"/>
      <point x="303" y="157"/>
      <point x="306" y="122"/>
      <point x="331" y="99" type="curve" smooth="yes"/>
      <point x="334" y="97"/>
      <point x="338" y="95"/>
      <point x="341" y="95" type="curve" smooth="yes"/>
      <point x="341" y="95"/>
      <point x="341" y="95"/>
      <point x="341" y="95" type="curve"/>
      <point x="347" y="95"/>
      <point x="353" y="100"/>
      <point x="356" y="107" type="curve" smooth="yes"/>
      <point x="358" y="114"/>
      <point x="357" y="121"/>
    </contour>
    <contour>
      <point x="276" y="304" type="curve"/>
      <point x="264" y="307"/>
      <point x="252" y="306"/>
      <point x="240" y="301" type="curve" smooth="yes"/>
      <point x="239" y="301"/>
      <point x="238" y="300"/>
      <point x="237" y="300" type="curve"/>
      <point x="236" y="343"/>
      <point x="234" y="387"/>
      <point x="232" y="429" type="curve" smooth="yes"/>
      <point x="232" y="445"/>
      <point x="231" y="460"/>
      <point x="230" y="475" type="curve"/>
      <point x="288" y="474"/>
      <point x="317" y="452"/>
      <point x="325" y="403" type="curve" smooth="yes"/>
      <point x="332" y="362"/>
      <point x="312" y="322"/>
    </contour>
  </outline>
</glyph>
<glyph name="degree" format="1">
  <advance width="187"/>
  <unicode hex="00B0"/>
  <outline>
    <contour>
      <point x="161" y="722" type="curve" smooth="yes"/>
      <point x="151" y="759"/>
      <point x="127" y="780"/>
      <point x="95" y="780" type="curve" smooth="yes"/>
      <point x="81" y="780"/>
      <point x="65" y="776"/>
      <point x="49" y="767" type="curve" smooth="yes"/>
      <point x="46" y="766"/>
      <point x="44" y="764"/>
      <point x="43" y="761" type="curve" smooth="yes"/>
      <point x="43" y="760"/>
      <point x="43" y="758"/>
      <point x="44" y="757" type="curve"/>
      <point x="33" y="743"/>
      <point x="27" y="720"/>
      <point x="26" y="694" type="curve" smooth="yes"/>
      <point x="26" y="666"/>
      <point x="31" y="639"/>
      <point x="41" y="618" type="curve" smooth="yes"/>
      <point x="52" y="593"/>
      <point x="70" y="580"/>
      <point x="89" y="580" type="curve" smooth="yes"/>
      <point x="89" y="580"/>
      <point x="89" y="580"/>
      <point x="89" y="580" type="curve" smooth="yes"/>
      <point x="99" y="580"/>
      <point x="109" y="583"/>
      <point x="119" y="589" type="curve" smooth="yes"/>
      <point x="138" y="599"/>
      <point x="152" y="620"/>
      <point x="160" y="646" type="curve" smooth="yes"/>
      <point x="166" y="671"/>
      <point x="167" y="698"/>
    </contour>
    <contour>
      <point x="54" y="661" type="line"/>
      <point x="50" y="683"/>
      <point x="47" y="725"/>
      <point x="67" y="754" type="curve"/>
      <point x="78" y="758"/>
      <point x="87" y="759"/>
      <point x="96" y="759" type="curve" smooth="yes"/>
      <point x="114" y="759"/>
      <point x="127" y="750"/>
      <point x="135" y="732" type="curve" smooth="yes"/>
      <point x="150" y="694"/>
      <point x="136" y="630"/>
      <point x="114" y="609" type="curve" smooth="yes"/>
      <point x="107" y="601"/>
      <point x="100" y="598"/>
      <point x="94" y="598" type="curve" smooth="yes"/>
      <point x="71" y="598"/>
      <point x="56" y="645"/>
      <point x="54" y="661" type="curve"/>
    </contour>
  </outline>
</glyph>
<glyph name="twosuperior" format="1">
  <advance width="231"/>
  <unicode hex="00B2"/>
  <outline>
    <contour>
      <point x="95" y="408" type="curve" smooth="yes"/>
      <point x="103" y="422"/>
      <point x="111" y="436"/>
      <point x="119" y="449" type="curve" smooth="yes"/>
      <point x="136" y="478"/>
      <point x="154" y="508"/>
      <point x="170" y="539" type="curve" smooth="yes"/>
      <point x="182" y="564"/>
      <point x="197" y="603"/>
      <point x="200" y="645" type="curve" smooth="yes"/>
      <point x="203" y="688"/>
      <point x="193" y="723"/>
      <point x="170" y="750" type="curve" smooth="yes"/>
      <point x="156" y="766"/>
      <point x="139" y="775"/>
      <point x="122" y="775" type="curve" smooth="yes"/>
      <point x="97" y="775"/>
      <point x="73" y="757"/>
      <point x="59" y="729" type="curve" smooth="yes"/>
      <point x="46" y="703"/>
      <point x="40" y="664"/>
      <point x="64" y="632" type="curve"/>
      <point x="67" y="628"/>
      <point x="70" y="626"/>
      <point x="75" y="626" type="curve" smooth="yes"/>
      <point x="75" y="626"/>
      <point x="75" y="626"/>
      <point x="75" y="626" type="curve" smooth="yes"/>
      <point x="80" y="626"/>
      <point x="85" y="629"/>
      <point x="88" y="634" type="curve" smooth="yes"/>
      <point x="91" y="638"/>
      <point x="91" y="643"/>
      <point x="89" y="648" type="curve" smooth="yes"/>
      <point x="80" y="667"/>
      <point x="76" y="683"/>
      <point x="78" y="696" type="curve" smooth="yes"/>
      <point x="80" y="712"/>
      <point x="89" y="724"/>
      <point x="106" y="733" type="curve" smooth="yes"/>
      <point x="114" y="738"/>
      <point x="121" y="740"/>
      <point x="127" y="740" type="curve" smooth="yes"/>
      <point x="135" y="740"/>
      <point x="141" y="737"/>
      <point x="146" y="730" type="curve" smooth="yes"/>
      <point x="168" y="702"/>
      <point x="164" y="626"/>
      <point x="159" y="607" type="curve" smooth="yes"/>
      <point x="146" y="552"/>
      <point x="115" y="503"/>
      <point x="85" y="455" type="curve" smooth="yes"/>
      <point x="65" y="423"/>
      <point x="44" y="390"/>
      <point x="29" y="356" type="curve" smooth="yes"/>
      <point x="24" y="346"/>
      <point x="30" y="336"/>
      <point x="38" y="332" type="curve"/>
      <point x="38" y="332" type="line"/>
      <point x="70" y="321"/>
      <point x="100" y="319"/>
      <point x="126" y="319" type="curve" smooth="yes"/>
      <point x="136" y="319"/>
      <point x="146" y="319"/>
      <point x="157" y="320" type="curve" smooth="yes"/>
      <point x="159" y="320"/>
      <point x="162" y="320"/>
      <point x="164" y="320" type="curve" smooth="yes"/>
      <point x="175" y="320"/>
      <point x="182" y="329"/>
      <point x="182" y="339" type="curve" smooth="yes"/>
      <point x="182" y="343"/>
      <point x="181" y="347"/>
      <point x="179" y="350" type="curve" smooth="yes"/>
      <point x="176" y="353"/>
      <point x="172" y="355"/>
      <point x="167" y="355" type="curve" smooth="yes"/>
      <point x="167" y="355"/>
      <point x="166" y="355"/>
      <point x="166" y="355" type="curve"/>
      <point x="155" y="355"/>
      <point x="145" y="354"/>
      <point x="134" y="354" type="curve" smooth="yes"/>
      <point x="124" y="354"/>
      <point x="114" y="354"/>
      <point x="104" y="354" type="curve" smooth="yes"/>
      <point x="84" y="354"/>
      <point x="77" y="358"/>
      <point x="75" y="361" type="curve" smooth="yes"/>
      <point x="71" y="368"/>
      <point x="81" y="383"/>
      <point x="89" y="398" type="curve" smooth="yes"/>
      <point x="91" y="401"/>
      <point x="93" y="405"/>
    </contour>
  </outline>
</glyph>
<glyph name="threesuperior" format="1">
  <advance width="212"/>
  <unicode hex="00B3"/>
  <outline>
    <contour>
      <point x="173" y="492" type="curve" smooth="yes"/>
      <point x="162" y="520"/>
      <point x="145" y="539"/>
      <point x="127" y="548" type="curve"/>
      <point x="155" y="570"/>
      <point x="174" y="606"/>
      <point x="180" y="645" type="curve" smooth="yes"/>
      <point x="186" y="683"/>
      <point x="178" y="719"/>
      <point x="156" y="746" type="curve" smooth="yes"/>
      <point x="138" y="769"/>
      <point x="115" y="774"/>
      <point x="99" y="774" type="curve" smooth="yes"/>
      <point x="83" y="774"/>
      <point x="66" y="769"/>
      <point x="52" y="759" type="curve" smooth="yes"/>
      <point x="38" y="749"/>
      <point x="27" y="736"/>
      <point x="23" y="722" type="curve" smooth="yes"/>
      <point x="15" y="697"/>
      <point x="25" y="671"/>
      <point x="52" y="652" type="curve"/>
      <point x="52" y="652" type="line"/>
      <point x="54" y="651"/>
      <point x="57" y="650"/>
      <point x="60" y="650" type="curve" smooth="yes"/>
      <point x="66" y="650"/>
      <point x="72" y="654"/>
      <point x="74" y="660" type="curve" smooth="yes"/>
      <point x="76" y="666"/>
      <point x="74" y="672"/>
      <point x="69" y="676" type="curve" smooth="yes"/>
      <point x="55" y="687"/>
      <point x="50" y="700"/>
      <point x="54" y="713" type="curve" smooth="yes"/>
      <point x="59" y="727"/>
      <point x="76" y="738"/>
      <point x="95" y="738" type="curve"/>
      <point x="95" y="738" type="line"/>
      <point x="95" y="738"/>
      <point x="96" y="738"/>
      <point x="96" y="738" type="curve" smooth="yes"/>
      <point x="127" y="738"/>
      <point x="142" y="711"/>
      <point x="146" y="686" type="curve" smooth="yes"/>
      <point x="150" y="662"/>
      <point x="146" y="634"/>
      <point x="134" y="611" type="curve" smooth="yes"/>
      <point x="122" y="586"/>
      <point x="102" y="569"/>
      <point x="80" y="563" type="curve"/>
      <point x="79" y="563" type="line"/>
      <point x="74" y="561"/>
      <point x="70" y="558"/>
      <point x="68" y="553" type="curve" smooth="yes"/>
      <point x="66" y="548"/>
      <point x="66" y="543"/>
      <point x="68" y="538" type="curve"/>
      <point x="67" y="533"/>
      <point x="68" y="528"/>
      <point x="70" y="524" type="curve" smooth="yes"/>
      <point x="74" y="519"/>
      <point x="80" y="516"/>
      <point x="86" y="518" type="curve"/>
      <point x="102" y="520"/>
      <point x="116" y="515"/>
      <point x="127" y="502" type="curve" smooth="yes"/>
      <point x="149" y="478"/>
      <point x="156" y="432"/>
      <point x="153" y="401" type="curve" smooth="yes"/>
      <point x="150" y="377"/>
      <point x="131" y="350"/>
      <point x="108" y="350" type="curve" smooth="yes"/>
      <point x="104" y="350"/>
      <point x="100" y="351"/>
      <point x="96" y="353" type="curve"/>
      <point x="96" y="353" type="line"/>
      <point x="73" y="361"/>
      <point x="70" y="381"/>
      <point x="67" y="404" type="curve" smooth="yes"/>
      <point x="66" y="410"/>
      <point x="65" y="417"/>
      <point x="64" y="423" type="curve" smooth="yes"/>
      <point x="62" y="430"/>
      <point x="56" y="435"/>
      <point x="49" y="435" type="curve" smooth="yes"/>
      <point x="42" y="435"/>
      <point x="37" y="432"/>
      <point x="34" y="426" type="curve" smooth="yes"/>
      <point x="17" y="390"/>
      <point x="44" y="337"/>
      <point x="78" y="321" type="curve" smooth="yes"/>
      <point x="88" y="316"/>
      <point x="98" y="314"/>
      <point x="108" y="314" type="curve" smooth="yes"/>
      <point x="108" y="314"/>
      <point x="108" y="314"/>
      <point x="108" y="314" type="curve" smooth="yes"/>
      <point x="136" y="314"/>
      <point x="163" y="335"/>
      <point x="181" y="372" type="curve" smooth="yes"/>
      <point x="195" y="399"/>
      <point x="192" y="450"/>
    </contour>
  </outline>
</glyph>
<glyph name="acute" format="1">
  <advance width="200"/>
  <unicode hex="00B4"/>
  <outline>
    <contour>
      <point x="122" y="806" type="curve" smooth="yes"/>
      <point x="109" y="778"/>
      <point x="91" y="752"/>
      <point x="70" y="729" type="curve" smooth="yes"/>
      <point x="51" y="707"/>
      <point x="30" y="689"/>
      <point x="22" y="660" type="curve" smooth="yes"/>
      <point x="18" y="647"/>
      <point x="33" y="638"/>
      <point x="44" y="642" type="curve"/>
      <point x="74" y="650"/>
      <point x="97" y="678"/>
      <point x="116" y="702" type="curve" smooth="yes"/>
      <point x="137" y="728"/>
      <point x="155" y="754"/>
      <point x="167" y="785" type="curve" smooth="yes"/>
      <point x="178" y="815"/>
      <point x="136" y="835"/>
    </contour>
  </outline>
</glyph>
<glyph name="mu" format="1">
  <advance width="492"/>
  <unicode hex="00B5"/>
  <unicode hex="03BC"/>
  <outline>
    <contour>
      <point x="448" y="64" type="curve" smooth="yes"/>
      <point x="399" y="97"/>
      <point x="382" y="159"/>
      <point x="377" y="218" type="curve"/>
      <point x="414" y="372"/>
      <point x="378" y="597"/>
      <point x="369" y="690" type="curve" smooth="yes"/>
      <point x="367" y="710"/>
      <point x="334" y="713"/>
      <point x="333" y="692" type="curve" smooth="yes"/>
      <point x="328" y="631"/>
      <point x="350" y="438"/>
      <point x="334" y="292" type="curve"/>
      <point x="331" y="289"/>
      <point x="328" y="284"/>
      <point x="328" y="278" type="curve" smooth="yes"/>
      <point x="328" y="270"/>
      <point x="328" y="262"/>
      <point x="329" y="254" type="curve"/>
      <point x="315" y="177"/>
      <point x="288" y="120"/>
      <point x="235" y="119" type="curve" smooth="yes"/>
      <point x="33" y="113"/>
      <point x="132" y="589"/>
      <point x="97" y="710" type="curve" smooth="yes"/>
      <point x="91" y="733"/>
      <point x="61" y="725"/>
      <point x="56" y="706" type="curve" smooth="yes"/>
      <point x="32" y="626"/>
      <point x="39" y="518"/>
      <point x="54" y="419" type="curve"/>
      <point x="63" y="197"/>
      <point x="99" y="50"/>
      <point x="48" y="-168" type="curve" smooth="yes"/>
      <point x="40" y="-203"/>
      <point x="89" y="-218"/>
      <point x="93" y="-183" type="curve" smooth="yes"/>
      <point x="112" y="-33"/>
      <point x="107" y="42"/>
      <point x="100" y="191" type="curve"/>
      <point x="122" y="123"/>
      <point x="162" y="56"/>
      <point x="240" y="66" type="curve" smooth="yes"/>
      <point x="287" y="72"/>
      <point x="320" y="98"/>
      <point x="343" y="135" type="curve"/>
      <point x="356" y="90"/>
      <point x="378" y="49"/>
      <point x="418" y="22" type="curve" smooth="yes"/>
      <point x="446" y="3"/>
      <point x="476" y="46"/>
    </contour>
  </outline>
</glyph>
<glyph name="paragraph" format="1">
  <advance width="379"/>
  <unicode hex="00B6"/>
  <outline>
    <contour>
      <point x="352" y="52" type="curve" smooth="yes"/>
      <point x="306" y="271"/>
      <point x="333" y="492"/>
      <point x="329" y="714" type="curve" smooth="yes"/>
      <point x="329" y="732"/>
      <point x="306" y="732"/>
      <point x="299" y="719" type="curve"/>
      <point x="297" y="723"/>
      <point x="293" y="726"/>
      <point x="287" y="726" type="curve" smooth="yes"/>
      <point x="191" y="733"/>
      <point x="44" y="729"/>
      <point x="22" y="608" type="curve" smooth="yes"/>
      <point x="-3" y="473"/>
      <point x="86" y="382"/>
      <point x="210" y="371" type="curve"/>
      <point x="204" y="260"/>
      <point x="208" y="150"/>
      <point x="238" y="45" type="curve" smooth="yes"/>
      <point x="244" y="22"/>
      <point x="280" y="35"/>
      <point x="274" y="59" type="curve" smooth="yes"/>
      <point x="245" y="162"/>
      <point x="245" y="266"/>
      <point x="252" y="371" type="curve"/>
      <point x="269" y="376"/>
      <point x="269" y="401"/>
      <point x="254" y="408" type="curve"/>
      <point x="262" y="503"/>
      <point x="272" y="598"/>
      <point x="270" y="692" type="curve"/>
      <point x="275" y="692"/>
      <point x="281" y="692"/>
      <point x="286" y="692" type="curve" smooth="yes"/>
      <point x="291" y="693"/>
      <point x="294" y="695"/>
      <point x="297" y="697" type="curve"/>
      <point x="289" y="481"/>
      <point x="268" y="261"/>
      <point x="313" y="48" type="curve" smooth="yes"/>
      <point x="318" y="24"/>
      <point x="357" y="27"/>
    </contour>
  </outline>
</glyph>
<glyph name="periodcentered" format="1">
  <advance width="88"/>
  <unicode hex="00B7"/>
  <outline>
    <contour>
      <point x="73" y="360" type="curve"/>
      <point x="72" y="364"/>
      <point x="69" y="370"/>
      <point x="64" y="371" type="curve"/>
      <point x="61" y="372"/>
      <point x="59" y="372"/>
      <point x="56" y="372" type="curve"/>
      <point x="52" y="375"/>
      <point x="48" y="376"/>
      <point x="44" y="376" type="curve" smooth="yes"/>
      <point x="40" y="376"/>
      <point x="37" y="375"/>
      <point x="34" y="373" type="curve"/>
      <point x="33" y="374"/>
      <point x="32" y="374"/>
      <point x="31" y="374" type="curve" smooth="yes"/>
      <point x="24" y="374"/>
      <point x="16" y="369"/>
      <point x="14" y="362" type="curve"/>
      <point x="14" y="361" type="line"/>
      <point x="11" y="354"/>
      <point x="9" y="336"/>
      <point x="17" y="324" type="curve" smooth="yes"/>
      <point x="20" y="318"/>
      <point x="26" y="314"/>
      <point x="34" y="313" type="curve"/>
      <point x="35" y="313"/>
      <point x="36" y="313"/>
      <point x="37" y="313" type="curve" smooth="yes"/>
      <point x="37" y="313"/>
      <point x="37" y="313"/>
      <point x="37" y="313" type="curve" smooth="yes"/>
      <point x="49" y="313"/>
      <point x="62" y="322"/>
      <point x="69" y="330" type="curve"/>
      <point x="69" y="330" type="line"/>
      <point x="72" y="336"/>
      <point x="73" y="341"/>
      <point x="73" y="345" type="curve"/>
      <point x="74" y="349"/>
      <point x="76" y="354"/>
    </contour>
  </outline>
</glyph>
<glyph name="onesuperior" format="1">
  <advance width="101"/>
  <unicode hex="00B9"/>
  <outline>
    <contour>
      <point x="65" y="780" type="curve" smooth="yes"/>
      <point x="62" y="780"/>
      <point x="60" y="779"/>
      <point x="57" y="777" type="curve"/>
      <point x="57" y="777" type="line"/>
      <point x="19" y="744"/>
      <point x="23" y="673"/>
      <point x="25" y="621" type="curve" smooth="yes"/>
      <point x="25" y="613"/>
      <point x="26" y="605"/>
      <point x="26" y="597" type="curve" smooth="yes"/>
      <point x="26" y="568"/>
      <point x="28" y="537"/>
      <point x="30" y="508" type="curve" smooth="yes"/>
      <point x="33" y="450"/>
      <point x="37" y="389"/>
      <point x="29" y="331" type="curve" smooth="yes"/>
      <point x="28" y="326"/>
      <point x="29" y="321"/>
      <point x="32" y="318" type="curve" smooth="yes"/>
      <point x="36" y="314"/>
      <point x="41" y="312"/>
      <point x="46" y="312" type="curve" smooth="yes"/>
      <point x="46" y="312"/>
      <point x="46" y="312"/>
      <point x="46" y="312" type="curve" smooth="yes"/>
      <point x="56" y="312"/>
      <point x="62" y="318"/>
      <point x="64" y="326" type="curve" smooth="yes"/>
      <point x="73" y="396"/>
      <point x="70" y="466"/>
      <point x="68" y="534" type="curve" smooth="yes"/>
      <point x="66" y="610"/>
      <point x="63" y="690"/>
      <point x="77" y="768" type="curve"/>
      <point x="77" y="768" type="line"/>
      <point x="77" y="769" type="line"/>
      <point x="77" y="775"/>
      <point x="71" y="780"/>
    </contour>
  </outline>
</glyph>
<glyph name="guillemotright" format="1">
  <advance width="442"/>
  <unicode hex="00BB"/>
  <outline>
    <contour>
      <point x="195" y="471" type="curve" smooth="yes"/>
      <point x="143" y="529"/>
      <point x="90" y="571"/>
      <point x="40" y="642" type="curve" smooth="yes"/>
      <point x="25" y="663"/>
      <point x="13" y="593"/>
      <point x="27" y="570" type="curve" smooth="yes"/>
      <point x="82" y="484"/>
      <point x="143" y="425"/>
      <point x="204" y="367" type="curve"/>
      <point x="173" y="356"/>
      <point x="142" y="336"/>
      <point x="113" y="307" type="curve" smooth="yes"/>
      <point x="85" y="281"/>
      <point x="28" y="240"/>
      <point x="18" y="148" type="curve" smooth="yes"/>
      <point x="16" y="128"/>
      <point x="22" y="106"/>
      <point x="30" y="110" type="curve" smooth="yes"/>
      <point x="58" y="125"/>
      <point x="85" y="195"/>
      <point x="113" y="225" type="curve" smooth="yes"/>
      <point x="155" y="271"/>
      <point x="202" y="301"/>
      <point x="247" y="306" type="curve" smooth="yes"/>
      <point x="253" y="306"/>
      <point x="260" y="316"/>
      <point x="260" y="337" type="curve" smooth="yes"/>
      <point x="260" y="423"/>
      <point x="218" y="445"/>
    </contour>
    <contour>
      <point x="360" y="468" type="curve" smooth="yes"/>
      <point x="308" y="526"/>
      <point x="255" y="568"/>
      <point x="205" y="639" type="curve" smooth="yes"/>
      <point x="190" y="660"/>
      <point x="178" y="590"/>
      <point x="192" y="567" type="curve" smooth="yes"/>
      <point x="247" y="481"/>
      <point x="308" y="422"/>
      <point x="369" y="364" type="curve"/>
      <point x="338" y="353"/>
      <point x="307" y="333"/>
      <point x="278" y="304" type="curve" smooth="yes"/>
      <point x="250" y="278"/>
      <point x="193" y="237"/>
      <point x="183" y="145" type="curve" smooth="yes"/>
      <point x="181" y="125"/>
      <point x="187" y="103"/>
      <point x="195" y="107" type="curve" smooth="yes"/>
      <point x="223" y="122"/>
      <point x="250" y="192"/>
      <point x="278" y="222" type="curve" smooth="yes"/>
      <point x="320" y="268"/>
      <point x="367" y="298"/>
      <point x="412" y="303" type="curve" smooth="yes"/>
      <point x="418" y="303"/>
      <point x="425" y="313"/>
      <point x="425" y="334" type="curve" smooth="yes"/>
      <point x="425" y="420"/>
      <point x="383" y="442"/>
    </contour>
  </outline>
</glyph>
<glyph name="Thorn" format="1">
  <advance width="333"/>
  <unicode hex="00DE"/>
  <outline>
    <contour>
      <point x="187" y="491" type="curve" smooth="yes"/>
      <point x="135" y="514"/>
      <point x="95" y="489"/>
      <point x="70" y="450" type="curve"/>
      <point x="69" y="557"/>
      <point x="67" y="513"/>
      <point x="62" y="620" type="curve"/>
      <point x="62" y="635"/>
      <point x="36" y="634"/>
      <point x="35" y="619" type="curve" smooth="yes"/>
      <point x="23" y="364"/>
      <point x="30" y="194"/>
      <point x="29" y="-62" type="curve" smooth="yes"/>
      <point x="29" y="-89"/>
      <point x="53" y="-166"/>
      <point x="70" y="-66" type="curve"/>
      <point x="70" y="-29"/>
      <point x="69" y="72"/>
      <point x="69" y="109" type="curve"/>
      <point x="83" y="42"/>
      <point x="124" y="-25"/>
      <point x="197" y="27" type="curve"/>
      <point x="267" y="75"/>
      <point x="307" y="186"/>
      <point x="310" y="267" type="curve" smooth="yes"/>
      <point x="313" y="353"/>
      <point x="269" y="455"/>
    </contour>
    <contour>
      <point x="273" y="270" type="curve" smooth="yes"/>
      <point x="272" y="209"/>
      <point x="241" y="146"/>
      <point x="207" y="97" type="curve" smooth="yes"/>
      <point x="194" y="79"/>
      <point x="175" y="55"/>
      <point x="152" y="51" type="curve" smooth="yes"/>
      <point x="124" y="45"/>
      <point x="117" y="117"/>
      <point x="115" y="132" type="curve" smooth="yes"/>
      <point x="111" y="157"/>
      <point x="79" y="156"/>
      <point x="69" y="138" type="curve"/>
      <point x="70" y="221"/>
      <point x="70" y="304"/>
      <point x="70" y="387" type="curve"/>
      <point x="90" y="438"/>
      <point x="125" y="490"/>
      <point x="186" y="456" type="curve" smooth="yes"/>
      <point x="248" y="421"/>
      <point x="274" y="336"/>
    </contour>
  </outline>
</glyph>
<glyph name="germandbls" format="1">
  <advance width="324"/>
  <unicode hex="00DF"/>
  <outline>
    <contour>
      <point x="28" y="696" type="curve" smooth="yes"/>
      <point x="28" y="429"/>
      <point x="22" y="163"/>
      <point x="23" y="-104" type="curve" smooth="yes"/>
      <point x="23" y="-134"/>
      <point x="58" y="-137"/>
      <point x="58" y="-108" type="curve" smooth="yes"/>
      <point x="54" y="159"/>
      <point x="57" y="426"/>
      <point x="52" y="693" type="curve" smooth="yes"/>
      <point x="52" y="713"/>
      <point x="28" y="716"/>
    </contour>
    <contour>
      <point x="169" y="374" type="curve"/>
      <point x="384" y="471"/>
      <point x="252" y="829"/>
      <point x="64" y="710" type="curve" smooth="yes"/>
      <point x="53" y="703"/>
      <point x="57" y="685"/>
      <point x="71" y="688" type="curve" smooth="yes"/>
      <point x="308" y="731"/>
      <point x="328" y="409"/>
      <point x="105" y="385" type="curve" smooth="yes"/>
      <point x="92" y="384"/>
      <point x="88" y="372"/>
      <point x="91" y="362" type="curve"/>
      <point x="91" y="360"/>
      <point x="90" y="357"/>
      <point x="91" y="353" type="curve"/>
      <point x="93" y="353"/>
      <point x="94" y="354"/>
      <point x="96" y="354" type="curve"/>
      <point x="100" y="350"/>
      <point x="105" y="347"/>
      <point x="112" y="347" type="curve" smooth="yes"/>
      <point x="341" y="359"/>
      <point x="319" y="-3"/>
      <point x="118" y="48" type="curve" smooth="yes"/>
      <point x="96" y="54"/>
      <point x="85" y="25"/>
      <point x="106" y="14" type="curve" smooth="yes"/>
      <point x="299" y="-86"/>
      <point x="402" y="317"/>
    </contour>
  </outline>
</glyph>
<glyph name="idieresis" format="1">
  <advance width="154"/>
  <unicode hex="00EF"/>
  <outline>
    <contour>
      <point x="55" y="513" type="line" smooth="yes"/>
      <point x="50" y="429"/>
      <point x="55" y="343"/>
      <point x="57" y="258" type="curve" smooth="yes"/>
      <point x="58" y="177"/>
      <point x="40" y="95"/>
      <point x="45" y="15" type="curve" smooth="yes"/>
      <point x="46" y="1"/>
      <point x="68" y="-4"/>
      <point x="75" y="8" type="curve" smooth="yes"/>
      <point x="109" y="72"/>
      <point x="104" y="151"/>
      <point x="104" y="222" type="curve" smooth="yes"/>
      <point x="104" y="319"/>
      <point x="97" y="418"/>
      <point x="90" y="515" type="curve" smooth="yes"/>
      <point x="88" y="535"/>
      <point x="57" y="533"/>
      <point x="55" y="513" type="curve" smooth="yes"/>
    </contour>
    <component base="dieresis" xOffset="-63" yOffset="-24"/>
  </outline>
</glyph>
<glyph name="Eogonek" format="1">
  <advance width="369"/>
  <unicode hex="0118"/>
  <outline>
    <contour>
      <point x="75" y="232" type="curve"/>
      <point x="75" y="232"/>
      <point x="75" y="232"/>
      <point x="75" y="232" type="curve" smooth="yes"/>
      <point x="75" y="232"/>
      <point x="75" y="232"/>
    </contour>
    <contour>
      <point x="327" y="718" type="curve" smooth="yes"/>
      <point x="246" y="718"/>
      <point x="156" y="736"/>
      <point x="74" y="725" type="curve"/>
      <point x="67" y="737"/>
      <point x="44" y="737"/>
      <point x="44" y="719" type="curve"/>
      <point x="44" y="719"/>
      <point x="44" y="718"/>
      <point x="43" y="718" type="curve"/>
      <point x="36" y="713"/>
      <point x="34" y="701"/>
      <point x="43" y="696" type="curve"/>
      <point x="33" y="471"/>
      <point x="23" y="245"/>
      <point x="50" y="21" type="curve" smooth="yes"/>
      <point x="51" y="12"/>
      <point x="59" y="5"/>
      <point x="68" y="4" type="curve" smooth="yes"/>
      <point x="98" y="0"/>
      <point x="129" y="-2"/>
      <point x="159" y="-3" type="curve"/>
      <point x="160" y="-4"/>
      <point x="161" y="-4"/>
      <point x="162" y="-5" type="curve"/>
      <point x="146" y="-12"/>
      <point x="132" y="-28"/>
      <point x="123" y="-49" type="curve" smooth="yes"/>
      <point x="110" y="-78"/>
      <point x="109" y="-110"/>
      <point x="120" y="-127" type="curve" smooth="yes"/>
      <point x="134" y="-152"/>
      <point x="157" y="-167"/>
      <point x="181" y="-167" type="curve" smooth="yes"/>
      <point x="181" y="-167"/>
      <point x="181" y="-167"/>
      <point x="181" y="-167" type="curve" smooth="yes"/>
      <point x="189" y="-167"/>
      <point x="197" y="-166"/>
      <point x="205" y="-162" type="curve" smooth="yes"/>
      <point x="221" y="-156"/>
      <point x="237" y="-139"/>
      <point x="243" y="-122" type="curve" smooth="yes"/>
      <point x="247" y="-109"/>
      <point x="247" y="-98"/>
      <point x="241" y="-88" type="curve"/>
      <point x="241" y="-88" type="line"/>
      <point x="238" y="-84"/>
      <point x="234" y="-81"/>
      <point x="229" y="-81" type="curve" smooth="yes"/>
      <point x="223" y="-81"/>
      <point x="218" y="-85"/>
      <point x="216" y="-90" type="curve" smooth="yes"/>
      <point x="215" y="-95"/>
      <point x="214" y="-100"/>
      <point x="213" y="-105" type="curve" smooth="yes"/>
      <point x="210" y="-120"/>
      <point x="208" y="-133"/>
      <point x="190" y="-138" type="curve" smooth="yes"/>
      <point x="187" y="-139"/>
      <point x="184" y="-139"/>
      <point x="181" y="-139" type="curve" smooth="yes"/>
      <point x="162" y="-139"/>
      <point x="146" y="-122"/>
      <point x="144" y="-106" type="curve" smooth="yes"/>
      <point x="141" y="-87"/>
      <point x="147" y="-58"/>
      <point x="161" y="-41" type="curve" smooth="yes"/>
      <point x="171" y="-31"/>
      <point x="183" y="-26"/>
      <point x="198" y="-28" type="curve"/>
      <point x="199" y="-28"/>
      <point x="200" y="-28"/>
      <point x="201" y="-28" type="curve" smooth="yes"/>
      <point x="207" y="-28"/>
      <point x="212" y="-24"/>
      <point x="214" y="-19" type="curve" smooth="yes"/>
      <point x="215" y="-15"/>
      <point x="214" y="-11"/>
      <point x="211" y="-7" type="curve"/>
      <point x="211" y="-7"/>
      <point x="211" y="-7"/>
      <point x="211" y="-6" type="curve"/>
      <point x="238" y="-8"/>
      <point x="266" y="-10"/>
      <point x="293" y="-13" type="curve" smooth="yes"/>
      <point x="312" y="-15"/>
      <point x="319" y="14"/>
      <point x="301" y="20" type="curve" smooth="yes"/>
      <point x="261" y="34"/>
      <point x="227" y="37"/>
      <point x="184" y="39" type="curve"/>
      <point x="106" y="42" type="line"/>
      <point x="70" y="44"/>
      <point x="75" y="233"/>
      <point x="75" y="232" type="curve"/>
      <point x="74" y="273"/>
      <point x="74" y="313"/>
      <point x="74" y="354" type="curve"/>
      <point x="105" y="339"/>
      <point x="144" y="341"/>
      <point x="178" y="341" type="curve" smooth="yes"/>
      <point x="202" y="341"/>
      <point x="263" y="337"/>
      <point x="277" y="362" type="curve"/>
      <point x="280" y="369"/>
      <point x="281" y="379"/>
      <point x="273" y="384" type="curve"/>
      <point x="252" y="395"/>
      <point x="218" y="382"/>
      <point x="196" y="380" type="curve" smooth="yes"/>
      <point x="154" y="376"/>
      <point x="115" y="379"/>
      <point x="74" y="384" type="curve"/>
      <point x="75" y="486"/>
      <point x="79" y="587"/>
      <point x="77" y="689" type="curve"/>
      <point x="157" y="675"/>
      <point x="244" y="677"/>
      <point x="323" y="676" type="curve" smooth="yes"/>
      <point x="350" y="676"/>
      <point x="354" y="718"/>
    </contour>
  </outline>
</glyph>
<glyph name="Scaron" format="1">
  <advance width="373"/>
  <unicode hex="0160"/>
  <outline>
    <contour>
      <point x="315" y="900" type="curve" smooth="yes"/>
      <point x="327" y="910"/>
      <point x="288" y="917"/>
      <point x="276" y="907" type="curve" smooth="yes"/>
      <point x="240" y="877"/>
      <point x="219" y="844"/>
      <point x="183" y="813" type="curve"/>
      <point x="171" y="851"/>
      <point x="151" y="903"/>
      <point x="72" y="916" type="curve" smooth="yes"/>
      <point x="61" y="918"/>
      <point x="50" y="914"/>
      <point x="54" y="909" type="curve" smooth="yes"/>
      <point x="70" y="890"/>
      <point x="105" y="874"/>
      <point x="118" y="854" type="curve" smooth="yes"/>
      <point x="132" y="831"/>
      <point x="140" y="808"/>
      <point x="150" y="786" type="curve" smooth="yes"/>
      <point x="154" y="777"/>
      <point x="179" y="775"/>
      <point x="191" y="783" type="curve" smooth="yes"/>
      <point x="249" y="819"/>
      <point x="269" y="862"/>
    </contour>
    <component base="S"/>
  </outline>
</glyph>
<glyph name="scaron" format="1">
  <advance width="306"/>
  <unicode hex="0161"/>
  <outline>
    <contour>
      <point x="281" y="691" type="curve" smooth="yes"/>
      <point x="293" y="701"/>
      <point x="254" y="708"/>
      <point x="242" y="698" type="curve" smooth="yes"/>
      <point x="206" y="668"/>
      <point x="185" y="635"/>
      <point x="149" y="604" type="curve"/>
      <point x="137" y="642"/>
      <point x="117" y="694"/>
      <point x="38" y="707" type="curve" smooth="yes"/>
      <point x="27" y="709"/>
      <point x="16" y="705"/>
      <point x="20" y="700" type="curve" smooth="yes"/>
      <point x="36" y="681"/>
      <point x="71" y="665"/>
      <point x="84" y="645" type="curve" smooth="yes"/>
      <point x="98" y="622"/>
      <point x="106" y="599"/>
      <point x="116" y="577" type="curve" smooth="yes"/>
      <point x="120" y="568"/>
      <point x="145" y="566"/>
      <point x="157" y="574" type="curve" smooth="yes"/>
      <point x="215" y="610"/>
      <point x="235" y="653"/>
    </contour>
    <component base="s"/>
  </outline>
</glyph>
<glyph name="florin" format="1">
  <advance width="318"/>
  <unicode hex="0192"/>
  <outline>
    <contour>
      <point x="152" y="747" type="curve" smooth="yes"/>
      <point x="118" y="704"/>
      <point x="129" y="619"/>
      <point x="129" y="569" type="curve" smooth="yes"/>
      <point x="129" y="544"/>
      <point x="129" y="520"/>
      <point x="129" y="496" type="curve"/>
      <point x="100" y="500"/>
      <point x="73" y="509"/>
      <point x="45" y="512" type="curve" smooth="yes"/>
      <point x="29" y="514"/>
      <point x="20" y="491"/>
      <point x="34" y="482" type="curve" smooth="yes"/>
      <point x="59" y="465"/>
      <point x="92" y="456"/>
      <point x="127" y="452" type="curve"/>
      <point x="122" y="308"/>
      <point x="108" y="163"/>
      <point x="107" y="18" type="curve" smooth="yes"/>
      <point x="107" y="-4"/>
      <point x="143" y="-8"/>
      <point x="143" y="15" type="curve" smooth="yes"/>
      <point x="144" y="160"/>
      <point x="149" y="305"/>
      <point x="156" y="450" type="curve"/>
      <point x="190" y="448"/>
      <point x="224" y="451"/>
      <point x="251" y="455" type="curve" smooth="yes"/>
      <point x="277" y="459"/>
      <point x="270" y="499"/>
      <point x="244" y="495" type="curve" smooth="yes"/>
      <point x="215" y="491"/>
      <point x="187" y="491"/>
      <point x="158" y="493" type="curve"/>
      <point x="158" y="499"/>
      <point x="159" y="505"/>
      <point x="159" y="510" type="curve" smooth="yes"/>
      <point x="161" y="549"/>
      <point x="161" y="587"/>
      <point x="162" y="625" type="curve" smooth="yes"/>
      <point x="162" y="641"/>
      <point x="163" y="658"/>
      <point x="165" y="674" type="curve" smooth="yes"/>
      <point x="173" y="772"/>
      <point x="265" y="674"/>
      <point x="255" y="619" type="curve" smooth="yes"/>
      <point x="251" y="603"/>
      <point x="274" y="601"/>
      <point x="280" y="613" type="curve" smooth="yes"/>
      <point x="318" y="690"/>
      <point x="220" y="834"/>
    </contour>
  </outline>
</glyph>
<glyph name="tilde" format="1">
  <advance width="337"/>
  <unicode hex="02DC"/>
  <outline>
    <contour>
      <point x="67" y="692" type="curve" smooth="yes"/>
      <point x="85" y="710"/>
      <point x="95" y="714"/>
      <point x="128" y="701" type="curve" smooth="yes"/>
      <point x="152" y="691"/>
      <point x="175" y="679"/>
      <point x="201" y="671" type="curve" smooth="yes"/>
      <point x="257" y="654"/>
      <point x="324" y="681"/>
      <point x="319" y="723" type="curve" smooth="yes"/>
      <point x="318" y="734"/>
      <point x="302" y="740"/>
      <point x="290" y="737" type="curve" smooth="yes"/>
      <point x="265" y="728"/>
      <point x="253" y="698"/>
      <point x="218" y="706" type="curve" smooth="yes"/>
      <point x="192" y="711"/>
      <point x="169" y="726"/>
      <point x="146" y="736" type="curve" smooth="yes"/>
      <point x="93" y="758"/>
      <point x="41" y="751"/>
      <point x="19" y="713" type="curve" smooth="yes"/>
      <point x="8" y="692"/>
      <point x="48" y="672"/>
    </contour>
  </outline>
</glyph>
<glyph name="hungarumlaut" format="1">
  <advance width="400"/>
  <unicode hex="02DD"/>
  <outline>
    <contour>
      <point x="122" y="806" type="curve" smooth="yes"/>
      <point x="109" y="778"/>
      <point x="91" y="752"/>
      <point x="70" y="729" type="curve" smooth="yes"/>
      <point x="51" y="707"/>
      <point x="30" y="689"/>
      <point x="22" y="660" type="curve" smooth="yes"/>
      <point x="18" y="647"/>
      <point x="33" y="638"/>
      <point x="44" y="642" type="curve"/>
      <point x="74" y="650"/>
      <point x="97" y="678"/>
      <point x="116" y="702" type="curve" smooth="yes"/>
      <point x="137" y="728"/>
      <point x="155" y="754"/>
      <point x="167" y="785" type="curve" smooth="yes"/>
      <point x="178" y="815"/>
      <point x="136" y="835"/>
    </contour>
    <contour>
      <point x="322" y="806" type="curve" smooth="yes"/>
      <point x="309" y="778"/>
      <point x="291" y="752"/>
      <point x="270" y="729" type="curve" smooth="yes"/>
      <point x="251" y="707"/>
      <point x="230" y="689"/>
      <point x="222" y="660" type="curve" smooth="yes"/>
      <point x="218" y="647"/>
      <point x="233" y="638"/>
      <point x="244" y="642" type="curve"/>
      <point x="274" y="650"/>
      <point x="297" y="678"/>
      <point x="316" y="702" type="curve" smooth="yes"/>
      <point x="337" y="728"/>
      <point x="355" y="754"/>
      <point x="367" y="785" type="curve" smooth="yes"/>
      <point x="378" y="815"/>
      <point x="336" y="835"/>
    </contour>
  </outline>
</glyph>
<glyph name="emdash" format="1">
  <advance width="833"/>
  <unicode hex="2014"/>
  <outline>
    <contour>
      <point x="226" y="326" type="curve" smooth="yes"/>
      <point x="363" y="343"/>
      <point x="496" y="310"/>
      <point x="632" y="314" type="curve" smooth="yes"/>
      <point x="662" y="315"/>
      <point x="668" y="359"/>
      <point x="637" y="361" type="curve" smooth="yes"/>
      <point x="498" y="371"/>
      <point x="357" y="393"/>
      <point x="218" y="373" type="curve" smooth="yes"/>
      <point x="187" y="369"/>
      <point x="195" y="322"/>
    </contour>
  </outline>
</glyph>
<glyph name="quoteleft" format="1">
  <advance width="172"/>
  <unicode hex="2018"/>
  <outline>
    <contour>
      <point x="104" y="834" type="curve" smooth="yes"/>
      <point x="69" y="807"/>
      <point x="44" y="775"/>
      <point x="38" y="730" type="curve" smooth="yes"/>
      <point x="32" y="687"/>
      <point x="59" y="651"/>
      <point x="98" y="636" type="curve" smooth="yes"/>
      <point x="113" y="630"/>
      <point x="125" y="647"/>
      <point x="120" y="660" type="curve" smooth="yes"/>
      <point x="117" y="668"/>
      <point x="116" y="676"/>
      <point x="115" y="684" type="curve"/>
      <point x="123" y="689"/>
      <point x="127" y="698"/>
      <point x="123" y="709" type="curve" smooth="yes"/>
      <point x="121" y="715"/>
      <point x="119" y="721"/>
      <point x="118" y="726" type="curve" smooth="yes"/>
      <point x="115" y="741"/>
      <point x="98" y="746"/>
      <point x="87" y="740" type="curve"/>
      <point x="93" y="764"/>
      <point x="108" y="787"/>
      <point x="128" y="805" type="curve" smooth="yes"/>
      <point x="145" y="822"/>
      <point x="123" y="848"/>
    </contour>
  </outline>
</glyph>
<glyph name="quoteright" format="1">
  <advance width="154"/>
  <unicode hex="2019"/>
  <outline>
    <contour>
      <point x="59" y="639" type="curve" smooth="yes"/>
      <point x="94" y="666"/>
      <point x="118" y="698"/>
      <point x="124" y="743" type="curve" smooth="yes"/>
      <point x="131" y="786"/>
      <point x="103" y="821"/>
      <point x="65" y="837" type="curve" smooth="yes"/>
      <point x="49" y="843"/>
      <point x="37" y="826"/>
      <point x="42" y="812" type="curve" smooth="yes"/>
      <point x="45" y="805"/>
      <point x="46" y="797"/>
      <point x="48" y="789" type="curve"/>
      <point x="39" y="784"/>
      <point x="36" y="774"/>
      <point x="39" y="763" type="curve" smooth="yes"/>
      <point x="41" y="757"/>
      <point x="43" y="752"/>
      <point x="44" y="746" type="curve" smooth="yes"/>
      <point x="47" y="731"/>
      <point x="65" y="727"/>
      <point x="76" y="733" type="curve"/>
      <point x="70" y="709"/>
      <point x="54" y="686"/>
      <point x="34" y="667" type="curve" smooth="yes"/>
      <point x="17" y="651"/>
      <point x="39" y="625"/>
    </contour>
  </outline>
</glyph>
<glyph name="quotedblleft" format="1">
  <advance width="244"/>
  <unicode hex="201C"/>
  <outline>
    <contour>
      <point x="111" y="704" type="curve" smooth="yes"/>
      <point x="111" y="711"/>
      <point x="106" y="720"/>
      <point x="98" y="720" type="curve" smooth="yes"/>
      <point x="92" y="720"/>
      <point x="84" y="719"/>
      <point x="76" y="717" type="curve"/>
      <point x="74" y="744"/>
      <point x="83" y="768"/>
      <point x="107" y="789" type="curve" smooth="yes"/>
      <point x="121" y="801"/>
      <point x="106" y="824"/>
      <point x="89" y="816" type="curve" smooth="yes"/>
      <point x="30" y="787"/>
      <point x="29" y="713"/>
      <point x="51" y="659" type="curve" smooth="yes"/>
      <point x="54" y="651"/>
      <point x="63" y="648"/>
      <point x="71" y="648" type="curve" smooth="yes"/>
      <point x="79" y="649"/>
      <point x="87" y="651"/>
      <point x="95" y="651" type="curve" smooth="yes"/>
      <point x="103" y="651"/>
      <point x="113" y="656"/>
      <point x="112" y="665" type="curve" smooth="yes"/>
      <point x="112" y="675"/>
      <point x="111" y="685"/>
      <point x="113" y="694" type="curve" smooth="yes"/>
      <point x="113" y="698"/>
      <point x="112" y="701"/>
      <point x="111" y="704" type="curve"/>
      <point x="111" y="704"/>
      <point x="111" y="704"/>
    </contour>
    <contour>
      <point x="211" y="780" type="curve" smooth="yes"/>
      <point x="225" y="793"/>
      <point x="207" y="815"/>
      <point x="192" y="803" type="curve" smooth="yes"/>
      <point x="164" y="781"/>
      <point x="144" y="755"/>
      <point x="139" y="720" type="curve" smooth="yes"/>
      <point x="134" y="685"/>
      <point x="156" y="656"/>
      <point x="187" y="644" type="curve" smooth="yes"/>
      <point x="200" y="639"/>
      <point x="209" y="652"/>
      <point x="205" y="664" type="curve" smooth="yes"/>
      <point x="203" y="669"/>
      <point x="201" y="675"/>
      <point x="201" y="682" type="curve"/>
      <point x="207" y="686"/>
      <point x="210" y="694"/>
      <point x="207" y="703" type="curve" smooth="yes"/>
      <point x="206" y="708"/>
      <point x="204" y="712"/>
      <point x="203" y="717" type="curve" smooth="yes"/>
      <point x="201" y="729"/>
      <point x="187" y="732"/>
      <point x="178" y="728" type="curve"/>
      <point x="183" y="747"/>
      <point x="196" y="765"/>
    </contour>
  </outline>
</glyph>
<glyph name="quotedblright" format="1">
  <advance width="239"/>
  <unicode hex="201D"/>
  <outline>
    <contour>
      <point x="47" y="639" type="curve" smooth="yes"/>
      <point x="82" y="666"/>
      <point x="106" y="698"/>
      <point x="113" y="743" type="curve" smooth="yes"/>
      <point x="119" y="786"/>
      <point x="91" y="821"/>
      <point x="53" y="837" type="curve" smooth="yes"/>
      <point x="37" y="843"/>
      <point x="25" y="826"/>
      <point x="31" y="812" type="curve" smooth="yes"/>
      <point x="33" y="805"/>
      <point x="35" y="797"/>
      <point x="36" y="789" type="curve"/>
      <point x="28" y="784"/>
      <point x="24" y="774"/>
      <point x="28" y="763" type="curve" smooth="yes"/>
      <point x="30" y="757"/>
      <point x="32" y="752"/>
      <point x="33" y="746" type="curve" smooth="yes"/>
      <point x="35" y="731"/>
      <point x="53" y="727"/>
      <point x="64" y="733" type="curve"/>
      <point x="58" y="709"/>
      <point x="42" y="686"/>
      <point x="23" y="667" type="curve" smooth="yes"/>
      <point x="5" y="651"/>
      <point x="28" y="625"/>
    </contour>
    <contour>
      <point x="155" y="639" type="curve" smooth="yes"/>
      <point x="190" y="666"/>
      <point x="214" y="698"/>
      <point x="221" y="743" type="curve" smooth="yes"/>
      <point x="227" y="786"/>
      <point x="199" y="821"/>
      <point x="161" y="837" type="curve" smooth="yes"/>
      <point x="145" y="843"/>
      <point x="133" y="826"/>
      <point x="139" y="812" type="curve" smooth="yes"/>
      <point x="141" y="805"/>
      <point x="143" y="797"/>
      <point x="144" y="789" type="curve"/>
      <point x="136" y="784"/>
      <point x="132" y="774"/>
      <point x="136" y="763" type="curve" smooth="yes"/>
      <point x="138" y="757"/>
      <point x="139" y="752"/>
      <point x="141" y="746" type="curve" smooth="yes"/>
      <point x="143" y="731"/>
      <point x="161" y="727"/>
      <point x="172" y="733" type="curve"/>
      <point x="166" y="709"/>
      <point x="150" y="686"/>
      <point x="131" y="667" type="curve" smooth="yes"/>
      <point x="113" y="651"/>
      <point x="136" y="625"/>
    </contour>
  </outline>
</glyph>
<glyph name="quotedblbase" format="1">
  <advance width="280"/>
  <unicode hex="201E"/>
  <outline>
    <contour>
      <point x="160" y="716" type="curve"/>
      <point x="159" y="716"/>
      <point x="159" y="716"/>
      <point x="159" y="715" type="curve" smooth="yes"/>
      <point x="159" y="706"/>
      <point x="166" y="696"/>
      <point x="175" y="696" type="curve" smooth="yes"/>
      <point x="182" y="696"/>
      <point x="192" y="697"/>
      <point x="203" y="699" type="curve"/>
      <point x="204" y="666"/>
      <point x="194" y="636"/>
      <point x="164" y="610" type="curve" smooth="yes"/>
      <point x="147" y="595"/>
      <point x="165" y="566"/>
      <point x="186" y="576" type="curve" smooth="yes"/>
      <point x="260" y="612"/>
      <point x="261" y="704"/>
      <point x="234" y="771" type="curve" smooth="yes"/>
      <point x="230" y="781"/>
      <point x="219" y="785"/>
      <point x="209" y="784" type="curve" smooth="yes"/>
      <point x="199" y="783"/>
      <point x="189" y="781"/>
      <point x="179" y="781" type="curve" smooth="yes"/>
      <point x="169" y="781"/>
      <point x="157" y="775"/>
      <point x="157" y="763" type="curve" smooth="yes"/>
      <point x="158" y="751"/>
      <point x="158" y="739"/>
      <point x="157" y="727" type="curve" smooth="yes"/>
      <point x="156" y="723"/>
      <point x="158" y="720"/>
    </contour>
    <contour>
      <point x="58" y="592" type="curve" smooth="yes"/>
      <point x="93" y="619"/>
      <point x="118" y="651"/>
      <point x="124" y="696" type="curve" smooth="yes"/>
      <point x="130" y="739"/>
      <point x="103" y="775"/>
      <point x="64" y="790" type="curve" smooth="yes"/>
      <point x="49" y="796"/>
      <point x="37" y="779"/>
      <point x="42" y="766" type="curve" smooth="yes"/>
      <point x="45" y="758"/>
      <point x="46" y="750"/>
      <point x="47" y="742" type="curve"/>
      <point x="39" y="737"/>
      <point x="35" y="728"/>
      <point x="39" y="717" type="curve" smooth="yes"/>
      <point x="41" y="711"/>
      <point x="43" y="705"/>
      <point x="44" y="700" type="curve" smooth="yes"/>
      <point x="47" y="685"/>
      <point x="64" y="680"/>
      <point x="75" y="686" type="curve"/>
      <point x="69" y="662"/>
      <point x="54" y="639"/>
      <point x="34" y="621" type="curve" smooth="yes"/>
      <point x="17" y="604"/>
      <point x="39" y="578"/>
    </contour>
  </outline>
</glyph>
<glyph name="daggerdbl" format="1">
  <advance width="500"/>
  <unicode hex="2021"/>
  <outline>
    <contour>
      <point x="247" y="765" type="curve" smooth="yes"/>
      <point x="227" y="461"/>
      <point x="189" y="141"/>
      <point x="230" y="-163" type="curve" smooth="yes"/>
      <point x="234" y="-199"/>
      <point x="286" y="-190"/>
      <point x="279" y="-154" type="curve" smooth="yes"/>
      <point x="216" y="150"/>
      <point x="311" y="462"/>
      <point x="274" y="767" type="curve" smooth="yes"/>
      <point x="273" y="785"/>
      <point x="247" y="784"/>
    </contour>
    <contour>
      <point x="403" y="420" type="curve" smooth="yes"/>
      <point x="428" y="421"/>
      <point x="432" y="459"/>
      <point x="407" y="459" type="curve" smooth="yes"/>
      <point x="300" y="459"/>
      <point x="187" y="450"/>
      <point x="82" y="431" type="curve" smooth="yes"/>
      <point x="68" y="428"/>
      <point x="70" y="409"/>
      <point x="83" y="407" type="curve" smooth="yes"/>
      <point x="188" y="391"/>
      <point x="298" y="418"/>
    </contour>
    <contour>
      <point x="397" y="287" type="curve" smooth="yes"/>
      <point x="309" y="293"/>
      <point x="204" y="310"/>
      <point x="118" y="288" type="curve" smooth="yes"/>
      <point x="106" y="285"/>
      <point x="97" y="274"/>
      <point x="100" y="261" type="curve" smooth="yes"/>
      <point x="98" y="270"/>
      <point x="97" y="266"/>
      <point x="95" y="257" type="curve" smooth="yes"/>
      <point x="93" y="246"/>
      <point x="105" y="239"/>
      <point x="112" y="244" type="curve"/>
      <point x="116" y="242"/>
      <point x="121" y="241"/>
      <point x="126" y="242" type="curve" smooth="yes"/>
      <point x="217" y="257"/>
      <point x="308" y="236"/>
      <point x="399" y="241" type="curve" smooth="yes"/>
      <point x="426" y="242"/>
      <point x="423" y="285"/>
    </contour>
  </outline>
</glyph>
<glyph name="bullet" format="1">
  <advance width="297"/>
  <unicode hex="2022"/>
  <outline>
    <contour>
      <point x="33" y="364" type="curve" smooth="yes"/>
      <point x="71" y="289"/>
      <point x="170" y="292"/>
      <point x="223" y="346" type="curve" smooth="yes"/>
      <point x="273" y="397"/>
      <point x="294" y="456"/>
      <point x="268" y="526" type="curve" smooth="yes"/>
      <point x="256" y="559"/>
      <point x="218" y="577"/>
      <point x="187" y="584" type="curve" smooth="yes"/>
      <point x="175" y="587"/>
      <point x="164" y="587"/>
      <point x="152" y="586" type="curve"/>
      <point x="102" y="615"/>
      <point x="19" y="566"/>
      <point x="27" y="497" type="curve" smooth="yes"/>
      <point x="27" y="495"/>
      <point x="27" y="493"/>
      <point x="27" y="492" type="curve"/>
      <point x="18" y="446"/>
      <point x="17" y="393"/>
    </contour>
  </outline>
</glyph>
<glyph name="guilsinglleft" format="1">
  <advance width="285"/>
  <unicode hex="2039"/>
  <outline>
    <contour>
      <point x="81" y="471" type="curve" smooth="yes"/>
      <point x="58" y="445"/>
      <point x="16" y="423"/>
      <point x="16" y="337" type="curve" smooth="yes"/>
      <point x="16" y="316"/>
      <point x="23" y="306"/>
      <point x="29" y="306" type="curve"/>
      <point x="74" y="301"/>
      <point x="121" y="271"/>
      <point x="163" y="225" type="curve" smooth="yes"/>
      <point x="191" y="195"/>
      <point x="218" y="125"/>
      <point x="246" y="110" type="curve" smooth="yes"/>
      <point x="254" y="106"/>
      <point x="260" y="128"/>
      <point x="258" y="148" type="curve" smooth="yes"/>
      <point x="248" y="240"/>
      <point x="191" y="281"/>
      <point x="163" y="307" type="curve"/>
      <point x="134" y="336"/>
      <point x="103" y="356"/>
      <point x="72" y="367" type="curve"/>
      <point x="133" y="425"/>
      <point x="194" y="484"/>
      <point x="249" y="570" type="curve" smooth="yes"/>
      <point x="263" y="593"/>
      <point x="251" y="663"/>
      <point x="236" y="642" type="curve" smooth="yes"/>
      <point x="186" y="571"/>
      <point x="133" y="529"/>
    </contour>
  </outline>
</glyph>
<glyph name="guilsinglright" format="1">
  <advance width="280"/>
  <unicode hex="203A"/>
  <outline>
    <contour>
      <point x="198" y="471" type="curve" smooth="yes"/>
      <point x="146" y="529"/>
      <point x="93" y="571"/>
      <point x="43" y="642" type="curve" smooth="yes"/>
      <point x="28" y="663"/>
      <point x="16" y="593"/>
      <point x="30" y="570" type="curve" smooth="yes"/>
      <point x="85" y="484"/>
      <point x="146" y="425"/>
      <point x="207" y="367" type="curve"/>
      <point x="176" y="356"/>
      <point x="145" y="336"/>
      <point x="116" y="307" type="curve" smooth="yes"/>
      <point x="88" y="281"/>
      <point x="31" y="240"/>
      <point x="21" y="148" type="curve" smooth="yes"/>
      <point x="19" y="128"/>
      <point x="25" y="106"/>
      <point x="33" y="110" type="curve" smooth="yes"/>
      <point x="61" y="125"/>
      <point x="88" y="195"/>
      <point x="116" y="225" type="curve" smooth="yes"/>
      <point x="158" y="271"/>
      <point x="205" y="301"/>
      <point x="250" y="306" type="curve" smooth="yes"/>
      <point x="256" y="306"/>
      <point x="263" y="316"/>
      <point x="263" y="337" type="curve" smooth="yes"/>
      <point x="263" y="423"/>
      <point x="221" y="445"/>
    </contour>
  </outline>
</glyph>
